<svg xmlns="http://www.w3.org/2000/svg">
<defs>
<font id="GTAmericaMono-Medium" horiz-adv-x="620">
  <font-face font-family="GT America Mono Medium" font-weight="500" font-stretch="normal" units-per-em="1000" panose-1="0 0 6 0 0 0 0 0 0 0" ascent="800" descent="-200" x-height="500" cap-height="710" bbox="-507 -241 1220 928" underline-thickness="50" underline-position="-50" unicode-range="U+000D-U+FB02"/>

<glyph glyph-name="fi" unicode="fi" horiz-adv-x="1240" d="M527 412l-183 -0.000976562v-412h-118v412h-151v88h151v47c0 60.667 17.667 106 53 136s87.333 45 156 45c32 0 62.667 -3.33301 92 -10v-93c-34 4.66699 -61.667 7 -83 7c-36.667 0 -62.5 -6.66699 -77.5 -20s-22.5 -36.666 -22.5 -69.999v-42h183v-88zM733 89.999h156 v320h-141v90h258v-410h164v-90h-437v90zM1011 583.999h-146v138h146v-138z"/>
    <glyph glyph-name="fl" unicode="fl" horiz-adv-x="1240" d="M527 412l-183 -0.000976562v-412h-118v412h-151v88h151v47c0 60.667 17.667 106 53 136s87.333 45 156 45c32 0 62.667 -3.33301 92 -10v-93c-34 4.66699 -61.667 7 -83 7c-36.667 0 -62.5 -6.66699 -77.5 -20s-22.5 -36.666 -22.5 -69.999v-42h183v-88zM733 89.999h156 v545h-144v90h261v-635h164v-90h-437v90z"/>
    <glyph glyph-name=".notdef" horiz-adv-x="1240" d="M446 663v-47h774v-48h-774v-47h774v-48h-774v-47h774v-47h-774v-48h774v-47h-1200v426h1200v-47h-774zM80 676h-16l-5 15l-4 -15h-16l13 -9l-5 -15l12 9l13 -9l-5 15zM126 676l13 -9l-5 -15l12 10l13 -10l-5 15l12 9h-15l-5 15l-4 -15h-16zM213 676l13 -9l-5 -15l12 10 l13 -10l-5 15l12 9h-15l-5 15l-4 -15h-16zM300 676l13 -9l-5 -15l12 10l13 -10l-5 15l12 9h-15l-5 15l-5 -15h-15zM427 676h-15l-5 15l-5 -15h-15l12 -9l-4 -15l12 10l13 -10l-5 15zM83 632l12 -9l-4 -14l12 9l12 -9l-4 14l12 9h-15l-5 15l-5 -15h-15zM384 632h-16l-4 15 l-5 -15h-15l12 -9l-5 -14l13 9l12 -9l-5 14zM273 457h94v80h-94v94h-80v-94h-93v-80h93v-93h80v93zM80 589h-16l-5 14l-4 -14h-16l13 -9l-5 -15l12 9l13 -9l-5 15zM126 589l13 -9l-5 -15l12 9l13 -9l-5 15l12 9h-15l-5 14l-4 -14h-16zM300 589l13 -9l-5 -15l12 9l13 -9 l-5 15l12 9h-15l-5 14l-5 -14h-15zM427 589h-15l-5 14l-5 -14h-15l12 -9l-4 -15l12 9l13 -9l-5 15zM80 502h-16l-5 14l-4 -14h-16l13 -10l-5 -14l12 9l13 -9l-5 14zM427 502h-15l-5 14l-5 -14h-15l12 -10l-4 -14l12 9l13 -9l-5 14zM80 414h-16l-5 15l-4 -15h-16l13 -9 l-5 -14l12 9l13 -9l-5 14zM166 414h-15l-5 15l-4 -15h-16l13 -9l-5 -14l12 9l13 -9l-5 14zM340 414h-15l-5 15l-5 -15h-15l13 -9l-5 -14l12 9l13 -9l-5 14zM427 414h-15l-5 15l-5 -15h-15l12 -9l-4 -14l12 9l13 -9l-5 14zM111 362l12 9h-15l-5 14l-5 -14h-15l12 -9l-4 -15 l12 9l12 -9zM371 362l13 9h-16l-4 14l-5 -14h-15l12 -9l-5 -15l13 9l12 -9zM67 318l13 9h-16l-5 15l-4 -15h-16l13 -9l-5 -15l12 9l13 -9zM154 318l12 9h-15l-5 15l-4 -15h-16l13 -9l-5 -15l12 9l13 -9zM241 318l12 9h-15l-5 15l-4 -15h-16l13 -9l-5 -15l12 9l13 -9z M328 318l12 9h-15l-5 15l-5 -15h-15l13 -9l-5 -15l12 9l13 -9zM415 318l12 9h-15l-5 15l-5 -15h-15l12 -9l-4 -15l12 9l13 -9zM20 237h1199v-48h-1199v48zM20 142h1200v-47h-1200v47zM20 47h1200v-47h-1200v47z"/>
    <glyph glyph-name=".null" horiz-adv-x="0"/>
    <glyph glyph-name=".null" horiz-adv-x="0"/>
    <glyph glyph-name="nonmarkingreturn" unicode="&#xD;" horiz-adv-x="0"/>
    <glyph glyph-name="space" unicode=" "/>
    <glyph glyph-name="exclam" unicode="!" d="M241 710h137l-20 -503h-97zM387 0h-155v150h155v-150z"/>
    <glyph glyph-name="quotedbl" unicode="&quot;" d="M334 710h141l-30 -300h-81zM144 710h141l-30 -300h-81z"/>
    <glyph glyph-name="numbersign" unicode="#" d="M468 417l-26 -139h103v-87h-119l-36 -191h-99l36 191h-101l-36 -191h-99l36 191h-93v87h109l26 139h-95v87h111l35 187h99l-35 -187h101l35 187h99l-35 -187h95v-87h-111zM369 417h-101l-26 -139h101z"/>
    <glyph glyph-name="dollar" unicode="$" d="M541.5 92c-17 -30.667 -42.5 -55.6641 -76.5 -74.9971s-75.667 -30 -125 -32v-92h-45v93c-67.333 4.66699 -121.333 25 -162 61s-67.667 84.333 -81 145l116 31c20 -85.333 62.333 -133.333 127 -144v221l-47 12c-53.333 13.333 -95.666 37.166 -126.999 71.499 s-47 77.5 -47 129.5c0 35.333 9.16699 67.666 27.5 96.999s44.166 52.833 77.499 70.5s72 27.5 116 29.5v90h45v-91c61.333 -4 111.833 -21.833 151.5 -53.5s62.834 -78.5 69.501 -140.5l-116 -35c-4 40.667 -15.333 72.167 -34 94.5s-42.334 36.166 -71.001 41.499v-213 l50 -13c56 -14.667 99.5 -36.5 130.5 -65.5s46.5 -73.167 46.5 -132.5c0 -36 -8.5 -69.333 -25.5 -100zM295 414.003l-0.000976562 205c-37.333 -2 -64.666 -12.5 -81.999 -31.5s-26 -41.167 -26 -66.5c0 -26 9.33301 -48.167 28 -66.5s44.667 -31.5 78 -39.5z M420.499 103.003c21 15.333 31.5 39 31.5 71c0 34.667 -9.5 60.167 -28.5 76.5s-45.5 28.833 -79.5 37.5l-4 1v-212c32.667 2 59.5 10.667 80.5 26z"/>
    <glyph glyph-name="percent" unicode="%" d="M474 730h76l-413 -744h-77zM56 424.5c-25.333 29.667 -38 70.5 -38 122.5c0 50 12.667 89.833 38 119.5s58.666 44.5 99.999 44.5c40.667 0 73.834 -15.167 99.501 -45.5s38.5 -70.833 38.5 -121.5c0 -50 -12.667 -89.833 -38 -119.5s-58 -44.5 -98 -44.5 c-42.667 0 -76.667 14.833 -102 44.5zM200 474.5c10 16.333 15 39.833 15 70.5c0 30 -5.16699 53.5 -15.5 70.5s-24.5 25.5 -42.5 25.5c-19.333 0 -34.333 -8.16699 -45 -24.5s-16 -39.5 -16 -69.5c0 -31.333 5.33301 -55.333 16 -72s25.667 -25 45 -25 c18.667 0 33 8.16699 43 24.5zM363.5 44.5c-25 29.667 -37.5 70.5 -37.5 122.5c0 50 12.5 89.833 37.5 119.5s58.5 44.5 100.5 44.5c40.667 0 73.667 -15.167 99 -45.5s38 -70.833 38 -121.5c0 -50 -12.667 -89.833 -38 -119.5s-58 -44.5 -98 -44.5 c-42.667 -0 -76.5 14.833 -101.5 44.5zM508 94c10 16 15.001 39.332 15.001 69.999s-5.16699 54.5 -15.5 71.5s-24.833 25.5 -43.5 25.5s-33.334 -8.33301 -44.001 -25s-16 -40 -16 -70c0 -31.333 5.33301 -55.166 16 -71.499s25.667 -24.5 45 -24.5c18.667 0 33 8 43 24z "/>
    <glyph glyph-name="ampersand" unicode="&amp;" d="M602 98l0.00292969 -97.001c-17.333 -4.66699 -32.333 -7 -45 -7c-46.667 0 -86 19.667 -118 59v1c-52.667 -47.333 -117.334 -71 -194.001 -71c-70 0 -123.833 18.333 -161.5 55s-56.5 84.667 -56.5 144c0 90 48 160 144 210c-24 28.667 -43.167 56.5 -57.5 83.5 s-21.5 57.167 -21.5 90.5s8.16699 62.166 24.5 86.499s38.166 42.833 65.499 55.5s57.333 19 90 19c31.333 0 60.166 -5.83301 86.499 -17.5s47.5 -29 63.5 -52s24 -50.5 24 -82.5c0 -40.667 -12.5 -76.167 -37.5 -106.5s-59.833 -59.166 -104.5 -86.499l137 -168 c18 48 29 108 33 180l93 -18c-6 -93.333 -27 -172.666 -63 -237.999l1 -2c10.667 -14 22.167 -24 34.5 -30s25.833 -9 40.5 -9c10 0 17.333 0.333008 22 1zM216.003 625.999c-14 -12.667 -21 -31.001 -21 -55.001c0 -20 5 -40 15 -60s25.333 -43.333 46 -70l1 1 c30 21.333 52 41.833 66 61.5s21 41.834 21 66.501c0 24 -6.5 42.5 -19.5 55.5s-30.833 19.5 -53.5 19.5s-41 -6.33301 -55 -19zM385.003 120.998l-163.999 207.998c-28.667 -20 -49.167 -40.167 -61.5 -60.5s-18.5 -45.166 -18.5 -74.499 c0 -39.333 11.5 -69.166 34.5 -89.499s53.5 -30.5 91.5 -30.5c47.333 0 86.666 15.667 117.999 47z"/>
    <glyph glyph-name="quotesingle" unicode="'" d="M239 710h141l-30 -300h-81z"/>
    <glyph glyph-name="parenleft" unicode="(" d="M262 60.5c-44 83 -66 170.502 -66 262.502c0 93.333 22 181 66 263s105.667 147.333 185 196l70 -55c-70 -55.333 -121.667 -115.333 -155 -180s-50 -139.334 -50 -224.001c0 -84 16.833 -158.833 50.5 -224.5s85.5 -125.834 155.5 -180.501l-73 -58 c-78 50.667 -139 117.5 -183 200.5z"/>
    <glyph glyph-name="parenright" unicode=")" d="M102 -82c70 54.667 121.833 114.832 155.5 180.499s50.5 140.5 50.5 224.5c0 84.667 -16.667 159.334 -50 224.001s-85 124.667 -155 180l70 55c79.333 -48.667 141 -114 185 -196s66 -169.667 66 -263c0 -92 -22 -179.5 -66 -262.5s-105 -149.833 -183 -200.5z"/>
    <glyph glyph-name="asterisk" unicode="*" d="M230 306l-96 66l118 121l-153 26l40 106l136 -75l-31 160h123l-30 -160l144 79l40 -110l-162 -29l121 -118l-93 -63l-79 150z"/>
    <glyph glyph-name="plus" unicode="+" d="M546 286h-187v-197h-99v197h-186v87h186v185h99v-185h187v-87z"/>
    <glyph glyph-name="comma" unicode="," d="M236 -107c30 12.667 50 26.3311 60 40.998s15 36.667 15 66h-79v150h155v-148c0 -41.333 -9.5 -75.166 -28.5 -101.499s-49.833 -47.166 -92.5 -62.499z"/>
    <glyph glyph-name="hyphen" unicode="-" d="M463 331v-106h-307v106h307z"/>
    <glyph glyph-name="period" unicode="." d="M387 0h-155v150h155v-150z"/>
    <glyph glyph-name="slash" unicode="/" d="M116 -117l282 877h105l-282 -877h-105z"/>
    <glyph glyph-name="zero" unicode="0" d="M573 347c0 -241.333 -87.667 -362 -263 -362s-263 120.667 -263 362c0 242 87.667 363 263 363s263 -121 263 -363zM204.5 554.5c-23.667 -40.333 -35.832 -109.5 -36.499 -207.5c0 -46.667 3 -86.667 9 -120l241 324c-23.333 42.667 -59.333 64 -108 64 c-46.667 0 -81.834 -20.167 -105.501 -60.5zM415.502 140.5c23.667 40.333 35.832 109.168 36.499 206.501c0 50.667 -3.66699 95 -11 133l-244 -325c12 -26.667 27.333 -45.834 46 -57.501s41 -17.5 67 -17.5c46.667 0 81.834 20.167 105.501 60.5z"/>
    <glyph glyph-name="one" unicode="1" d="M558 104l-0.000976562 -104h-474v104h186v414c-30.667 -30.667 -79.667 -46 -147 -46h-33v110h27c48 0 85.833 9.83301 113.5 29.5s47.834 47.5 60.501 83.5h98v-591h169z"/>
    <glyph glyph-name="two" unicode="2" d="M66 94c83.333 61.333 162 128.003 236 200.003c38.667 37.333 65.834 71.166 81.501 101.499s23.5 63.833 23.5 100.5c0 36 -9.33301 63.833 -28 83.5s-44.667 29.5 -78 29.5c-34 0 -60.5 -9.83301 -79.5 -29.5s-28.5 -46.5 -28.5 -80.5c0 -16.667 2 -35.667 6 -57 l-122 12c-3.33301 15.333 -5 31.666 -5 48.999c0 62.667 21 112.834 63 150.501s98.667 56.5 170 56.5c72 0 127.833 -18.333 167.5 -55s59.5 -88.667 59.5 -156c0 -44.667 -10.833 -87.334 -32.5 -128.001s-55.834 -83.334 -102.501 -128.001 c-54.667 -51.333 -112.667 -98 -174 -140h319v-103h-476v94z"/>
    <glyph glyph-name="three" unicode="3" d="M177.5 12.5c-37.667 18.333 -66.665 43.9971 -86.998 76.9971s-31.166 71.167 -32.499 114.5l123 13c1.33301 -41.333 13.333 -74 36 -98s54.667 -36 96 -36c38.667 0 68.667 10.333 90 31s32 49.667 32 87c0 34 -11.333 61 -34 81s-55.334 30 -98.001 30h-39v90h37 c37.333 0 65.666 10 84.999 30s29 46.333 29 79s-9 57.834 -27 75.501s-44.333 26.5 -79 26.5c-38.667 0 -68.667 -12.167 -90 -36.5s-32 -58.833 -32 -103.5l-119 19c0 67.333 22.167 120.5 66.5 159.5s104.5 58.5 180.5 58.5c70 0 124.833 -17 164.5 -51 s59.5 -80 59.5 -138c0 -36 -11.333 -68.333 -34 -97s-52.334 -47.667 -89.001 -57c45.333 -8.66699 80.666 -28 105.999 -58s38 -68.667 38 -116c0 -41.333 -10.167 -77.666 -30.5 -108.999s-49.166 -55.666 -86.499 -72.999s-81 -26 -131 -26 c-52 0 -96.833 9.16699 -134.5 27.5z"/>
    <glyph glyph-name="four" unicode="4" d="M355 166h-316v83l296 446h134v-437h107v-92h-107v-166h-114v166zM355 258l-0.000976562 228c0 34 0.666992 66 2 96h-1c-5.33301 -15.333 -11.166 -28.833 -17.499 -40.5s-15.833 -27.167 -28.5 -46.5l-119 -179l-18 -26.5c-8.66699 -13 -17 -23.5 -25 -31.5h207z"/>
    <glyph glyph-name="five" unicode="5" d="M141.5 36c-43 34 -68.499 80 -76.499 138l120 17c6 -32.667 19.667 -58.5 41 -77.5s49 -28.5 83 -28.5c39.333 0 70.166 12.667 92.499 38s33.5 60.333 33.5 105c0 47.333 -10.667 84.666 -32 111.999s-52 41 -92 41c-32 0 -58.5 -8.83301 -79.5 -26.5 s-35.5 -42.5 -43.5 -74.5l-108 11l42 404h397v-101h-312l-23 -201c15.333 26.667 36.5 47 63.5 61s58.5 21 94.5 21c66 0 118 -21.5 156 -64.5s57 -102.167 57 -177.5c0 -49.333 -10.333 -92.666 -31 -129.999s-50 -66.333 -88 -87s-82 -31 -132 -31 c-65.333 0 -119.5 17 -162.5 51z"/>
    <glyph glyph-name="six" unicode="6" d="M500 402c38.667 -42.667 58 -99.6689 58 -171.002c0 -48.667 -10 -91.667 -30 -129s-48 -66.166 -84 -86.499s-77.667 -30.5 -125 -30.5c-85.333 0 -150.5 29.833 -195.5 89.5s-67.5 146.167 -67.5 259.5c0 119.333 23.5 211.833 70.5 277.5s113.5 98.5 199.5 98.5 c62 0 112.167 -15.167 150.5 -45.5s62.5 -74.166 72.5 -131.499l-119 -22c-12.667 68 -48.334 102 -107.001 102c-46.667 0 -82.667 -20.333 -108 -61s-38.666 -100 -39.999 -178c16 29.333 38.667 52 68 68s63 24 101 24c65.333 0 117.333 -21.333 156 -64zM405.5 121.498 c21.667 26.333 32.5 61.833 32.5 106.5c0 44 -10.833 79 -32.5 105s-51.167 39 -88.5 39c-33.333 0 -62.333 -10.5 -87 -31.5s-42.334 -50.833 -53.001 -89.5c5.33301 -52.667 20.333 -94 45 -124s56.667 -45 96 -45c36.667 0 65.834 13.167 87.501 39.5z"/>
    <glyph glyph-name="seven" unicode="7" d="M180 11c0 99.333 21.167 197.833 63.5 295.5s102.5 191.5 180.5 281.5h-351v107h480v-95c-78.667 -84.667 -138 -176 -178 -274s-60 -199.667 -60 -305v-21h-135v11z"/>
    <glyph glyph-name="eight" unicode="8" d="M531.5 308c23 -30 34.5 -69.666 34.5 -118.999c0 -40.667 -10.5 -76.334 -31.5 -107.001s-50.833 -54.5 -89.5 -71.5s-83.334 -25.5 -134.001 -25.5c-51.333 0 -96.333 8 -135 24s-68.667 38.833 -90 68.5s-32 64.167 -32 103.5c0 90.667 44.333 149.334 133 176.001 c-36.667 16.667 -64.167 38.334 -82.5 65.001s-27.5 60.667 -27.5 102c0 36.667 9.66699 69 29 97s46.5 49.833 81.5 65.5s75.5 23.5 121.5 23.5c68.667 0 123.834 -15.833 165.501 -47.5s62.5 -74.834 62.5 -129.501c0 -38 -9.33301 -69.833 -28 -95.5 s-46.667 -44.834 -84 -57.501c48 -18 83.5 -42 106.5 -72zM227 596.501c-19.333 -17.667 -29.001 -41.833 -29.001 -72.5c0 -26.667 8.33301 -48.5 25 -65.5s43 -31.167 79 -42.5l36 -10c30 13.333 51.167 28.833 63.5 46.5s18.5 40.167 18.5 67.5c0 32.667 -10 58 -30 76 s-48 27 -84 27c-33.333 0 -59.666 -8.83301 -78.999 -26.5zM408.999 108.502c23.333 20.333 34.999 47.833 34.999 82.5c0 29.333 -9.16699 53.333 -27.5 72s-46.166 34 -83.499 46l-59 18c-34.667 -14.667 -59.667 -32 -75 -52s-23 -45.667 -23 -77 c0 -36 12.5 -65 37.5 -87s58.167 -33 99.5 -33c40.667 0 72.667 10.167 96 30.5z"/>
    <glyph glyph-name="nine" unicode="9" d="M495.5 621.5c44.333 -59 66.501 -146.168 66.501 -261.501c0 -116 -21.333 -207.5 -64 -274.5s-108.334 -100.5 -197.001 -100.5c-65.333 0 -118 15.667 -158 47s-65.333 77 -76 137l119 23c6 -34.667 18.833 -61.5 38.5 -80.5s46.5 -28.5 80.5 -28.5 c46.667 0 81.167 22 103.5 66s33.833 106.333 34.5 187c-16 -27.333 -37.5 -48 -64.5 -62s-58.167 -21 -93.5 -21c-44.667 0 -84 9 -118 27s-60.667 43.833 -80 77.5s-29 73.834 -29 120.501c0 44.667 9.83301 84.5 29.5 119.5s47.667 62.5 84 82.5s78.833 30 127.5 30 c86.667 0 152.167 -29.5 196.5 -88.5zM390.501 378.999c25.667 20.667 42.832 46.667 51.499 78c-4 45.333 -17.167 83 -39.5 113s-56.166 45 -101.499 45c-37.333 0 -67.333 -12.333 -90 -37s-34 -57.334 -34 -98.001c0 -39.333 11.833 -71.166 35.5 -95.499 s54.167 -36.5 91.5 -36.5c32 0 60.833 10.333 86.5 31z"/>
    <glyph glyph-name="colon" unicode=":" d="M387 350h-155v150h155v-150zM387 0h-155v150h155v-150z"/>
    <glyph glyph-name="semicolon" unicode=";" d="M387 350h-155v150h155v-150zM236 -107c30 12.667 50 26.3311 60 40.998s15 36.667 15 66h-79v150h155v-148c0 -41.333 -9.5 -75.166 -28.5 -101.499s-49.833 -47.166 -92.5 -62.499z"/>
    <glyph glyph-name="less" unicode="&lt;" d="M75 281v90l469 202v-98l-356 -148l356 -148v-100z"/>
    <glyph glyph-name="equal" unicode="=" d="M73 471h474v-93h-474v93zM73 280h474v-93h-474v93z"/>
    <glyph glyph-name="greater" unicode="&gt;" d="M75 179l356 148l-356 148v98l469 -202v-90l-469 -202v100z"/>
    <glyph glyph-name="question" unicode="?" d="M75 525c0 40 9.50098 75.165 28.501 105.498s46.333 54 82 71s78.167 25.5 127.5 25.5c71.333 0 127.833 -16.5 169.5 -49.5s62.5 -79.5 62.5 -139.5c0 -32 -8.16699 -60.833 -24.5 -86.5s-38.833 -52.5 -67.5 -80.5l-50 -48c-14.667 -14 -25.5 -29.167 -32.5 -45.5 s-10.5 -35.166 -10.5 -56.499v-17h-116v36c0 20.667 4.66699 40.834 14 60.501s25.666 41.167 48.999 64.5l50 48c20 19.333 35.333 37.833 46 55.5s16 38.5 16 62.5c0 30 -10 53.833 -30 71.5s-46 26.5 -78 26.5c-35.333 0 -63.333 -10 -84 -30s-31 -49.333 -31 -88 c0 -18.667 2 -34.667 6 -48l-124 13c-2 22 -3 38.333 -3 49zM383.001 -0.00195312h-155v150h155v-150z"/>
    <glyph glyph-name="at" unicode="@" d="M179 -61.5c-42 22.333 -74.3311 54.334 -96.998 96.001s-34 90.834 -34 147.501v185c0 58 11.167 109.333 33.5 154s54 79.167 95 103.5s88.5 36.5 142.5 36.5c51.333 0 96.166 -11 134.499 -33s67.833 -53.333 88.5 -94s31 -88.334 31 -143.001v-132 c0 -53.333 -9.33301 -94.166 -28 -122.499s-46 -42.5 -82 -42.5c-22 0 -40.667 5.33301 -56 16s-25.333 25 -30 43c-10.667 -18.667 -25.167 -33.334 -43.5 -44.001s-38.5 -16 -60.5 -16c-32.667 0 -59.334 10 -80.001 30s-31 46 -31 78c0 27.333 8.33301 49.666 25 66.999 s40.667 29.666 72 36.999c36.667 8 59.667 12.667 69 14l42 8v8c0 25.333 -4.5 43.833 -13.5 55.5s-23.167 17.5 -42.5 17.5c-20.667 0 -36.334 -5.5 -47.001 -16.5s-16 -27.167 -16 -48.5h-79c0 40.667 13.167 73.167 39.5 97.5s62.166 36.5 107.499 36.5 c44.667 0 77.5 -12.833 98.5 -38.5s31.5 -65.167 31.5 -118.5v-108c0 -20 2.33301 -34.667 7 -44s11.667 -14 21 -14c11.333 0 19.666 6.5 24.999 19.5s8 33.833 8 62.5v141c0 71.333 -17.167 126.833 -51.5 166.5s-82.166 59.5 -143.499 59.5 c-63.333 0 -113.166 -20.833 -149.499 -62.5s-54.5 -99.5 -54.5 -173.5v-184c0 -43.333 9.16699 -81.666 27.5 -114.999s44.333 -59 78 -77s72.167 -27 115.5 -27c42.667 0 85.334 10.667 128.001 32l23 -52c-44.667 -26 -96.667 -39 -156 -39 c-56.667 0 -106 11.167 -148 33.5zM350.002 182.001c13.333 15.333 20 35 20 59v27l-68 -14c-37.333 -8 -56 -24.333 -56 -49c0 -14 5 -25.167 15 -33.5s22.667 -12.5 38 -12.5c20.667 0 37.667 7.66699 51 23z"/>
    <glyph glyph-name="A" unicode="A" d="M422 181h-225l-51 -181h-121l214 710h142l214 -710h-121zM225 280h169c-38 128.667 -65.333 238 -82 328h-4c-15.333 -84 -43 -193.333 -83 -328z"/>
    <glyph glyph-name="B" unicode="B" d="M504.5 654c35.667 -37.333 53.5 -81.668 53.5 -133.001c0 -35.333 -10.333 -66.666 -31 -93.999s-51.667 -46.333 -93 -57c44.667 -7.33301 79.5 -26 104.5 -56s37.5 -68.667 37.5 -116c0 -34 -7.5 -65.833 -22.5 -95.5s-40 -54.167 -75 -73.5s-80.5 -29 -136.5 -29h-261 v710h244c84 0 143.833 -18.667 179.5 -56zM204 406.998h108c79.333 0 119 34.333 119 103c0 70.667 -39.667 106 -119 106h-108v-209zM204 93.998h121.999c43.333 0 74.833 10.833 94.5 32.5s29.5 49.167 29.5 82.5c0 32.667 -9.66699 59.167 -29 79.5 s-48.666 30.5 -87.999 30.5h-129v-225z"/>
    <glyph glyph-name="C" unicode="C" d="M114 71c-44 58.667 -65.999 141 -65.999 247v74c0 105.333 22.667 187.5 68 246.5s111.666 88.5 198.999 88.5c77.333 0 138 -21.333 182 -64s69.333 -107 76 -193l-123 -19c-3.33301 56 -16.5 99 -39.5 129s-55.167 45 -96.5 45c-48 0 -83.333 -19 -106 -57 s-34 -96 -34 -174v-71c0 -78 11.667 -137.167 35 -177.5s58.333 -60.5 105 -60.5c42 0 74.333 14.833 97 44.5s35.667 73.167 39 130.5l122 -23c-5.33301 -77.333 -30.5 -139 -75.5 -185s-107.5 -69 -187.5 -69c-86 0 -151 29.333 -195 88z"/>
    <glyph glyph-name="D" unicode="D" d="M69 710h226.998c61.333 0 114 -14.5 158 -43.5s77.5 -70 100.5 -123s34.5 -114.167 34.5 -183.5c0 -70 -12.167 -132.333 -36.5 -187s-58.666 -97.167 -102.999 -127.5s-96.166 -45.5 -155.499 -45.5h-225v710zM285.998 98c56 0 99.5 24.166 130.5 72.499 s46.5 111.5 46.5 189.5c0 76.667 -15 137.834 -45 183.501s-73.333 68.5 -130 68.5h-96v-514h94z"/>
    <glyph glyph-name="E" unicode="E" d="M526 609h-305v-196h288v-99h-288v-213h312v-101h-435v710h428v-101z"/>
    <glyph glyph-name="F" unicode="F" d="M552 608h-321v-197h297v-103h-297v-308h-123v710h444v-102z"/>
    <glyph glyph-name="G" unicode="G" d="M158 23c-36 26.667 -63.667 64.666 -83 113.999s-29 107.333 -29 174v91c0 102 23 181.667 69 239s111.667 86 197 86c56 0 101.667 -11.5 137 -34.5s61 -51.167 77 -84.5s25.333 -67.666 28 -102.999l-122 -20c-2.66699 38.667 -13.667 72.167 -33 100.5 s-49 42.5 -89 42.5c-45.333 0 -79.5 -17.833 -102.5 -53.5s-34.5 -96.834 -34.5 -183.501v-65c0 -80 11.167 -140.5 33.5 -181.5s57.5 -61.5 105.5 -61.5c48.667 0 83.667 17.833 105 53.5s32 74.834 32 117.501v31h-154v93h265v-378h-85l-11 104 c-31.333 -80.667 -91 -121 -179 -121c-48.667 0 -91 13.333 -127 40z"/>
    <glyph glyph-name="H" unicode="H" d="M548 0h-123v313h-230v-313h-123v710h123v-299h230v299h123v-710z"/>
    <glyph glyph-name="I" unicode="I" d="M371 614v-518h166v-96h-454v96h165v518h-165v96h454v-96h-166z"/>
    <glyph glyph-name="J" unicode="J" d="M464 44.5c-42.667 -41 -100.669 -61.499 -174.002 -61.499c-76.667 0 -135 23.167 -175 69.5s-61.333 105.166 -64 176.499l123 36c0.666992 -57.333 11.334 -101.5 32.001 -132.5s50.334 -46.5 89.001 -46.5c73.333 0 110 48 110 144v480h123v-495 c0 -72.667 -21.333 -129.5 -64 -170.5z"/>
    <glyph glyph-name="K" unicode="K" d="M276 344l-79 -110v-234h-123v710h123v-334l229 334h142l-201 -281l222 -429h-142z"/>
    <glyph glyph-name="L" unicode="L" d="M228 710v-606h322v-104h-445v710h123z"/>
    <glyph glyph-name="M" unicode="M" d="M358 173h-96l-51 252c-9.33301 44 -18.333 97.333 -27 160h-7c3.33301 -64.667 5 -131.667 5 -201v-384h-110v710h155l67 -321c6.66699 -41.333 11 -71.333 13 -90h6c2 18.667 6.33301 48.667 13 90l67 321h155v-710h-110v384c0 69.333 1.66699 136.333 5 201h-7 c-2.66699 -21.333 -6.5 -47.333 -11.5 -78s-10.167 -58 -15.5 -82z"/>
    <glyph glyph-name="N" unicode="N" d="M435 175h4c-4 28 -6 60 -6 96v439h115v-710h-132l-198 456c-8.66699 20.667 -16 40.667 -22 60s-9.33301 30.333 -10 33h-5c4 -22.667 6 -49.667 6 -81v-468h-115v710h144l185 -435c16 -38.667 27.333 -72 34 -100z"/>
    <glyph glyph-name="O" unicode="O" d="M112 71c-44.667 58.667 -67 141.334 -67 248.001v72c0 106.667 22.333 189.334 67 248.001s110.667 88 198 88s153.333 -29.333 198 -88s67 -141.334 67 -248.001v-72c0 -106.667 -22.333 -189.334 -67 -248.001s-110.667 -88 -198 -88s-153.333 29.333 -198 88z M415.5 140c22.333 37.333 33.5 96 33.5 176v78c0 80 -11.167 138.667 -33.5 176s-57.5 56 -105.5 56s-83.167 -18.667 -105.5 -56s-33.5 -96 -33.5 -176v-78c0 -80 11.167 -138.667 33.5 -176s57.5 -56 105.5 -56s83.167 18.667 105.5 56z"/>
    <glyph glyph-name="P" unicode="P" d="M222 0l-123 0.000976562v710h245c86.667 0 148.667 -21.167 186 -63.5s56 -92.5 56 -150.5c0 -36.667 -8 -71.334 -24 -104.001s-42.833 -59.667 -80.5 -81s-87.167 -32 -148.5 -32h-111v-279zM320 371.001c50 0 85.333 11.833 106 35.5s31 52.5 31 86.5 s-9.66699 62.833 -29 86.5s-53 35.5 -101 35.5h-105v-244h98z"/>
    <glyph glyph-name="Q" unicode="Q" d="M537.5 119.5c-25 -53.667 -62.501 -91.502 -112.501 -113.502c14 -17.333 29.167 -28.666 45.5 -33.999s33.5 -8 51.5 -8c12.667 0 28.334 2.33301 47.001 7v-106c-22 -4 -42.667 -6 -62 -6c-40 0 -74.667 11.333 -104 34s-51.333 53 -66 91c-6 -0.666992 -15 -1 -27 -1 c-87.333 0 -153.333 29.333 -198 88s-67 141.334 -67 248.001v72c0 106.667 22.333 189.334 67 248.001s110.667 88 198 88s153.333 -29.333 198 -88s67 -141.334 67 -248.001v-72c0 -79.333 -12.5 -145.833 -37.5 -199.5zM448.999 393.998c0 80 -11.167 138.667 -33.5 176 s-57.5 56 -105.5 56s-83.167 -18.667 -105.5 -56s-33.5 -96 -33.5 -176v-78c0 -80 11.167 -138.667 33.5 -176s57.5 -56 105.5 -56s83.167 18.667 105.5 56s33.5 96 33.5 176v78z"/>
    <glyph glyph-name="R" unicode="R" d="M308 291h-109.001v-291h-123v710h242c78 0 138.333 -18.5 181 -55.5s64 -89.167 64 -156.5c0 -44.667 -11.667 -83.167 -35 -115.5s-56.666 -55.833 -99.999 -70.5l158 -312h-135zM198.999 379h108c41.333 0 72.833 10.167 94.5 30.5s32.5 49.5 32.5 87.5 s-10.833 67.167 -32.5 87.5s-53.167 30.5 -94.5 30.5h-108v-236z"/>
    <glyph glyph-name="S" unicode="S" d="M135 38.5c-46 37 -77.001 87.1699 -93.001 150.503l110 38c24.667 -94.667 80 -142 166 -142c34 0 63.333 7.5 88 22.5s37 39.5 37 73.5c0 35.333 -8.83301 60.666 -26.5 75.999s-43.167 27.666 -76.5 36.999l-95 26c-55.333 14.667 -98.833 38.334 -130.5 71.001 s-47.5 75 -47.5 127c0 39.333 10.167 74.833 30.5 106.5s48.666 56.667 84.999 75s77.833 27.5 124.5 27.5c67.333 0 123.5 -14.5 168.5 -43.5s74.167 -73.167 87.5 -132.5l-104 -54c-10 46 -28.667 79.167 -56 99.5s-59.666 30.5 -96.999 30.5 c-40.667 0 -70 -9.16699 -88 -27.5s-27 -40.833 -27 -67.5c0 -25.333 8.66699 -46.833 26 -64.5s41.333 -30.834 72 -39.501l94 -26c58 -16 103.333 -39 136 -69s49 -75.333 49 -136c0 -38 -9.66699 -73.333 -29 -106s-48.166 -58.834 -86.499 -78.501 s-84.5 -29.5 -138.5 -29.5c-73.333 0 -133 18.5 -179 55.5z"/>
    <glyph glyph-name="T" unicode="T" d="M579 710v-104h-208v-606h-124v606h-208v104h540z"/>
    <glyph glyph-name="U" unicode="U" d="M185 710l0.000976562 -478c0 -45.333 10.833 -81 32.5 -107s53.167 -39 94.5 -39s72 12.833 92 38.5s30 61.5 30 107.5v478h124v-479c0 -76 -20.833 -136.333 -62.5 -181s-102.5 -67 -182.5 -67c-80.667 0 -142.834 22.5 -186.501 67.5s-65.5 105.167 -65.5 180.5v479 h124z"/>
    <glyph glyph-name="V" unicode="V" d="M306 126l4 -22h4l14 79l128 527h130l-197 -710h-154l-201 710h129l132 -527c3.33301 -14 7 -33 11 -57z"/>
    <glyph glyph-name="W" unicode="W" d="M40 710h113.001l20 -440c2 -44.667 3 -91.667 3 -141h10c1.33301 30 7.33301 71.667 18 125l56 279h100l56 -279c10.667 -53.333 16.667 -95 18 -125h10c0 49.333 1 96.333 3 141l20 440h113l-52 -710h-142l-53 278c-9.33301 48 -15.333 95.667 -18 143h-10 c-2.66699 -45.333 -8.33398 -93 -17.001 -143l-54 -278h-141z"/>
    <glyph glyph-name="X" unicode="X" d="M236 375l-187.997 335.001h135l100 -203c8 -16 13.667 -28.667 17 -38s5.66602 -19.666 6.99902 -30.999h4c1.33301 11.333 3.66602 21.666 6.99902 30.999s8.66602 21.333 15.999 36l99 205h134l-184 -340l212 -370h-140l-123 242c-8 15.333 -13.5 27.333 -16.5 36 s-5.16699 18.334 -6.5 29.001h-4c-1.33301 -10.667 -3.5 -20.334 -6.5 -29.001s-8.83301 -21.334 -17.5 -38.001l-121 -240h-135z"/>
    <glyph glyph-name="Y" unicode="Y" d="M372 0h-123v277l-221 433h134l148 -330l147 330h135l-220 -433v-277z"/>
    <glyph glyph-name="Z" unicode="Z" d="M406 608h-330v102h467v-102l-341 -506h355v-102h-494v103z"/>
    <glyph glyph-name="bracketleft" unicode="[" d="M190 757h314v-89h-205v-692h205v-90h-314v871z"/>
    <glyph glyph-name="backslash" unicode="\" d="M116 760h105l282 -877h-105z"/>
    <glyph glyph-name="bracketright" unicode="]" d="M116 -114v90h205v692h-205v89h314v-871h-314z"/>
    <glyph glyph-name="asciicircum" unicode="^" d="M354 710l151 -262h-100l-95 164l-97 -164h-99l151 262h89z"/>
    <glyph glyph-name="underscore" unicode="_" d="M620 -100v-92h-620v92h620z"/>
    <glyph glyph-name="grave" unicode="`" d="M321 572l-118 151h132l82 -151h-96z"/>
    <glyph glyph-name="a" unicode="a" d="M529 0h-117.998c-3.33301 19.333 -6.33301 49 -9 89c-29.333 -67.333 -84.666 -101 -165.999 -101c-48.667 0 -88.334 13.5 -119.001 40.5s-46 62.167 -46 105.5c0 50.667 20.667 89 62 115c31.333 19.333 85.666 34 162.999 44l98 14v15c0 36 -7 62.5 -21 79.5 s-36.333 25.5 -67 25.5c-29.333 0 -52.333 -7.5 -69 -22.5s-26 -36.5 -28 -64.5h-123c4.66699 54.667 26.667 97 66 127s92.666 45 159.999 45c69.333 0 120.333 -16.667 153 -50s49 -85.333 49 -156v-151c0 -69.333 5 -121 15 -155zM303.002 224 c-38.667 -6 -66.499 -15.166 -83.499 -27.499s-25.5 -29.5 -25.5 -51.5c0 -22.667 7.16699 -40.334 21.5 -53.001s34.166 -19 59.499 -19c36.667 0 66.167 12 88.5 36s33.5 56 33.5 96v33z"/>
    <glyph glyph-name="b" unicode="b" d="M215 421c12.667 27.333 32.333 49.333 59 66s56.667 25 90 25c63.333 0 112.833 -23.833 148.5 -71.5s53.5 -110.834 53.5 -189.501c0 -80 -18 -143.833 -54 -191.5s-86.333 -71.5 -151 -71.5c-34 0 -64.667 8.33301 -92 25s-47.333 39.334 -60 68.001l-13 -81h-98v725 h117v-304zM242.999 122c20.667 -28 48.666 -42 83.999 -42c36 0 64.5 15.5 85.5 46.5s31.5 72.5 31.5 124.5c0 51.333 -10.333 92.333 -31 123s-49.667 46 -87 46c-35.333 0 -63.166 -14 -83.499 -42s-30.5 -65.333 -30.5 -112v-33c0 -46 10.333 -83 31 -111z"/>
    <glyph glyph-name="c" unicode="c" d="M179.5 22.5c-36.333 23 -63.999 54.501 -82.999 94.501s-28.5 85 -28.5 135c0 78 21.167 140.833 63.5 188.5s103.166 71.5 182.499 71.5c60 0 109.5 -15.667 148.5 -47s62.167 -75 69.5 -131l-117 -18c-4.66699 33.333 -16 58.833 -34 76.5s-42.333 26.5 -73 26.5 c-38.667 0 -68.167 -14.667 -88.5 -44s-30.5 -69.333 -30.5 -120c0 -52.667 10.333 -94.334 31 -125.001s51 -46 91 -46c30.667 0 54.834 9.16699 72.501 27.5s29.167 44.833 34.5 79.5l113 -22c-8.66699 -52.667 -31.834 -96 -69.501 -130s-87.834 -51 -150.501 -51 c-51.333 0 -95.166 11.5 -131.499 34.5z"/>
    <glyph glyph-name="d" unicode="d" d="M519 725l0.00292969 -725.002h-111v91c-30 -68.667 -82 -103 -156 -103c-40 0 -75.333 10.833 -106 32.5s-54.334 52.167 -71.001 91.5s-25 85.333 -25 138c0 52 8.66699 97.833 26 137.5s42.166 70.334 74.499 92.001s70.166 32.5 113.499 32.5c32 0 60 -7.66699 84 -23 s41.667 -35.666 53 -60.999v297h118zM373.003 377.498c-20.667 28.333 -48.333 42.501 -83 42.501c-37.333 0 -66.166 -14.833 -86.499 -44.5s-30.5 -71.167 -30.5 -124.5c0 -52.667 10.167 -94.334 30.5 -125.001s48.166 -46 83.499 -46c36 0 64.5 14 85.5 42 s31.5 65.667 31.5 113v30c0 46.667 -10.333 84.167 -31 112.5z"/>
    <glyph glyph-name="e" unicode="e" d="M530 223l-341 -0.00390625c0 -41.333 11.667 -75.166 35 -101.499s54.333 -39.5 93 -39.5c50.667 0 90 26.333 118 79l94 -46c-21.333 -41.333 -50 -72.833 -86 -94.5s-78 -32.5 -126 -32.5c-80 0 -141 23.833 -183 71.5s-63 112.834 -63 195.501 c0 51.333 9.66699 96.5 29 135.5s46.833 69 82.5 90s77.5 31.5 125.5 31.5c74.667 0 130.667 -22.667 168 -68s56 -105.666 56 -180.999c0 -9.33301 -0.666992 -22.666 -2 -39.999zM386.5 393.496c-18.333 24.333 -45.5 36.5 -81.5 36.5 c-36.667 0 -65.334 -12.833 -86.001 -38.5s-31 -56.5 -31 -92.5h225c0.666992 38.667 -8.16602 70.167 -26.499 94.5z"/>
    <glyph glyph-name="f" unicode="f" d="M527 412l-183 -0.000976562v-412h-118v412h-151v88h151v47c0 60.667 17.667 106 53 136s87.333 45 156 45c32 0 62.667 -3.33301 92 -10v-93c-34 4.66699 -61.667 7 -83 7c-36.667 0 -62.5 -6.66699 -77.5 -20s-22.5 -36.666 -22.5 -69.999v-42h183v-88z"/>
    <glyph glyph-name="g" unicode="g" d="M458 462c34.667 -30.667 52.0039 -70.332 52.0039 -118.999c0 -52 -19.167 -93.167 -57.5 -123.5s-87.833 -45.5 -148.5 -45.5c-34.667 0 -66 5 -94 15c-15.333 -8.66699 -23 -21.334 -23 -38.001c0 -30 26 -45 78 -45l127 -1 c56.667 -0.666992 99.667 -13.334 129 -38.001s44 -58.667 44 -102c0 -56 -23.5 -98.667 -70.5 -128s-112.5 -44 -196.5 -44c-74.667 0 -132.334 11.167 -173.001 33.5s-61 52.5 -61 90.5c0 25.333 8.16699 47 24.5 65s39.166 31 68.499 39 c-22.667 8.66699 -39.834 20.834 -51.501 36.501s-17.5 34.5 -17.5 56.5c0 23.333 6.66699 43.666 20 60.999s31.666 30.333 54.999 39c-40 31.333 -60 73.333 -60 126s19.167 94.5 57.5 125.5s87.166 46.5 146.499 46.5c38.667 0 73.334 -6.66699 104.001 -20 c9.33301 28.667 25.5 50.334 48.5 65.001s50.5 22 82.5 22c9.33301 0 18 -1 26 -3v-89l-18 3c-8 1.33301 -15.667 2 -23 2c-30 0 -53 -10 -69 -30zM371.504 275.002c17.667 17.333 26.5 40.334 26.5 69.001c0 28 -8.66699 50.5 -26 67.5s-39.333 25.5 -66 25.5 s-48.667 -8.66699 -66 -26s-26 -40.333 -26 -69s8.5 -51.334 25.5 -68.001s38.5 -25 64.5 -25c27.333 0 49.833 8.66699 67.5 26zM241.004 7.00293l-26 1.00098c-14 -6 -24.833 -14.5 -32.5 -25.5s-11.5 -23.5 -11.5 -37.5c0 -48.667 46 -73 138 -73 c95.333 0 143 25.333 143 76c0 19.333 -7.16699 33.666 -21.5 42.999s-36.5 14.333 -66.5 15z"/>
    <glyph glyph-name="h" unicode="h" d="M267 483c28 19.333 59.667 28.999 95 28.999c48.667 0 88 -14 118 -42c16 -15.333 28.167 -36 36.5 -62s12.5 -59 12.5 -99v-309h-118v296c0 79.333 -30.333 119 -91 119c-39.333 0 -67.833 -14.667 -85.5 -44s-26.5 -62.666 -26.5 -99.999v-271h-117v725h117v-316 c11.333 30 31 54.667 59 74z"/>
    <glyph glyph-name="i" unicode="i" d="M113 90h156v320h-141v90h258v-410h164v-90h-437v90zM391 584h-146v138h146v-138z"/>
    <glyph glyph-name="j" unicode="j" d="M101 -87c26 -6 46.334 -9.83301 61.001 -11.5s30 -2.5 46 -2.5c41.333 0 71.666 9.5 90.999 28.5s29 50.5 29 94.5v388h-196v90h313v-486c0 -142.667 -72 -214 -216 -214c-50 0 -92.667 6 -128 18v95zM453.001 584h-146v138h146v-138z"/>
    <glyph glyph-name="k" unicode="k" d="M292 232l-75 -80v-152h-117v725h117v-453l194 228h142l-176 -191l186 -309h-140z"/>
    <glyph glyph-name="l" unicode="l" d="M113 90h156v545h-144v90h261v-635h164v-90h-437v90z"/>
    <glyph glyph-name="m" unicode="m" d="M180.5 488.5c18.333 15.667 39.835 23.501 64.502 23.501c51.333 0 85.666 -29.667 102.999 -89c10.667 28 26.167 49.833 46.5 65.5s43.166 23.5 68.499 23.5c33.333 0 61 -12.333 83 -37s33 -62.334 33 -113.001v-362h-106v351c0 25.333 -4.5 43.333 -13.5 54 s-20.5 16 -34.5 16c-42.667 0 -64 -29 -64 -87v-334h-104v351c0 46.667 -16 70 -48 70c-21.333 0 -37.166 -7.83301 -47.499 -23.5s-15.5 -36.834 -15.5 -63.501v-334h-105v500h98v-75c9.33301 26.667 23.166 47.834 41.499 63.501z"/>
    <glyph glyph-name="n" unicode="n" d="M265.5 482c27.667 20 60.833 30.001 99.5 30.001c48.667 0 87 -13.667 115 -41c16.667 -16 29 -36.833 37 -62.5s12 -58.834 12 -99.501v-309h-118v296c0 79.333 -29.333 119 -88 119c-40.667 0 -70 -14.667 -88 -44s-27 -63 -27 -101v-270h-117v500h112v-97 c14 32.667 34.833 59 62.5 79z"/>
    <glyph glyph-name="o" unicode="o" d="M184 20c-36.667 21.333 -65.334 51.668 -86.001 91.001s-31 85.666 -31 138.999s10.333 99.833 31 139.5s49.334 70 86.001 91s78.667 31.5 126 31.5s89.333 -10.5 126 -31.5s65.334 -51.333 86.001 -91s31 -86.167 31 -139.5s-10.333 -99.833 -31 -139.5 s-49.334 -70 -86.001 -91s-78.667 -31.5 -126 -31.5s-89.333 10.667 -126 32zM399 124.502c21.333 29.667 32 71.5 32 125.5s-10.667 95.833 -32 125.5s-51 44.5 -89 44.5s-67.667 -14.833 -89 -44.5s-32 -71.5 -32 -125.5s10.667 -95.833 32 -125.5s51 -44.5 89 -44.5 s67.667 14.833 89 44.5z"/>
    <glyph glyph-name="p" unicode="p" d="M209 413c13.333 28 34.001 51.501 62.001 70.501s58.667 28.5 92 28.5c64 0 113.833 -23.833 149.5 -71.5s53.5 -110.834 53.5 -189.501c0 -80 -18.333 -143.833 -55 -191.5s-87.667 -71.5 -153 -71.5c-30.667 0 -59.334 8 -86.001 24s-45.667 36 -57 60v-267h-117v695 h111v-87zM243.501 123.001c21 -28.667 49.166 -43.001 84.499 -43.001c36 0 64.333 15.333 85 46s31 72.334 31 125.001s-10 94 -30 124s-48.333 45 -85 45c-35.333 0 -63.666 -13.833 -84.999 -41.5s-32 -66.5 -32 -116.5v-25c0 -47.333 10.5 -85.333 31.5 -114z"/>
    <glyph glyph-name="q" unicode="q" d="M522 500l-0.000976562 -695.001h-117v280c-12.667 -28.667 -32.5 -52 -59.5 -70s-57.833 -27 -92.5 -27c-40 0 -75 11 -105 33s-53.167 52.833 -69.5 92.5s-24.5 85.167 -24.5 136.5c0 50.667 8.5 95.834 25.5 135.501s41.333 70.667 73 93s68.834 33.5 111.501 33.5 c31.333 0 60 -8 86 -24s44.667 -36.333 56 -61l16 73h100zM374.499 376.999c-21.667 28.667 -49.8301 43 -84.4971 43c-36.667 0 -64.834 -15.167 -84.501 -45.5s-29.5 -71.5 -29.5 -123.5s10.167 -93.5 30.5 -124.5s47.166 -46.5 80.499 -46.5 c37.333 0 66.666 13.667 87.999 41s32 64.333 32 111v34c0 45.333 -10.833 82.333 -32.5 111z"/>
    <glyph glyph-name="r" unicode="r" d="M320 470c38.667 26.667 83.3311 40 133.998 40c36.667 0 66.667 -3.66699 90 -11v-106c-10.667 3.33301 -25 6.16602 -43 8.49902s-36.333 3.5 -55 3.5c-38.667 0 -73.667 -8.16699 -105 -24.5s-56.166 -41.333 -74.499 -75s-27.5 -75.167 -27.5 -124.5v-181h-117v500 h115v-137c16.667 44.667 44.334 80.334 83.001 107.001z"/>
    <glyph glyph-name="s" unicode="s" d="M169.5 25.5c-39.667 25 -66.8301 60.5 -81.4971 106.5l88 42c11.333 -32.667 29.5 -57.334 54.5 -74.001s55.833 -25 92.5 -25c30 0 53 5.5 69 16.5s24 26.5 24 46.5c0 19.333 -5.83301 34 -17.5 44s-30.834 16.667 -57.501 20l-79 10 c-48.667 6 -85.834 21.833 -111.501 47.5s-38.5 58.5 -38.5 98.5c0 48 18.333 85.667 55 113s86.667 41 150 41c53.333 0 98.666 -11.333 135.999 -34s62.333 -53.667 75 -93l-85 -45c-10.667 26.667 -27.167 47.834 -49.5 63.501s-49.166 23.5 -80.499 23.5 c-29.333 0 -51.833 -5.16699 -67.5 -15.5s-23.5 -25.5 -23.5 -45.5c0 -18 6.16699 -32 18.5 -42s32.166 -16.667 59.499 -20l87 -12c93.333 -12.667 140 -60.667 140 -144c0 -50 -18.667 -89.167 -56 -117.5s-88.666 -42.5 -153.999 -42.5 c-58.667 0 -107.834 12.5 -147.501 37.5z"/>
    <glyph glyph-name="t" unicode="t" d="M78 500l137 -0.000976562v127l118 47v-174h185v-88h-185v-225c0 -30 8.33301 -52.667 25 -68s40.667 -23 72 -23c28.667 0 58 2.33301 88 7v-99c-20.667 -4 -38.5 -7 -53.5 -9s-32.833 -3 -53.5 -3c-64.667 0 -113.5 15.333 -146.5 46s-49.5 74.334 -49.5 131.001v243 h-137v88z"/>
    <glyph glyph-name="u" unicode="u" d="M350 19c-28 -20.667 -59 -31.001 -93 -31.001c-52 0 -93 14 -123 42c-16 15.333 -27.667 35.333 -35 60s-11 56.334 -11 95.001v315h119v-303c0 -76.667 29.333 -115 88 -115c38 0 65.5 14.667 82.5 44s25.5 63 25.5 101v273h118v-500h-111v92 c-12 -28 -32 -52.333 -60 -73z"/>
    <glyph glyph-name="v" unicode="v" d="M51 500l127 0.000976562l111 -324c10 -28.667 17 -52 21 -70h4c4.66699 25.333 10.667 48.666 18 69.999l115 324h121l-191 -500h-131z"/>
    <glyph glyph-name="w" unicode="w" d="M133 500l40.002 -326l9 -73h6c3.33301 26.667 7.66602 54 12.999 82l55 317h107l55 -317c5.33301 -28 9.66602 -55.333 12.999 -82h6l9 73l40 326h111l-91 -500h-130l-55 309c-4 20.667 -7 47 -9 79h-5c-1.33301 -28 -4 -54.333 -8 -79l-56 -309h-130l-91 500h111z"/>
    <glyph glyph-name="x" unicode="x" d="M191 0h-131l179 259l-167 241h136l104 -168l98 168h135l-165 -243l180 -257h-138l-116 181z"/>
    <glyph glyph-name="y" unicode="y" d="M320 116l118 384.001h124l-191 -528c-22.667 -64 -51.667 -108.833 -87 -134.5s-79.333 -38.5 -132 -38.5c-22.667 0 -41 1.66699 -55 5v93c16 -2 31.333 -3 46 -3c27.333 0 49.333 6.16699 66 18.5s29.667 33.166 39 62.499l10 30l-192 495h133z"/>
    <glyph glyph-name="z" unicode="z" d="M369 409h-265v91h405v-76l-271 -331h287v-93h-431v79z"/>
    <glyph glyph-name="braceleft" unicode="{" d="M259.5 -70.5c-34.333 29 -51.499 66.5 -51.499 112.5v132c0 22 -1.83301 40 -5.5 54s-11.334 25 -23.001 33s-29.167 12 -52.5 12v97c24 0 41.833 3.66699 53.5 11s19.167 17.5 22.5 30.5s5 31.167 5 54.5v136c0 46 17 83.333 51 112s80 43 138 43h94v-89h-83 c-28 0 -50 -8.5 -66 -25.5s-24 -39.5 -24 -67.5v-106c0 -36.667 -5.66699 -67.667 -17 -93s-31 -43 -59 -53c28 -12 47.5 -31.167 58.5 -57.5s16.5 -57.833 16.5 -94.5v-103c0 -28 8.16699 -50.333 24.5 -67s38.5 -25 66.5 -25h83v-90h-93c-58 0 -104.167 14.5 -138.5 43.5z "/>
    <glyph glyph-name="bar" unicode="|" d="M263 760h94v-877h-94v877z"/>
    <glyph glyph-name="braceright" unicode="}" d="M135 -114l0.000976562 90h83c28 0 50.167 8.33301 66.5 25s24.5 39 24.5 67v103c0 36.667 5.5 68.167 16.5 94.5s30.5 45.5 58.5 57.5c-28 10 -47.667 27.667 -59 53s-17 56.333 -17 93v106c0 28 -8 50.5 -24 67.5s-38 25.5 -66 25.5h-83v89h94c58 0 104 -14.333 138 -43 s51 -66 51 -112v-136c0 -23.333 1.66699 -41.5 5 -54.5s10.833 -23.167 22.5 -30.5s29.5 -11 53.5 -11v-97c-23.333 0 -40.833 -4 -52.5 -12s-19.334 -19 -23.001 -33s-5.5 -32 -5.5 -54v-132c0 -46 -17.167 -83.5 -51.5 -112.5s-80.5 -43.5 -138.5 -43.5h-93z"/>
    <glyph glyph-name="asciitilde" unicode="~" d="M273.5 372.5c17.667 -7.66699 37.1709 -18.499 58.5039 -32.499c16.667 -11.333 31 -19.666 43 -24.999s24.333 -8 37 -8c36.667 0 62 24.667 76 74l76 -20c-12.667 -48.667 -32.834 -84.334 -60.501 -107.001s-58.834 -34 -93.501 -34 c-22.667 0 -42.334 3.83301 -59.001 11.5s-35.667 18.5 -57 32.5c-16 11.333 -29.833 19.666 -41.5 24.999s-24.167 8 -37.5 8c-40.667 0 -66 -19.667 -76 -59l-83 13c10 45.333 29.167 78.833 57.5 100.5s61.166 32.5 98.499 32.5c23.333 0 43.833 -3.83301 61.5 -11.5z "/>
    <glyph glyph-name="uni00A0" unicode=" "/>
    <glyph glyph-name="exclamdown" unicode="¡" d="M232 365v150h155v-150h-155zM358 308l20 -503h-137l20 503h97z"/>
    <glyph glyph-name="cent" unicode="¢" d="M438 192l103.001 -20.0029c-8 -50 -28.667 -92 -62 -126s-78.333 -53 -135 -57v-83h-52v83c-68.667 6 -121.5 33.333 -158.5 82s-55.5 109 -55.5 181c0 72.667 18.167 132.334 54.5 179.001s89.5 73.334 159.5 80.001v83h52v-83 c55.333 -3.33301 100.5 -20.666 135.5 -51.999s55.833 -74 62.5 -128l-108 -16c-4.66699 30.667 -14.5 55.167 -29.5 73.5s-35.167 29.833 -60.5 34.5v-343c51.333 8.66699 82.666 46 93.999 112zM215.001 136.997c17.333 -30.667 43 -49.332 77 -55.999v342 c-33.333 -6.66699 -58.833 -24.834 -76.5 -54.501s-26.5 -67.5 -26.5 -113.5c0 -48 8.66699 -87.333 26 -118z"/>
    <glyph glyph-name="sterling" unicode="£" d="M583 164c-8.66699 -62.667 -30.335 -108.169 -65.002 -136.502s-74 -42.5 -118 -42.5c-16.667 0 -31.5 1 -44.5 3s-29.167 5 -48.5 9c-20.667 4.66699 -38.667 8.16699 -54 10.5s-33.333 3.5 -54 3.5c-47.333 0 -95.333 -6.33301 -144 -19l-25 78 c85.333 29.333 128 89 128 179c0 28.667 -2 54.334 -6 77.001h-97v69h83c-8.66699 40.667 -13 75.334 -13 104.001c0 44.667 9.33301 82.834 28 114.501s44 55.667 76 72s68.333 24.5 109 24.5c57.333 0 104 -13.833 140 -41.5s59.333 -68.834 70 -123.501l-114 -27 c-11.333 66 -43.666 99 -96.999 99c-28 0 -50.5 -9.33301 -67.5 -28s-25.5 -47.334 -25.5 -86.001c0 -18 1.16699 -34.833 3.5 -50.5s5.83301 -34.834 10.5 -57.501h157v-69h-144c3.33301 -21.333 5 -41.666 5 -60.999c0 -81.333 -34.333 -138 -103 -170 c16.667 4 38.667 6 66 6c16.667 0 32.334 -1 47.001 -3s23.667 -3.33301 27 -4c26.667 -4.66699 50.667 -7 72 -7c22 0 41.167 7.33301 57.5 22s26.5 39.334 30.5 74.001z"/>
    <glyph glyph-name="currency" unicode="¤" d="M497 158l53.998 -59l-55 -51l-55 59c-37.333 -22.667 -79.666 -34 -126.999 -34c-50 0 -94 12.333 -132 37l-58 -63l-55 51l58 64c-28.667 40.667 -43 87.667 -43 141c0 54.667 14.667 102 44 142l-59 64l55 51l59 -63c38 24.667 81.667 37 131 37 c46.667 0 88.334 -11 125.001 -33l57 60l55 -51l-55 -60c31.333 -40.667 47 -89.667 47 -147c0 -56.667 -15.333 -105 -46 -145zM406.498 201.5c25 25.667 37.5 59.5 37.5 101.5s-12.5 75.833 -37.5 101.5s-55.833 38.5 -92.5 38.5c-37.333 0 -68.5 -12.833 -93.5 -38.5 s-37.5 -59.5 -37.5 -101.5s12.5 -75.833 37.5 -101.5s56.167 -38.5 93.5 -38.5c36.667 0 67.5 12.833 92.5 38.5z"/>
    <glyph glyph-name="yen" unicode="¥" d="M378 331h161v-64h-168v-67h168v-64h-168v-136h-122v136h-171v64h171v67h-171v64h164l-203 364h134l136 -272l138 272h133z"/>
    <glyph glyph-name="brokenbar" unicode="¦" d="M355 384h-91v376h91v-376zM355 -117h-91v380h91v-380z"/>
    <glyph glyph-name="section" unicode="§" d="M513 91c0 -50 -19.666 -89.167 -58.999 -117.5s-92 -42.5 -158 -42.5c-60 0 -108.833 13.833 -146.5 41.5s-59.834 64.5 -66.501 110.5l107 24c6 -26.667 19.5 -48 40.5 -64s46.5 -24 76.5 -24c26.667 0 48.334 5 65.001 15s25 24 25 42 c0 18.667 -6.16699 33.834 -18.5 45.501s-36.833 25.167 -73.5 40.5l-75 30c-50.667 20 -87.5 42.333 -110.5 67s-34.5 55.334 -34.5 92.001c0 28 7.5 52.667 22.5 74s37.167 38.333 66.5 51c-38 29.333 -57 67.333 -57 114c0 49.333 19.167 87.666 57.5 114.999 s88.166 41 149.499 41c56 0 101.5 -12.167 136.5 -36.5s56.167 -58.5 63.5 -102.5l-107 -27c-12 56 -46.667 84 -104 84c-24 0 -43.5 -5.66699 -58.5 -17s-22.5 -27 -22.5 -47c0 -18.667 5.66699 -33.834 17 -45.501s34.333 -24.5 69 -38.5l79 -31 c50.667 -20 87.5 -43 110.5 -69s34.5 -56.667 34.5 -92c0 -27.333 -6.83301 -52 -20.5 -74s-34.5 -39.667 -62.5 -53c36 -28.667 54 -64 54 -106zM379.001 242l17 -6.99902c22 17.333 33 38.666 33 63.999c0 19.333 -5.33301 35.333 -16 48s-23.834 23.167 -39.501 31.5 s-42.167 20.833 -79.5 37.5l-57 25c-13.333 -9.33301 -23.166 -19.5 -29.499 -30.5s-9.5 -23.5 -9.5 -37.5c0 -22.667 7.16699 -40.167 21.5 -52.5s41.5 -27.5 81.5 -45.5z"/>
    <glyph glyph-name="dieresis" unicode="¨" d="M274 588h-135v135h135v-135zM481 588h-135v135h135v-135z"/>
    <glyph glyph-name="copyright" unicode="©" d="M182.5 14c-38.333 21.333 -69 54.166 -92 98.499s-34.5 99.833 -34.5 166.5v149c0 66.667 11.5 122.167 34.5 166.5s53.667 77.166 92 98.499s80.833 32 127.5 32s89.167 -10.667 127.5 -32s69 -54.166 92 -98.499s34.5 -99.833 34.5 -166.5v-149 c0 -66.667 -11.5 -122.167 -34.5 -166.5s-53.667 -77.166 -92 -98.499s-80.833 -32 -127.5 -32s-89.167 10.667 -127.5 32zM451 95c37.333 40.667 56 102 56 184v149c0 82.667 -18.667 144.167 -56 184.5s-84.333 60.5 -141 60.5s-103.834 -20.167 -141.501 -60.5 s-56.5 -101.833 -56.5 -184.5v-149c0 -56 9 -102.333 27 -139s41.833 -63.5 71.5 -80.5s62.834 -25.5 99.501 -25.5c56.667 0 103.667 20.333 141 61zM169 316l0.00292969 80c0 58.667 12.5 102 37.5 130s60.5 42 106.5 42c41.333 0 73.666 -12.667 96.999 -38 s35.666 -61 36.999 -107l-84 -8c-1.33301 56.667 -18.666 85 -51.999 85c-18.667 0 -32.834 -7.5 -42.501 -22.5s-14.5 -41.167 -14.5 -78.5v-82c0 -39.333 4.83301 -67 14.5 -83s24.167 -24 43.5 -24c17.333 0 30.166 7.66699 38.499 23s13.166 35.333 14.499 60l83 -12 c-2 -41.333 -14.167 -74.833 -36.5 -100.5s-55.166 -38.5 -98.499 -38.5c-96 0 -144 58 -144 174z"/>
    <glyph glyph-name="ordfeminine" unicode="ª" d="M488 310h-100.999c-3.33301 19.333 -5.66602 39.666 -6.99902 60.999c-10 -22 -25.833 -39.167 -47.5 -51.5s-47.834 -18.5 -78.501 -18.5c-36.667 0 -66.167 9.66699 -88.5 29s-33.5 45 -33.5 77c0 34.667 13.167 60.834 39.5 78.501s63.5 29.5 111.5 35.5l91 12 c-0.666992 30.667 -5.33398 52.167 -14.001 64.5s-24 18.5 -46 18.5c-41.333 0 -62.666 -19.667 -63.999 -59h-107c3.33301 40.667 20.166 72 50.499 94s71.833 33 124.5 33c54 0 94 -12.167 120 -36.5s39 -61.833 39 -112.5v-119c0 -46.667 3.66699 -82 11 -106z M309.001 476c-26.667 -4 -46 -10.501 -58 -19.501s-18 -21.833 -18 -38.5c0 -16 5.5 -28.667 16.5 -38s25.833 -14 44.5 -14c24.667 0 44.5 7.83301 59.5 23.5s22.5 35.834 22.5 60.501l-1 34z"/>
    <glyph glyph-name="guillemotleft" unicode="«" d="M46 276l170 206h118l-165 -205l162 -210h-120zM256 276l170 206h118l-165 -205l162 -210h-120z"/>
    <glyph glyph-name="logicalnot" unicode="¬" d="M544 380v-253h-93v162h-376v91h469z"/>
    <glyph glyph-name="registered" unicode="®" d="M437.5 693c38.333 -21.333 69 -54.166 92 -98.499s34.5 -99.833 34.5 -166.5v-149c0 -66.667 -11.5 -122.167 -34.5 -166.5s-53.667 -77.166 -92 -98.499s-80.833 -32 -127.5 -32s-89.167 10.667 -127.5 32s-69 54.166 -92 98.499s-34.5 99.833 -34.5 166.5v149 c0 66.667 11.5 122.167 34.5 166.5s53.667 77.166 92 98.499s80.833 32 127.5 32s89.167 -10.667 127.5 -32zM507 428c0 82.667 -18.667 144.167 -56 184.5s-84.333 60.5 -141 60.5s-103.834 -20.167 -141.501 -60.5s-56.5 -101.833 -56.5 -184.5v-149 c0 -56 9 -102.333 27 -139s41.833 -63.5 71.5 -80.5s62.834 -25.5 99.501 -25.5c56.667 0 103.667 20.333 141 61s56 102 56 184v149zM432 381c-10.667 -19.333 -28.333 -34.335 -53 -45.002l81 -180h-87l-68 167h-43v-167h-80v406h131c48 0 82.5 -11.167 103.5 -33.5 s31.5 -51.166 31.5 -86.499c0 -21.333 -5.33301 -41.666 -16 -60.999zM262.001 382.998h38c45.333 0 68 19.333 68 58c0 18.667 -5.33301 33 -16 43s-28 15 -52 15h-38v-116z"/>
    <glyph glyph-name="macron" unicode="¯" d="M153 670h314v-82h-314v82z"/>
    <glyph glyph-name="degree" unicode="°" d="M445.5 478c-13.667 -24 -32.334 -43.167 -56.001 -57.5s-50.167 -21.5 -79.5 -21.5c-28.667 0 -54.834 7 -78.501 21s-42.5 33.167 -56.5 57.5s-21 51.166 -21 80.499c0 30 7 57.167 21 81.5s32.833 43.333 56.5 57s49.834 20.5 78.501 20.5s54.834 -7 78.501 -21 s42.5 -33.167 56.5 -57.5s21 -51.166 21 -80.499s-6.83301 -56 -20.5 -80zM251.5 495c15.667 -17.333 35.167 -26 58.5 -26c24 0 43.667 8.66699 59 26s23 38.333 23 63c0 25.333 -7.83301 46.5 -23.5 63.5s-35.167 25.5 -58.5 25.5c-22.667 0 -42 -8.5 -58 -25.5 s-24 -38.167 -24 -63.5c0 -24.667 7.83301 -45.667 23.5 -63z"/>
    <glyph glyph-name="plusminus" unicode="±" d="M547 376v-87h-187v-151h-100v151h-187v87h187v154h100v-154h187zM73 92h474v-92h-474v92z"/>
    <glyph glyph-name="acute" unicode="´" d="M285 723h132l-118 -151h-96z"/>
    <glyph glyph-name="uni00B5" unicode="µ" d="M521 500v-500h-111v92c-12 -28 -32 -52.333 -60 -73s-59 -31 -93 -31c-16 0 -33.333 1.66699 -52 5v-188h-117v695h119v-303c0 -76.667 29.333 -115 88 -115c38 0 65.5 14.667 82.5 44s25.5 63 25.5 101v273h118z"/>
    <glyph glyph-name="paragraph" unicode="¶" d="M104 396c-42.667 27.333 -63.999 74 -63.999 140c0 64 22 110.667 66 140s99.667 44 167 44h307v-62h-91v-757h-70v757h-80v-757h-71v454c-66.667 0 -121.334 13.667 -164.001 41z"/>
    <glyph glyph-name="periodcentered" unicode="·" d="M477 282h-155v150h155v-150z"/>
    <glyph glyph-name="cedilla" unicode="¸" d="M328 7l-33.001 -56c4.66699 4 11.834 7.33301 21.501 10s19.5 4 29.5 4c24 0 43.5 -6.66699 58.5 -20s22.5 -31.333 22.5 -54c0 -28 -11.833 -51 -35.5 -69s-53.5 -27 -89.5 -27c-53.333 0 -89.666 19.667 -108.999 59l72 19c8 -17.333 21.333 -26 40 -26 c11.333 0 21 3.5 29 10.5s12 16.833 12 29.5c0 12 -3.83301 21.333 -11.5 28s-16.834 10 -27.501 10c-14.667 0 -26 -5 -34 -15l-49 13l41 84h63z"/>
    <glyph glyph-name="ordmasculine" unicode="º" d="M174.5 352c-35 34 -52.5 81 -52.5 141s17.5 106.833 52.5 140.5s80.167 50.5 135.5 50.5s100.5 -16.833 135.5 -50.5s52.5 -80.5 52.5 -140.5s-17.5 -107 -52.5 -141s-80.167 -51 -135.5 -51s-100.5 17 -135.5 51zM370.5 405.5c14.333 20.333 21.5 49.5 21.5 87.5 c0 37.333 -7.16699 66.166 -21.5 86.499s-34.5 30.5 -60.5 30.5s-46.333 -10.167 -61 -30.5s-22 -49.166 -22 -86.499c0 -38 7.33301 -67.167 22 -87.5s35 -30.5 61 -30.5s46.167 10.167 60.5 30.5z"/>
    <glyph glyph-name="guillemotright" unicode="»" d="M364 276l-170 206h-118l165 -205l-162 -210h120zM575 276l-170 206h-119l165 -205l-162 -210h121z"/>
    <glyph glyph-name="onequarter" unicode="¼" horiz-adv-x="1240" d="M432 388l0.000976562 -64h-289v64h107v224c-9.33301 -8 -23.833 -14.833 -43.5 -20.5s-37.834 -8.5 -54.501 -8.5h-6v73h4c22.667 0 45 5 67 15s37.333 23 46 39h69v-322h100zM958.001 727l-527 -744h-103l528 744h102zM1038 87v-87h-78v87h-190v58l174 241h94v-237h60 v-62h-60zM960.001 319l-126 -170h126v170z"/>
    <glyph glyph-name="onehalf" unicode="½" horiz-adv-x="1240" d="M423 388l0.000976562 -64h-289v64h107v224c-9.33301 -8 -23.833 -14.833 -43.5 -20.5s-37.834 -8.5 -54.501 -8.5h-6v73h4c22.667 0 45 5 67 15s37.333 23 46 39h69v-322h100zM948.001 727l-527 -744h-103l528 744h102zM961.001 177.5 c33.333 33 50.001 64.166 50.001 93.499c0 18 -4.5 31.833 -13.5 41.5s-22.167 14.5 -39.5 14.5c-18 0 -31.833 -4.83301 -41.5 -14.5s-14.5 -23.5 -14.5 -41.5c0 -11.333 0.333008 -19.333 1 -24l-83 7c-1.33301 6 -2 13.333 -2 22c0 35.333 12.833 64 38.5 86 s59.5 33 101.5 33c43.333 0 77.166 -10.667 101.499 -32s36.5 -50.666 36.5 -87.999c0 -36.667 -15.167 -72 -45.5 -106s-71.166 -68 -122.499 -102h178v-67h-290v62c63.333 44 111.666 82.5 144.999 115.5z"/>
    <glyph glyph-name="threequarters" unicode="¾" horiz-adv-x="1240" d="M297 548c18 0 32.6689 4.5 44.002 13.5s17 22.167 17 39.5c0 16.667 -4.83301 29.5 -14.5 38.5s-23.167 13.5 -40.5 13.5c-20.667 0 -35.834 -6 -45.501 -18s-13.834 -29 -12.501 -51l-85 10c-1.33301 39.333 10.667 70 36 92s61.666 33 108.999 33 c42.667 0 76.334 -9.5 101.001 -28.5s37 -45.167 37 -78.5c0 -24 -6.83301 -43.667 -20.5 -59s-32.834 -25.333 -57.501 -30c28 -1.33301 49.667 -10.5 65 -27.5s23 -39.5 23 -67.5c0 -32.667 -13.5 -59.5 -40.5 -80.5s-62.167 -31.5 -105.5 -31.5 c-47.333 0 -84.166 10.667 -110.499 32s-39.833 51.333 -40.5 90l87 7c-0.666992 -18.667 5 -34.167 17 -46.5s27.667 -18.5 47 -18.5c18 0 32.5 4.66699 43.5 14s16.5 23 16.5 41c0 37.333 -23 56 -69 56h-26v57h25zM950.002 727l-527 -744h-103l528 744h102zM1025 87v-87 h-78v87h-190v58l174 241h94v-237h60v-62h-60zM947.002 319l-126 -170h126v170z"/>
    <glyph glyph-name="questiondown" unicode="¿" d="M236 519h155v-150h-155v150zM544 -6c0 -40 -9.50098 -75.165 -28.501 -105.498s-46.333 -54 -82 -71s-78.167 -25.5 -127.5 -25.5c-71.333 0 -127.833 16.5 -169.5 49.5s-62.5 79.5 -62.5 139.5c0 32 8.16699 60.833 24.5 86.5s38.833 52.5 67.5 80.5l50 48 c14.667 14 25.5 29.167 32.5 45.5s10.5 35.166 10.5 56.499v17h116v-36c0 -20.667 -4.66699 -40.834 -14 -60.501s-25.666 -41.167 -48.999 -64.5l-50 -48c-20 -19.333 -35.333 -37.833 -46 -55.5s-16 -38.5 -16 -62.5c0 -30 10 -53.833 30 -71.5s46 -26.5 78 -26.5 c35.333 0 63.333 10 84 30s31 49.333 31 88c0 19.333 -2 35.333 -6 48l124 -13c2 -22 3 -38.333 3 -49z"/>
    <glyph glyph-name="Agrave" unicode="À" d="M260 770l-109 122h138l71 -122h-100zM422 181h-225l-51 -181h-121l214 710h142l214 -710h-121zM225 280h169c-38 128.667 -65.333 238 -82 328h-4c-15.333 -84 -43 -193.333 -83 -328z"/>
    <glyph glyph-name="Aacute" unicode="Á" d="M360 770h-100l71 122h138zM422 181h-225l-51 -181h-121l214 710h142l214 -710h-121zM225 280h169c-38 128.667 -65.333 238 -82 328h-4c-15.333 -84 -43 -193.333 -83 -328z"/>
    <glyph glyph-name="Acircumflex" unicode="Â" d="M243 770h-99l101 122h131l100 -122h-100l-67 71zM422 181h-225l-51 -181h-121l214 710h142l214 -710h-121zM225 280h169c-38 128.667 -65.333 238 -82 328h-4c-15.333 -84 -43 -193.333 -83 -328z"/>
    <glyph glyph-name="Atilde" unicode="Ã" d="M201.5 806c-9 -8 -15.5029 -20.667 -19.5029 -38l-73 16c7.33301 38 22.833 66.333 46.5 85s50.5 28 80.5 28c17.333 0 32.333 -2.5 45 -7.5s27 -12.5 43 -22.5c12.667 -8 23.5 -14 32.5 -18s18.833 -6 29.5 -6c12.667 0 23.834 4 33.501 12s16.167 20.667 19.5 38 l71 -16c-7.33301 -37.333 -22.166 -65.5 -44.499 -84.5s-49.833 -28.5 -82.5 -28.5c-18 0 -33.167 2.5 -45.5 7.5s-26.166 12.5 -41.499 22.5c-13.333 8 -24.333 14 -33 18s-18.667 6 -30 6c-12 0 -22.5 -4 -31.5 -12zM421.997 181h-225l-51 -181h-121l214 710h142l214 -710 h-121zM224.997 280h169c-38 128.667 -65.333 238 -82 328h-4c-15.333 -84 -43 -193.333 -83 -328z"/>
    <glyph glyph-name="Adieresis" unicode="Ä" d="M258 768h-122v124h122v-124zM484 768h-122v124h122v-124zM422 181h-225l-51 -181h-121l214 710h142l214 -710h-121zM225 280h169c-38 128.667 -65.333 238 -82 328h-4c-15.333 -84 -43 -193.333 -83 -328z"/>
    <glyph glyph-name="Aring" unicode="Å" d="M231.5 761c-19.667 18.667 -29.5 42 -29.5 70s9.83301 51.167 29.5 69.5s45.834 27.5 78.501 27.5s58.834 -9.16699 78.501 -27.5s29.5 -41.5 29.5 -69.5s-9.83301 -51.333 -29.5 -70s-45.834 -28 -78.501 -28s-58.834 9.33301 -78.501 28zM278.5 863.5 c-8.33301 -8.33301 -12.5 -19.166 -12.5 -32.499s4.16699 -24.333 12.5 -33s18.833 -13 31.5 -13s23.167 4.33301 31.5 13s12.5 19.667 12.5 33s-4.16699 24.166 -12.5 32.499s-18.833 12.5 -31.5 12.5s-23.167 -4.16699 -31.5 -12.5zM422 181h-225l-51 -181h-121l214 710 h142l214 -710h-121zM225 280h169c-38 128.667 -65.333 238 -82 328h-4c-15.333 -84 -43 -193.333 -83 -328z"/>
    <glyph glyph-name="AE" unicode="Æ" d="M581 101v-101h-297v155h-119l-38 -155h-117l201 710h363v-101h-181v-196h164v-99h-164v-213h188zM284 249v384l-95 -384h95z"/>
    <glyph glyph-name="Ccedilla" unicode="Ç" d="M411 129.5c22.667 29.667 35.667 73.167 39 130.5l122 -23c-5.33301 -74 -28.833 -133.833 -70.5 -179.5s-99.5 -70.5 -173.5 -74.5l-19 -32c4.66699 4 11.834 7.33301 21.501 10s19.5 4 29.5 4c24 0 43.5 -6.66699 58.5 -20s22.5 -31.333 22.5 -54 c0 -28 -11.833 -51 -35.5 -69s-53.5 -27 -89.5 -27c-53.333 0 -89.666 19.667 -108.999 59l72 19c8 -17.333 21.333 -26 40 -26c11.333 0 21 3.5 29 10.5s12 16.833 12 29.5c0 12 -3.83301 21.333 -11.5 28s-16.834 10 -27.501 10c-14.667 0 -26 -5 -34 -15l-49 13l30 62 c-72 9.33301 -126.667 43 -164 101s-56 135.333 -56 232v74c0 105.333 22.667 187.5 68 246.5s111.666 88.5 198.999 88.5c77.333 0 138 -21.333 182 -64s69.333 -107 76 -193l-123 -19c-3.33301 56 -16.5 99 -39.5 129s-55.167 45 -96.5 45c-48 0 -83.333 -19 -106 -57 s-34 -96 -34 -174v-71c0 -78 11.667 -137.167 35 -177.5s58.333 -60.5 105 -60.5c42 0 74.333 14.833 97 44.5z"/>
    <glyph glyph-name="Egrave" unicode="È" d="M260 770l-109 122h138l71 -122h-100zM526 609h-305v-196h288v-99h-288v-213h312v-101h-435v710h428v-101z"/>
    <glyph glyph-name="Eacute" unicode="É" d="M331 892h138l-109 -122h-100zM526 609h-305v-196h288v-99h-288v-213h312v-101h-435v710h428v-101z"/>
    <glyph glyph-name="Ecircumflex" unicode="Ê" d="M376 770l-67 71l-66 -71h-99l101 122h131l100 -122h-100zM526 609h-305v-196h288v-99h-288v-213h312v-101h-435v710h428v-101z"/>
    <glyph glyph-name="Edieresis" unicode="Ë" d="M258 768h-122v124h122v-124zM484 768h-122v124h122v-124zM526 609h-305v-196h288v-99h-288v-213h312v-101h-435v710h428v-101z"/>
    <glyph glyph-name="Igrave" unicode="Ì" d="M260 770l-109 122h138l71 -122h-100zM371 614v-518h166v-96h-454v96h165v518h-165v96h454v-96h-166z"/>
    <glyph glyph-name="Iacute" unicode="Í" d="M360 770h-100l71 122h138zM371 614v-518h166v-96h-454v96h165v518h-165v96h454v-96h-166z"/>
    <glyph glyph-name="Icircumflex" unicode="Î" d="M243 770h-99l101 122h131l100 -122h-100l-67 71zM371 614v-518h166v-96h-454v96h165v518h-165v96h454v-96h-166z"/>
    <glyph glyph-name="Idieresis" unicode="Ï" d="M258 768h-122v124h122v-124zM484 768h-122v124h122v-124zM371 614v-518h166v-96h-454v96h165v518h-165v96h454v-96h-166z"/>
    <glyph glyph-name="Eth" unicode="Ð" d="M454 666.5c44 -29 77.498 -70 100.498 -123s34.5 -114.167 34.5 -183.5c0 -70 -12.167 -132.333 -36.5 -187s-58.666 -97.167 -102.999 -127.5s-96.166 -45.5 -155.499 -45.5h-225v325h-69v82h69v303h227c61.333 0 114 -14.5 158 -43.5zM416.498 170.5 c31 48.333 46.5 111.499 46.5 189.499c0 76.667 -15 137.834 -45 183.501s-73.333 68.5 -130 68.5h-96v-205h142v-82h-142v-227h94c56 0 99.5 24.167 130.5 72.5z"/>
    <glyph glyph-name="Ntilde" unicode="Ñ" d="M281 889.5c12.667 -5 26.9971 -12.5 42.9971 -22.5c12.667 -8 23.5 -14 32.5 -18s18.833 -6 29.5 -6c12.667 0 23.834 4 33.501 12s16.167 20.667 19.5 38l71 -16c-7.33301 -37.333 -22.166 -65.5 -44.499 -84.5s-49.833 -28.5 -82.5 -28.5c-18 0 -33.167 2.5 -45.5 7.5 s-26.166 12.5 -41.499 22.5c-13.333 8 -24.333 14 -33 18s-18.667 6 -30 6c-12 0 -22.5 -4 -31.5 -12s-15.5 -20.667 -19.5 -38l-73 16c7.33301 38 22.833 66.333 46.5 85s50.5 28 80.5 28c17.333 0 32.333 -2.5 45 -7.5zM434.997 175h4c-4 28 -6 60 -6 96v439h115v-710 h-132l-198 456c-8.66699 20.667 -16 40.667 -22 60s-9.33301 30.333 -10 33h-5c4 -22.667 6 -49.667 6 -81v-468h-115v710h144l185 -435c16 -38.667 27.333 -72 34 -100z"/>
    <glyph glyph-name="Ograve" unicode="Ò" d="M260 770l-109 122h138l71 -122h-100zM112 71c-44.667 58.667 -67 141.334 -67 248.001v72c0 106.667 22.333 189.334 67 248.001s110.667 88 198 88s153.333 -29.333 198 -88s67 -141.334 67 -248.001v-72c0 -106.667 -22.333 -189.334 -67 -248.001 s-110.667 -88 -198 -88s-153.333 29.333 -198 88zM415.5 140c22.333 37.333 33.5 96 33.5 176v78c0 80 -11.167 138.667 -33.5 176s-57.5 56 -105.5 56s-83.167 -18.667 -105.5 -56s-33.5 -96 -33.5 -176v-78c0 -80 11.167 -138.667 33.5 -176s57.5 -56 105.5 -56 s83.167 18.667 105.5 56z"/>
    <glyph glyph-name="Oacute" unicode="Ó" d="M331 892h138l-109 -122h-100zM112 71c-44.667 58.667 -67 141.334 -67 248.001v72c0 106.667 22.333 189.334 67 248.001s110.667 88 198 88s153.333 -29.333 198 -88s67 -141.334 67 -248.001v-72c0 -106.667 -22.333 -189.334 -67 -248.001s-110.667 -88 -198 -88 s-153.333 29.333 -198 88zM415.5 140c22.333 37.333 33.5 96 33.5 176v78c0 80 -11.167 138.667 -33.5 176s-57.5 56 -105.5 56s-83.167 -18.667 -105.5 -56s-33.5 -96 -33.5 -176v-78c0 -80 11.167 -138.667 33.5 -176s57.5 -56 105.5 -56s83.167 18.667 105.5 56z"/>
    <glyph glyph-name="Ocircumflex" unicode="Ô" d="M376 770l-67 71l-66 -71h-99l101 122h131l100 -122h-100zM112 71c-44.667 58.667 -67 141.334 -67 248.001v72c0 106.667 22.333 189.334 67 248.001s110.667 88 198 88s153.333 -29.333 198 -88s67 -141.334 67 -248.001v-72c0 -106.667 -22.333 -189.334 -67 -248.001 s-110.667 -88 -198 -88s-153.333 29.333 -198 88zM415.5 140c22.333 37.333 33.5 96 33.5 176v78c0 80 -11.167 138.667 -33.5 176s-57.5 56 -105.5 56s-83.167 -18.667 -105.5 -56s-33.5 -96 -33.5 -176v-78c0 -80 11.167 -138.667 33.5 -176s57.5 -56 105.5 -56 s83.167 18.667 105.5 56z"/>
    <glyph glyph-name="Otilde" unicode="Õ" d="M281 889.5c12.667 -5 26.9971 -12.5 42.9971 -22.5c12.667 -8 23.5 -14 32.5 -18s18.833 -6 29.5 -6c12.667 0 23.834 4 33.501 12s16.167 20.667 19.5 38l71 -16c-7.33301 -37.333 -22.166 -65.5 -44.499 -84.5s-49.833 -28.5 -82.5 -28.5c-18 0 -33.167 2.5 -45.5 7.5 s-26.166 12.5 -41.499 22.5c-13.333 8 -24.333 14 -33 18s-18.667 6 -30 6c-12 0 -22.5 -4 -31.5 -12s-15.5 -20.667 -19.5 -38l-73 16c7.33301 38 22.833 66.333 46.5 85s50.5 28 80.5 28c17.333 0 32.333 -2.5 45 -7.5zM111.997 71 c-44.667 58.667 -67 141.334 -67 248.001v72c0 106.667 22.333 189.334 67 248.001s110.667 88 198 88s153.333 -29.333 198 -88s67 -141.334 67 -248.001v-72c0 -106.667 -22.333 -189.334 -67 -248.001s-110.667 -88 -198 -88s-153.333 29.333 -198 88zM415.497 140 c22.333 37.333 33.5 96 33.5 176v78c0 80 -11.167 138.667 -33.5 176s-57.5 56 -105.5 56s-83.167 -18.667 -105.5 -56s-33.5 -96 -33.5 -176v-78c0 -80 11.167 -138.667 33.5 -176s57.5 -56 105.5 -56s83.167 18.667 105.5 56z"/>
    <glyph glyph-name="Odieresis" unicode="Ö" d="M258 768h-122v124h122v-124zM484 768h-122v124h122v-124zM112 71c-44.667 58.667 -67 141.334 -67 248.001v72c0 106.667 22.333 189.334 67 248.001s110.667 88 198 88s153.333 -29.333 198 -88s67 -141.334 67 -248.001v-72c0 -106.667 -22.333 -189.334 -67 -248.001 s-110.667 -88 -198 -88s-153.333 29.333 -198 88zM415.5 140c22.333 37.333 33.5 96 33.5 176v78c0 80 -11.167 138.667 -33.5 176s-57.5 56 -105.5 56s-83.167 -18.667 -105.5 -56s-33.5 -96 -33.5 -176v-78c0 -80 11.167 -138.667 33.5 -176s57.5 -56 105.5 -56 s83.167 18.667 105.5 56z"/>
    <glyph glyph-name="multiply" unicode="×" d="M378 327l181 -181l-67 -69l-182 182l-182 -182l-68 68l182 182l-182 182l68 68l182 -182l181 182l69 -68z"/>
    <glyph glyph-name="Oslash" unicode="Ø" d="M575 391l-0.000976562 -72c0 -106.667 -22.333 -189.334 -67 -248.001s-110.667 -88 -198 -88c-69.333 0 -125.666 19 -168.999 57l-46 -74l-51 25l58 94c-38 57.333 -57 135.333 -57 234v72c0 106.667 22.333 189.334 67 248.001s110.667 88 198 88 c64.667 0 118 -16.333 160 -49l40 65l50 -27l-50 -80c43.333 -57.333 65 -139 65 -245zM179.999 210l229 370c-22.667 30.667 -55.667 46 -99 46c-48 0 -83.167 -18.667 -105.5 -56s-33.5 -96 -33.5 -176v-78c0 -40.667 3 -76 9 -106zM448.999 394 c0 49.333 -3.99902 90.333 -11.999 123l-233 -376c21.333 -38 56.666 -57 105.999 -57c48 0 83.167 18.667 105.5 56s33.5 96 33.5 176v78z"/>
    <glyph glyph-name="Ugrave" unicode="Ù" d="M260 770l-109 122h138l71 -122h-100zM185 710l0.000976562 -478c0 -45.333 10.833 -81 32.5 -107s53.167 -39 94.5 -39s72 12.833 92 38.5s30 61.5 30 107.5v478h124v-479c0 -76 -20.833 -136.333 -62.5 -181s-102.5 -67 -182.5 -67 c-80.667 0 -142.834 22.5 -186.501 67.5s-65.5 105.167 -65.5 180.5v479h124z"/>
    <glyph glyph-name="Uacute" unicode="Ú" d="M331 892h138l-109 -122h-100zM185 710l0.000976562 -478c0 -45.333 10.833 -81 32.5 -107s53.167 -39 94.5 -39s72 12.833 92 38.5s30 61.5 30 107.5v478h124v-479c0 -76 -20.833 -136.333 -62.5 -181s-102.5 -67 -182.5 -67c-80.667 0 -142.834 22.5 -186.501 67.5 s-65.5 105.167 -65.5 180.5v479h124z"/>
    <glyph glyph-name="Ucircumflex" unicode="Û" d="M376 770l-67 71l-66 -71h-99l101 122h131l100 -122h-100zM185 710l0.000976562 -478c0 -45.333 10.833 -81 32.5 -107s53.167 -39 94.5 -39s72 12.833 92 38.5s30 61.5 30 107.5v478h124v-479c0 -76 -20.833 -136.333 -62.5 -181s-102.5 -67 -182.5 -67 c-80.667 0 -142.834 22.5 -186.501 67.5s-65.5 105.167 -65.5 180.5v479h124z"/>
    <glyph glyph-name="Udieresis" unicode="Ü" d="M258 768h-122v124h122v-124zM484 768h-122v124h122v-124zM185 710l0.000976562 -478c0 -45.333 10.833 -81 32.5 -107s53.167 -39 94.5 -39s72 12.833 92 38.5s30 61.5 30 107.5v478h124v-479c0 -76 -20.833 -136.333 -62.5 -181s-102.5 -67 -182.5 -67 c-80.667 0 -142.834 22.5 -186.501 67.5s-65.5 105.167 -65.5 180.5v479h124z"/>
    <glyph glyph-name="Yacute" unicode="Ý" d="M331 892h138l-109 -122h-100zM372 0h-123v277l-221 433h134l148 -330l147 330h135l-220 -433v-277z"/>
    <glyph glyph-name="Thorn" unicode="Þ" d="M211 0h-121v710h121v-113h128c77.333 0 133.5 -19.5 168.5 -58.5s52.5 -86.167 52.5 -141.5c0 -32.667 -6.83301 -64.667 -20.5 -96s-37 -57.5 -70 -78.5s-76.5 -31.5 -130.5 -31.5h-128v-191zM211 284h106.999c42.667 0 73.334 10.833 92.001 32.5s28 46.834 28 75.501 c0 31.333 -9.5 57.666 -28.5 78.999s-49.5 32 -91.5 32h-107v-219z"/>
    <glyph glyph-name="germandbls" unicode="ß" d="M269 86l27.0029 -0.00195312c47.333 0 83.166 11.667 107.499 35s36.5 55 36.5 95s-12.5 72.667 -37.5 98s-65.167 39.333 -120.5 42h-1v86h2c39.333 1.33301 67.833 11.333 85.5 30s26.5 42.667 26.5 72s-8 52.833 -24 70.5s-39 26.5 -69 26.5 s-52.667 -10.167 -68 -30.5s-23 -49.833 -23 -88.5v-522h-118v509c0 64.667 17.167 117.167 51.5 157.5s87.5 60.5 159.5 60.5c43.333 0 81.166 -7.5 113.499 -22.5s57.166 -35.667 74.499 -62s26 -56.166 26 -89.499c0 -38 -11.5 -69.833 -34.5 -95.5 s-52.833 -42.5 -89.5 -50.5c49.333 -9.33301 89.833 -29.666 121.5 -60.999s47.5 -75 47.5 -131c0 -44 -10.333 -82.5 -31 -115.5s-50.167 -58.5 -88.5 -76.5s-83.5 -27 -135.5 -27h-39v90z"/>
    <glyph glyph-name="agrave" unicode="à" d="M529 0h-117.998c-3.33301 19.333 -6.33301 49 -9 89c-29.333 -67.333 -84.666 -101 -165.999 -101c-48.667 0 -88.334 13.5 -119.001 40.5s-46 62.167 -46 105.5c0 50.667 20.667 89 62 115c31.333 19.333 85.666 34 162.999 44l98 14v15c0 36 -7 62.5 -21 79.5 s-36.333 25.5 -67 25.5c-29.333 0 -52.333 -7.5 -69 -22.5s-26 -36.5 -28 -64.5h-123c4.66699 54.667 26.667 97 66 127s92.666 45 159.999 45c69.333 0 120.333 -16.667 153 -50s49 -85.333 49 -156v-151c0 -69.333 5 -121 15 -155zM303.002 224 c-38.667 -6 -66.499 -15.166 -83.499 -27.499s-25.5 -29.5 -25.5 -51.5c0 -22.667 7.16699 -40.334 21.5 -53.001s34.166 -19 59.499 -19c36.667 0 66.167 12 88.5 36s33.5 56 33.5 96v33zM261.003 572.001l-118 151h132l82 -151h-96z"/>
    <glyph glyph-name="aacute" unicode="á" d="M529 0h-117.998c-3.33301 19.333 -6.33301 49 -9 89c-29.333 -67.333 -84.666 -101 -165.999 -101c-48.667 0 -88.334 13.5 -119.001 40.5s-46 62.167 -46 105.5c0 50.667 20.667 89 62 115c31.333 19.333 85.666 34 162.999 44l98 14v15c0 36 -7 62.5 -21 79.5 s-36.333 25.5 -67 25.5c-29.333 0 -52.333 -7.5 -69 -22.5s-26 -36.5 -28 -64.5h-123c4.66699 54.667 26.667 97 66 127s92.666 45 159.999 45c69.333 0 120.333 -16.667 153 -50s49 -85.333 49 -156v-151c0 -69.333 5 -121 15 -155zM303.002 224 c-38.667 -6 -66.499 -15.166 -83.499 -27.499s-25.5 -29.5 -25.5 -51.5c0 -22.667 7.16699 -40.334 21.5 -53.001s34.166 -19 59.499 -19c36.667 0 66.167 12 88.5 36s33.5 56 33.5 96v33zM344.003 723.001h132l-118 -151h-96z"/>
    <glyph glyph-name="acircumflex" unicode="â" d="M529 0h-117.998c-3.33301 19.333 -6.33301 49 -9 89c-29.333 -67.333 -84.666 -101 -165.999 -101c-48.667 0 -88.334 13.5 -119.001 40.5s-46 62.167 -46 105.5c0 50.667 20.667 89 62 115c31.333 19.333 85.666 34 162.999 44l98 14v15c0 36 -7 62.5 -21 79.5 s-36.333 25.5 -67 25.5c-29.333 0 -52.333 -7.5 -69 -22.5s-26 -36.5 -28 -64.5h-123c4.66699 54.667 26.667 97 66 127s92.666 45 159.999 45c69.333 0 120.333 -16.667 153 -50s49 -85.333 49 -156v-151c0 -69.333 5 -121 15 -155zM303.002 224 c-38.667 -6 -66.499 -15.166 -83.499 -27.499s-25.5 -29.5 -25.5 -51.5c0 -22.667 7.16699 -40.334 21.5 -53.001s34.166 -19 59.499 -19c36.667 0 66.167 12 88.5 36s33.5 56 33.5 96v33zM375.003 572.001l-65 96l-65 -96h-98l101 151h124l101 -151h-98z"/>
    <glyph glyph-name="atilde" unicode="ã" d="M529 0h-117.998c-3.33301 19.333 -6.33301 49 -9 89c-29.333 -67.333 -84.666 -101 -165.999 -101c-48.667 0 -88.334 13.5 -119.001 40.5s-46 62.167 -46 105.5c0 50.667 20.667 89 62 115c31.333 19.333 85.666 34 162.999 44l98 14v15c0 36 -7 62.5 -21 79.5 s-36.333 25.5 -67 25.5c-29.333 0 -52.333 -7.5 -69 -22.5s-26 -36.5 -28 -64.5h-123c4.66699 54.667 26.667 97 66 127s92.666 45 159.999 45c69.333 0 120.333 -16.667 153 -50s49 -85.333 49 -156v-151c0 -69.333 5 -121 15 -155zM303.002 224 c-38.667 -6 -66.499 -15.166 -83.499 -27.499s-25.5 -29.5 -25.5 -51.5c0 -22.667 7.16699 -40.334 21.5 -53.001s34.166 -19 59.499 -19c36.667 0 66.167 12 88.5 36s33.5 56 33.5 96v33zM283.503 719.001c13 -6 27.834 -14.998 44.501 -26.998 c11.333 -8.66699 21.166 -15.167 29.499 -19.5s17.166 -6.5 26.499 -6.5c12 0 22.5 5 31.5 15s15.5 24.667 19.5 44l71 -17c-10.667 -44.667 -27 -77 -49 -97s-47.333 -30 -76 -30c-16.667 0 -31.167 3 -43.5 9s-25.5 14.333 -39.5 25 c-12.667 9.33301 -23.167 16.166 -31.5 20.499s-18.166 6.5 -29.499 6.5c-13.333 0 -24.5 -4.83301 -33.5 -14.5s-14.833 -22.834 -17.5 -39.501l-74 16c8 42.667 23.667 74 47 94s49.333 30 78 30c18 0 33.5 -3 46.5 -9z"/>
    <glyph glyph-name="adieresis" unicode="ä" d="M529 0h-117.998c-3.33301 19.333 -6.33301 49 -9 89c-29.333 -67.333 -84.666 -101 -165.999 -101c-48.667 0 -88.334 13.5 -119.001 40.5s-46 62.167 -46 105.5c0 50.667 20.667 89 62 115c31.333 19.333 85.666 34 162.999 44l98 14v15c0 36 -7 62.5 -21 79.5 s-36.333 25.5 -67 25.5c-29.333 0 -52.333 -7.5 -69 -22.5s-26 -36.5 -28 -64.5h-123c4.66699 54.667 26.667 97 66 127s92.666 45 159.999 45c69.333 0 120.333 -16.667 153 -50s49 -85.333 49 -156v-151c0 -69.333 5 -121 15 -155zM303.002 224 c-38.667 -6 -66.499 -15.166 -83.499 -27.499s-25.5 -29.5 -25.5 -51.5c0 -22.667 7.16699 -40.334 21.5 -53.001s34.166 -19 59.499 -19c36.667 0 66.167 12 88.5 36s33.5 56 33.5 96v33zM274.003 588.001h-135v135h135v-135zM481.003 588.001h-135v135h135v-135z"/>
    <glyph glyph-name="aring" unicode="å" d="M529 0h-117.998c-3.33301 19.333 -6.33301 49 -9 89c-29.333 -67.333 -84.666 -101 -165.999 -101c-48.667 0 -88.334 13.5 -119.001 40.5s-46 62.167 -46 105.5c0 50.667 20.667 89 62 115c31.333 19.333 85.666 34 162.999 44l98 14v15c0 36 -7 62.5 -21 79.5 s-36.333 25.5 -67 25.5c-29.333 0 -52.333 -7.5 -69 -22.5s-26 -36.5 -28 -64.5h-123c4.66699 54.667 26.667 97 66 127s92.666 45 159.999 45c69.333 0 120.333 -16.667 153 -50s49 -85.333 49 -156v-151c0 -69.333 5 -121 15 -155zM303.002 224 c-38.667 -6 -66.499 -15.166 -83.499 -27.499s-25.5 -29.5 -25.5 -51.5c0 -22.667 7.16699 -40.334 21.5 -53.001s34.166 -19 59.499 -19c36.667 0 66.167 12 88.5 36s33.5 56 33.5 96v33zM229.003 579.501c-20 20.333 -29.999 45.5 -29.999 75.5s10.167 55 30.5 75 s47.166 30 80.499 30s60.166 -10 80.499 -30s30.5 -45 30.5 -75s-10.167 -55.167 -30.5 -75.5s-47.166 -30.5 -80.499 -30.5c-34 0 -61 10.167 -81 30.5zM345.004 618.001c8.66699 10 13 22.333 13 37c0 14 -4.33301 26 -13 36s-20.334 15 -35.001 15 c-14 0 -25.5 -5 -34.5 -15s-13.5 -22 -13.5 -36c0 -14.667 4.5 -27 13.5 -37s20.5 -15 34.5 -15c14.667 0 26.334 5 35.001 15z"/>
    <glyph glyph-name="ae" unicode="æ" d="M600 160l-0.000976562 -2.00195c-1.33301 -52 -17.333 -93.333 -48 -124s-72 -46 -124 -46c-28.667 0 -54.667 5.66699 -78 17s-42.666 27 -57.999 47c-13.333 -19.333 -31.166 -34.666 -53.499 -45.999s-46.5 -17 -72.5 -17c-42.667 0 -77.667 12.333 -105 37 s-41 59.334 -41 104.001s11.5 78.667 34.5 102s61.5 40.333 115.5 51l88 16v54c0 26.667 -5 46.5 -15 59.5s-26 19.5 -48 19.5c-20 0 -35.833 -6.66699 -47.5 -20s-17.5 -32.666 -17.5 -57.999v-23h-102v6c0 58.667 15.5 102.167 46.5 130.5s70.833 42.5 119.5 42.5 c54 0 94 -13 120 -39c29.333 26 67.666 39 114.999 39c52 0 93 -16.167 123 -48.5s45 -78.833 45 -139.5v-89h-237v-67c0 -30.667 6.16699 -53.667 18.5 -69s29.5 -23 51.5 -23s39.667 8.16699 53 24.5s20.333 40.166 21 71.499v11zM359.999 329.998v-31h134v32 c0 64 -22.333 96 -67 96s-67 -32.333 -67 -97zM258.999 235.998l-58.001 -13c-26 -5.33301 -45.5 -14 -58.5 -26s-19.5 -31 -19.5 -57c0 -24 5.83301 -42.167 17.5 -54.5s26.834 -18.5 45.501 -18.5c19.333 0 36.333 7.5 51 22.5s22 35.167 22 60.5v86z"/>
    <glyph glyph-name="ccedilla" unicode="ç" d="M383.5 111.5c17.667 18.333 29.166 44.834 34.499 79.501l113 -22c-8 -50 -29.167 -91.5 -63.5 -124.5s-79.833 -51.5 -136.5 -55.5l-22 -38c4.66699 4 11.834 7.33301 21.501 10s19.5 4 29.5 4c24 0 43.5 -6.66699 58.5 -20s22.5 -31.333 22.5 -54 c0 -28 -11.833 -51 -35.5 -69s-53.5 -27 -89.5 -27c-53.333 0 -89.666 19.667 -108.999 59l72 19c8 -17.333 21.333 -26 40 -26c11.333 0 21 3.5 29 10.5s12 16.833 12 29.5c0 12 -3.83301 21.333 -11.5 28s-16.834 10 -27.501 10c-14.667 0 -26 -5 -34 -15l-49 13l33 68 c-64 8.66699 -113.833 37 -149.5 85s-53.5 106.667 -53.5 176c0 78 21.167 140.833 63.5 188.5s103.166 71.5 182.499 71.5c60 0 109.5 -15.667 148.5 -47s62.167 -75 69.5 -131l-117 -18c-4.66699 33.333 -16 58.833 -34 76.5s-42.333 26.5 -73 26.5 c-38.667 0 -68.167 -14.667 -88.5 -44s-30.5 -69.333 -30.5 -120c0 -52.667 10.333 -94.334 31 -125.001s51 -46 91 -46c30.667 0 54.834 9.16699 72.501 27.5z"/>
    <glyph glyph-name="egrave" unicode="è" d="M530 223l-341 -0.00390625c0 -41.333 11.667 -75.166 35 -101.499s54.333 -39.5 93 -39.5c50.667 0 90 26.333 118 79l94 -46c-21.333 -41.333 -50 -72.833 -86 -94.5s-78 -32.5 -126 -32.5c-80 0 -141 23.833 -183 71.5s-63 112.834 -63 195.501 c0 51.333 9.66699 96.5 29 135.5s46.833 69 82.5 90s77.5 31.5 125.5 31.5c74.667 0 130.667 -22.667 168 -68s56 -105.666 56 -180.999c0 -9.33301 -0.666992 -22.666 -2 -39.999zM386.5 393.496c-18.333 24.333 -45.5 36.5 -81.5 36.5 c-36.667 0 -65.334 -12.833 -86.001 -38.5s-31 -56.5 -31 -92.5h225c0.666992 38.667 -8.16602 70.167 -26.499 94.5zM261 571.996l-118 151h132l82 -151h-96z"/>
    <glyph glyph-name="eacute" unicode="é" d="M530 223l-341 -0.00390625c0 -41.333 11.667 -75.166 35 -101.499s54.333 -39.5 93 -39.5c50.667 0 90 26.333 118 79l94 -46c-21.333 -41.333 -50 -72.833 -86 -94.5s-78 -32.5 -126 -32.5c-80 0 -141 23.833 -183 71.5s-63 112.834 -63 195.501 c0 51.333 9.66699 96.5 29 135.5s46.833 69 82.5 90s77.5 31.5 125.5 31.5c74.667 0 130.667 -22.667 168 -68s56 -105.666 56 -180.999c0 -9.33301 -0.666992 -22.666 -2 -39.999zM386.5 393.496c-18.333 24.333 -45.5 36.5 -81.5 36.5 c-36.667 0 -65.334 -12.833 -86.001 -38.5s-31 -56.5 -31 -92.5h225c0.666992 38.667 -8.16602 70.167 -26.499 94.5zM344 722.996h132l-118 -151h-96z"/>
    <glyph glyph-name="ecircumflex" unicode="ê" d="M530 223l-341 -0.00390625c0 -41.333 11.667 -75.166 35 -101.499s54.333 -39.5 93 -39.5c50.667 0 90 26.333 118 79l94 -46c-21.333 -41.333 -50 -72.833 -86 -94.5s-78 -32.5 -126 -32.5c-80 0 -141 23.833 -183 71.5s-63 112.834 -63 195.501 c0 51.333 9.66699 96.5 29 135.5s46.833 69 82.5 90s77.5 31.5 125.5 31.5c74.667 0 130.667 -22.667 168 -68s56 -105.666 56 -180.999c0 -9.33301 -0.666992 -22.666 -2 -39.999zM386.5 393.496c-18.333 24.333 -45.5 36.5 -81.5 36.5 c-36.667 0 -65.334 -12.833 -86.001 -38.5s-31 -56.5 -31 -92.5h225c0.666992 38.667 -8.16602 70.167 -26.499 94.5zM375 571.996l-65 96l-65 -96h-98l101 151h124l101 -151h-98z"/>
    <glyph glyph-name="edieresis" unicode="ë" d="M530 223l-341 -0.00390625c0 -41.333 11.667 -75.166 35 -101.499s54.333 -39.5 93 -39.5c50.667 0 90 26.333 118 79l94 -46c-21.333 -41.333 -50 -72.833 -86 -94.5s-78 -32.5 -126 -32.5c-80 0 -141 23.833 -183 71.5s-63 112.834 -63 195.501 c0 51.333 9.66699 96.5 29 135.5s46.833 69 82.5 90s77.5 31.5 125.5 31.5c74.667 0 130.667 -22.667 168 -68s56 -105.666 56 -180.999c0 -9.33301 -0.666992 -22.666 -2 -39.999zM386.5 393.496c-18.333 24.333 -45.5 36.5 -81.5 36.5 c-36.667 0 -65.334 -12.833 -86.001 -38.5s-31 -56.5 -31 -92.5h225c0.666992 38.667 -8.16602 70.167 -26.499 94.5zM274 587.996h-135v135h135v-135zM481 587.996h-135v135h135v-135z"/>
    <glyph glyph-name="igrave" unicode="ì" d="M113 90h156v320h-141v90h258v-410h164v-90h-437v90zM269 572l-118 151h132l82 -151h-96z"/>
    <glyph glyph-name="iacute" unicode="í" d="M113 90h156v320h-141v90h258v-410h164v-90h-437v90zM352 723h132l-118 -151h-96z"/>
    <glyph glyph-name="icircumflex" unicode="î" d="M113 90h156v320h-141v90h258v-410h164v-90h-437v90zM383 572l-65 96l-65 -96h-98l101 151h124l101 -151h-98z"/>
    <glyph glyph-name="idieresis" unicode="ï" d="M113 90h156v320h-141v90h258v-410h164v-90h-437v90zM282 588h-135v135h135v-135zM489 588h-135v135h135v-135z"/>
    <glyph glyph-name="eth" unicode="ð" d="M515 456c19.333 -58 29.002 -120.331 29.002 -186.998c0 -56.667 -10.333 -106.334 -31 -149.001s-49.834 -75.5 -87.501 -98.5s-80.834 -34.5 -129.501 -34.5c-72.667 0 -128.667 23.5 -168 70.5s-59 110.833 -59 191.5c0 78 18.5 140.833 55.5 188.5 s87.833 71.5 152.5 71.5c54 0 95.667 -24.333 125 -73c-16.667 50.667 -43 96.667 -79 138l-139 -43l-20 52l113 35c-21.333 18.667 -46 34.667 -74 48l94 56c34 -16.667 65.667 -39.334 95 -68.001l82 26l19 -53l-59 -18c34.667 -44 61.667 -95 81 -153zM391.002 126.002 c18.667 30.667 28.001 72.333 28.001 125c0 51.333 -9.33301 92.333 -28 123s-47.334 46 -86.001 46c-38 0 -66.5 -15.667 -85.5 -47s-28.5 -72.333 -28.5 -123c0 -50 9.33301 -90.833 28 -122.5s47 -47.5 85 -47.5c39.333 0 68.333 15.333 87 46z"/>
    <glyph glyph-name="ntilde" unicode="ñ" d="M265.5 482c27.667 20 60.833 30.001 99.5 30.001c48.667 0 87 -13.667 115 -41c16.667 -16 29 -36.833 37 -62.5s12 -58.834 12 -99.501v-309h-118v296c0 79.333 -29.333 119 -88 119c-40.667 0 -70 -14.667 -88 -44s-27 -63 -27 -101v-270h-117v500h112v-97 c14 32.667 34.833 59 62.5 79zM283.499 719.001c13 -6 27.834 -14.998 44.501 -26.998c11.333 -8.66699 21.166 -15.167 29.499 -19.5s17.166 -6.5 26.499 -6.5c12 0 22.5 5 31.5 15s15.5 24.667 19.5 44l71 -17c-10.667 -44.667 -27 -77 -49 -97s-47.333 -30 -76 -30 c-16.667 0 -31.167 3 -43.5 9s-25.5 14.333 -39.5 25c-12.667 9.33301 -23.167 16.166 -31.5 20.499s-18.166 6.5 -29.499 6.5c-13.333 0 -24.5 -4.83301 -33.5 -14.5s-14.833 -22.834 -17.5 -39.501l-74 16c8 42.667 23.667 74 47 94s49.333 30 78 30c18 0 33.5 -3 46.5 -9 z"/>
    <glyph glyph-name="ograve" unicode="ò" d="M184 20c-36.667 21.333 -65.334 51.668 -86.001 91.001s-31 85.666 -31 138.999s10.333 99.833 31 139.5s49.334 70 86.001 91s78.667 31.5 126 31.5s89.333 -10.5 126 -31.5s65.334 -51.333 86.001 -91s31 -86.167 31 -139.5s-10.333 -99.833 -31 -139.5 s-49.334 -70 -86.001 -91s-78.667 -31.5 -126 -31.5s-89.333 10.667 -126 32zM399 124.502c21.333 29.667 32 71.5 32 125.5s-10.667 95.833 -32 125.5s-51 44.5 -89 44.5s-67.667 -14.833 -89 -44.5s-32 -71.5 -32 -125.5s10.667 -95.833 32 -125.5s51 -44.5 89 -44.5 s67.667 14.833 89 44.5zM261 572.002l-118 151h132l82 -151h-96z"/>
    <glyph glyph-name="oacute" unicode="ó" d="M184 20c-36.667 21.333 -65.334 51.668 -86.001 91.001s-31 85.666 -31 138.999s10.333 99.833 31 139.5s49.334 70 86.001 91s78.667 31.5 126 31.5s89.333 -10.5 126 -31.5s65.334 -51.333 86.001 -91s31 -86.167 31 -139.5s-10.333 -99.833 -31 -139.5 s-49.334 -70 -86.001 -91s-78.667 -31.5 -126 -31.5s-89.333 10.667 -126 32zM399 124.502c21.333 29.667 32 71.5 32 125.5s-10.667 95.833 -32 125.5s-51 44.5 -89 44.5s-67.667 -14.833 -89 -44.5s-32 -71.5 -32 -125.5s10.667 -95.833 32 -125.5s51 -44.5 89 -44.5 s67.667 14.833 89 44.5zM344 723.002h132l-118 -151h-96z"/>
    <glyph glyph-name="ocircumflex" unicode="ô" d="M184 20c-36.667 21.333 -65.334 51.668 -86.001 91.001s-31 85.666 -31 138.999s10.333 99.833 31 139.5s49.334 70 86.001 91s78.667 31.5 126 31.5s89.333 -10.5 126 -31.5s65.334 -51.333 86.001 -91s31 -86.167 31 -139.5s-10.333 -99.833 -31 -139.5 s-49.334 -70 -86.001 -91s-78.667 -31.5 -126 -31.5s-89.333 10.667 -126 32zM399 124.502c21.333 29.667 32 71.5 32 125.5s-10.667 95.833 -32 125.5s-51 44.5 -89 44.5s-67.667 -14.833 -89 -44.5s-32 -71.5 -32 -125.5s10.667 -95.833 32 -125.5s51 -44.5 89 -44.5 s67.667 14.833 89 44.5zM375 572.002l-65 96l-65 -96h-98l101 151h124l101 -151h-98z"/>
    <glyph glyph-name="otilde" unicode="õ" d="M184 20c-36.667 21.333 -65.334 51.668 -86.001 91.001s-31 85.666 -31 138.999s10.333 99.833 31 139.5s49.334 70 86.001 91s78.667 31.5 126 31.5s89.333 -10.5 126 -31.5s65.334 -51.333 86.001 -91s31 -86.167 31 -139.5s-10.333 -99.833 -31 -139.5 s-49.334 -70 -86.001 -91s-78.667 -31.5 -126 -31.5s-89.333 10.667 -126 32zM399 124.502c21.333 29.667 32 71.5 32 125.5s-10.667 95.833 -32 125.5s-51 44.5 -89 44.5s-67.667 -14.833 -89 -44.5s-32 -71.5 -32 -125.5s10.667 -95.833 32 -125.5s51 -44.5 89 -44.5 s67.667 14.833 89 44.5zM283.5 719.002c13 -6 27.834 -14.998 44.501 -26.998c11.333 -8.66699 21.166 -15.167 29.499 -19.5s17.166 -6.5 26.499 -6.5c12 0 22.5 5 31.5 15s15.5 24.667 19.5 44l71 -17c-10.667 -44.667 -27 -77 -49 -97s-47.333 -30 -76 -30 c-16.667 0 -31.167 3 -43.5 9s-25.5 14.333 -39.5 25c-12.667 9.33301 -23.167 16.166 -31.5 20.499s-18.166 6.5 -29.499 6.5c-13.333 0 -24.5 -4.83301 -33.5 -14.5s-14.833 -22.834 -17.5 -39.501l-74 16c8 42.667 23.667 74 47 94s49.333 30 78 30c18 0 33.5 -3 46.5 -9 z"/>
    <glyph glyph-name="odieresis" unicode="ö" d="M184 20c-36.667 21.333 -65.334 51.668 -86.001 91.001s-31 85.666 -31 138.999s10.333 99.833 31 139.5s49.334 70 86.001 91s78.667 31.5 126 31.5s89.333 -10.5 126 -31.5s65.334 -51.333 86.001 -91s31 -86.167 31 -139.5s-10.333 -99.833 -31 -139.5 s-49.334 -70 -86.001 -91s-78.667 -31.5 -126 -31.5s-89.333 10.667 -126 32zM399 124.502c21.333 29.667 32 71.5 32 125.5s-10.667 95.833 -32 125.5s-51 44.5 -89 44.5s-67.667 -14.833 -89 -44.5s-32 -71.5 -32 -125.5s10.667 -95.833 32 -125.5s51 -44.5 89 -44.5 s67.667 14.833 89 44.5zM274 588.002h-135v135h135v-135zM481 588.002h-135v135h135v-135z"/>
    <glyph glyph-name="divide" unicode="÷" d="M267.5 466.5c-11 11 -16.5 25.167 -16.5 42.5c0 18 5.5 32.5 16.5 43.5s25.167 16.5 42.5 16.5s31.666 -5.5 42.999 -16.5s17 -25.5 17 -43.5c0 -17.333 -5.66699 -31.5 -17 -42.5s-25.666 -16.5 -42.999 -16.5s-31.5 5.5 -42.5 16.5zM73 372h474v-90h-474v90z M267.5 99.5c-11 11 -16.5 25.499 -16.5 43.499s5.5 32.5 16.5 43.5s25.167 16.5 42.5 16.5s31.666 -5.5 42.999 -16.5s17 -25.5 17 -43.5c0 -17.333 -5.66699 -31.666 -17 -42.999s-25.666 -17 -42.999 -17s-31.5 5.5 -42.5 16.5z"/>
    <glyph glyph-name="oslash" unicode="ø" d="M536.5 355.5c11 -31.667 16.501 -66.833 16.501 -105.5c0 -53.333 -10.333 -99.833 -31 -139.5s-49.334 -70 -86.001 -91s-78.667 -31.5 -126 -31.5c-55.333 0 -103 14.333 -143 43l-38 -47l-38 28l40 50c-42.667 49.333 -64 112 -64 188 c0 53.333 10.333 99.833 31 139.5s49.334 70 86.001 91s78.667 31.5 126 31.5c57.333 0 105.666 -14.667 144.999 -44l36 45l38 -28l-39 -49c20 -22 35.5 -48.833 46.5 -80.5zM205.001 154.001l185.001 233c-20.667 22 -47.334 33 -80.001 33 c-38 0 -67.667 -14.833 -89 -44.5s-32 -71.5 -32 -125.5c0 -38.667 5.33301 -70.667 16 -96zM399.002 124.501c21.333 29.667 32 71.5 32 125.5c0 37.333 -5 68.333 -15 93l-185 -231c20 -21.333 46.333 -32 79 -32c38 0 67.667 14.833 89 44.5z"/>
    <glyph glyph-name="ugrave" unicode="ù" d="M350 19c-28 -20.667 -59 -31.001 -93 -31.001c-52 0 -93 14 -123 42c-16 15.333 -27.667 35.333 -35 60s-11 56.334 -11 95.001v315h119v-303c0 -76.667 29.333 -115 88 -115c38 0 65.5 14.667 82.5 44s25.5 63 25.5 101v273h118v-500h-111v92 c-12 -28 -32 -52.333 -60 -73zM258 571.999l-118 151h132l82 -151h-96z"/>
    <glyph glyph-name="uacute" unicode="ú" d="M350 19c-28 -20.667 -59 -31.001 -93 -31.001c-52 0 -93 14 -123 42c-16 15.333 -27.667 35.333 -35 60s-11 56.334 -11 95.001v315h119v-303c0 -76.667 29.333 -115 88 -115c38 0 65.5 14.667 82.5 44s25.5 63 25.5 101v273h118v-500h-111v92 c-12 -28 -32 -52.333 -60 -73zM341 722.999h132l-118 -151h-96z"/>
    <glyph glyph-name="ucircumflex" unicode="û" d="M350 19c-28 -20.667 -59 -31.001 -93 -31.001c-52 0 -93 14 -123 42c-16 15.333 -27.667 35.333 -35 60s-11 56.334 -11 95.001v315h119v-303c0 -76.667 29.333 -115 88 -115c38 0 65.5 14.667 82.5 44s25.5 63 25.5 101v273h118v-500h-111v92 c-12 -28 -32 -52.333 -60 -73zM372 571.999l-65 96l-65 -96h-98l101 151h124l101 -151h-98z"/>
    <glyph glyph-name="udieresis" unicode="ü" d="M350 19c-28 -20.667 -59 -31.001 -93 -31.001c-52 0 -93 14 -123 42c-16 15.333 -27.667 35.333 -35 60s-11 56.334 -11 95.001v315h119v-303c0 -76.667 29.333 -115 88 -115c38 0 65.5 14.667 82.5 44s25.5 63 25.5 101v273h118v-500h-111v92 c-12 -28 -32 -52.333 -60 -73zM271 587.999h-135v135h135v-135zM478 587.999h-135v135h135v-135z"/>
    <glyph glyph-name="yacute" unicode="ý" d="M320 116l118 384.001h124l-191 -528c-22.667 -64 -51.667 -108.833 -87 -134.5s-79.333 -38.5 -132 -38.5c-22.667 0 -41 1.66699 -55 5v93c16 -2 31.333 -3 46 -3c27.333 0 49.333 6.16699 66 18.5s29.667 33.166 39 62.499l10 30l-192 495h133zM344 723.001h132 l-118 -151h-96z"/>
    <glyph glyph-name="thorn" unicode="þ" d="M215 422c15.333 28.667 36.167 51 62.5 67s56.166 24 89.499 24c41.333 0 77 -11.5 107 -34.5s52.833 -54.333 68.5 -94s23.5 -84.5 23.5 -134.5s-7.83301 -94.833 -23.5 -134.5s-38.667 -71 -69 -94s-66.5 -34.5 -108.5 -34.5c-33.333 0 -62.666 7.16699 -87.999 21.5 s-46 34.833 -62 61.5v-265h-117v920h117v-303zM243.001 121.5c20.667 -27.667 49.334 -41.5 86.001 -41.5c35.333 0 63.333 16 84 48s31 72.667 31 122s-10.333 90 -31 122s-48.667 48 -84 48c-36.667 0 -65.334 -13.667 -86.001 -41s-31 -66 -31 -116v-28 c0 -48 10.333 -85.833 31 -113.5z"/>
    <glyph glyph-name="ydieresis" unicode="ÿ" d="M320 116l118 384.001h124l-191 -528c-22.667 -64 -51.667 -108.833 -87 -134.5s-79.333 -38.5 -132 -38.5c-22.667 0 -41 1.66699 -55 5v93c16 -2 31.333 -3 46 -3c27.333 0 49.333 6.16699 66 18.5s29.667 33.166 39 62.499l10 30l-192 495h133zM274 588.001h-135v135 h135v-135zM481 588.001h-135v135h135v-135z"/>
    <glyph glyph-name="Amacron" unicode="Ā" d="M475 768h-330v81h330v-81zM422 181h-225l-51 -181h-121l214 710h142l214 -710h-121zM225 280h169c-38 128.667 -65.333 238 -82 328h-4c-15.333 -84 -43 -193.333 -83 -328z"/>
    <glyph glyph-name="amacron" unicode="ā" d="M529 0h-117.998c-3.33301 19.333 -6.33301 49 -9 89c-29.333 -67.333 -84.666 -101 -165.999 -101c-48.667 0 -88.334 13.5 -119.001 40.5s-46 62.167 -46 105.5c0 50.667 20.667 89 62 115c31.333 19.333 85.666 34 162.999 44l98 14v15c0 36 -7 62.5 -21 79.5 s-36.333 25.5 -67 25.5c-29.333 0 -52.333 -7.5 -69 -22.5s-26 -36.5 -28 -64.5h-123c4.66699 54.667 26.667 97 66 127s92.666 45 159.999 45c69.333 0 120.333 -16.667 153 -50s49 -85.333 49 -156v-151c0 -69.333 5 -121 15 -155zM303.002 224 c-38.667 -6 -66.499 -15.166 -83.499 -27.499s-25.5 -29.5 -25.5 -51.5c0 -22.667 7.16699 -40.334 21.5 -53.001s34.166 -19 59.499 -19c36.667 0 66.167 12 88.5 36s33.5 56 33.5 96v33zM153.003 670.001h314v-82h-314v82z"/>
    <glyph glyph-name="Abreve" unicode="Ă" d="M194.5 796c-31.667 22 -49.5029 54.001 -53.5029 96.001h93c2 -16.667 9.66699 -30.334 23 -41.001s31 -16 53 -16s39.833 5.33301 53.5 16s21.834 24.334 24.501 41.001h92c-5.33301 -42.667 -23.666 -74.834 -54.999 -96.501s-69.666 -32.5 -114.999 -32.5 s-83.833 11 -115.5 33zM421.997 181.001h-225l-51 -181h-121l214 710h142l214 -710h-121zM224.997 280.001h169c-38 128.667 -65.333 238 -82 328h-4c-15.333 -84 -43 -193.333 -83 -328z"/>
    <glyph glyph-name="abreve" unicode="ă" d="M529 0h-117.998c-3.33301 19.333 -6.33301 49 -9 89c-29.333 -67.333 -84.666 -101 -165.999 -101c-48.667 0 -88.334 13.5 -119.001 40.5s-46 62.167 -46 105.5c0 50.667 20.667 89 62 115c31.333 19.333 85.666 34 162.999 44l98 14v15c0 36 -7 62.5 -21 79.5 s-36.333 25.5 -67 25.5c-29.333 0 -52.333 -7.5 -69 -22.5s-26 -36.5 -28 -64.5h-123c4.66699 54.667 26.667 97 66 127s92.666 45 159.999 45c69.333 0 120.333 -16.667 153 -50s49 -85.333 49 -156v-151c0 -69.333 5 -121 15 -155zM303.002 224 c-38.667 -6 -66.499 -15.166 -83.499 -27.499s-25.5 -29.5 -25.5 -51.5c0 -22.667 7.16699 -40.334 21.5 -53.001s34.166 -19 59.499 -19c36.667 0 66.167 12 88.5 36s33.5 56 33.5 96v33zM257.503 662.501c13.667 -15 31.167 -22.5 52.5 -22.5s38.833 7.5 52.5 22.5 s20.834 35.167 21.501 60.5h90c-3.33301 -52.667 -20.333 -91.834 -51 -117.501s-68.334 -38.5 -113.001 -38.5s-82.334 12.833 -113.001 38.5s-47.667 64.834 -51 117.501h90c0.666992 -25.333 7.83398 -45.5 21.501 -60.5z"/>
    <glyph glyph-name="Aogonek" unicode="Ą" d="M422 181h-225l-51 -181h-121l214 710h142l214 -710h-121zM225 280h169c-38 128.667 -65.333 238 -82 328h-4c-15.333 -84 -43 -193.333 -83 -328zM587.5 -184c-23 -14 -51.1641 -20.999 -84.4971 -20.999c-30.667 0 -56.334 8 -77.001 24s-31 38.333 -31 67 c0 46.667 29 84.667 87 114h113c-40.667 -11.333 -70.834 -26.333 -90.501 -45s-29.5 -37.667 -29.5 -57c0 -13.333 3.66699 -24.5 11 -33.5s16.666 -13.5 27.999 -13.5c12 0 22 4.16699 30 12.5s13.667 19.166 17 32.499l68 -17c-4.66699 -28 -18.5 -49 -41.5 -63z"/>
    <glyph glyph-name="aogonek" unicode="ą" d="M563 -121c-4.66699 -28 -18.4951 -48.999 -41.4951 -62.999s-51.167 -21 -84.5 -21c-30.667 0 -56.334 8 -77.001 24s-31 38.333 -31 67c0 46.667 29 84.667 87 114h-5c-3.33301 19.333 -6.33301 49 -9 89c-29.333 -67.333 -84.666 -101 -165.999 -101 c-48.667 0 -88.334 13.5 -119.001 40.5s-46 62.167 -46 105.5c0 50.667 20.667 89 62 115c31.333 19.333 85.666 34 162.999 44l98 14v15c0 36 -7 62.5 -21 79.5s-36.333 25.5 -67 25.5c-29.333 0 -52.333 -7.5 -69 -22.5s-26 -36.5 -28 -64.5h-123 c4.66699 54.667 26.667 97 66 127s92.666 45 159.999 45c69.333 0 120.333 -16.667 153 -50s49 -85.333 49 -156v-151c0 -69.333 5 -121 15 -155c-40.667 -11.333 -70.834 -26.333 -90.501 -45s-29.5 -37.667 -29.5 -57c0 -13.333 3.66699 -24.5 11 -33.5 s16.666 -13.5 27.999 -13.5c12 0 22 4.16699 30 12.5s13.667 19.166 17 32.499zM397.005 238.001l-93.999 -13.999c-38.667 -6 -66.5 -15.167 -83.5 -27.5s-25.5 -29.5 -25.5 -51.5c0 -22.667 7.16699 -40.334 21.5 -53.001s34.166 -19 59.499 -19 c36.667 0 66.167 12 88.5 36s33.5 56 33.5 96v33z"/>
    <glyph glyph-name="Cacute" unicode="Ć" d="M331 892h138l-109 -122h-100zM114 71c-44 58.667 -65.999 141 -65.999 247v74c0 105.333 22.667 187.5 68 246.5s111.666 88.5 198.999 88.5c77.333 0 138 -21.333 182 -64s69.333 -107 76 -193l-123 -19c-3.33301 56 -16.5 99 -39.5 129s-55.167 45 -96.5 45 c-48 0 -83.333 -19 -106 -57s-34 -96 -34 -174v-71c0 -78 11.667 -137.167 35 -177.5s58.333 -60.5 105 -60.5c42 0 74.333 14.833 97 44.5s35.667 73.167 39 130.5l122 -23c-5.33301 -77.333 -30.5 -139 -75.5 -185s-107.5 -69 -187.5 -69c-86 0 -151 29.333 -195 88z"/>
    <glyph glyph-name="cacute" unicode="ć" d="M179.5 22.5c-36.333 23 -63.999 54.501 -82.999 94.501s-28.5 85 -28.5 135c0 78 21.167 140.833 63.5 188.5s103.166 71.5 182.499 71.5c60 0 109.5 -15.667 148.5 -47s62.167 -75 69.5 -131l-117 -18c-4.66699 33.333 -16 58.833 -34 76.5s-42.333 26.5 -73 26.5 c-38.667 0 -68.167 -14.667 -88.5 -44s-30.5 -69.333 -30.5 -120c0 -52.667 10.333 -94.334 31 -125.001s51 -46 91 -46c30.667 0 54.834 9.16699 72.501 27.5s29.167 44.833 34.5 79.5l113 -22c-8.66699 -52.667 -31.834 -96 -69.501 -130s-87.834 -51 -150.501 -51 c-51.333 0 -95.166 11.5 -131.499 34.5zM344.001 723.001h132l-118 -151h-96z"/>
    <glyph glyph-name="Ccircumflex" unicode="Ĉ" d="M376 770l-67 71l-66 -71h-99l101 122h131l100 -122h-100zM114 71c-44 58.667 -65.999 141 -65.999 247v74c0 105.333 22.667 187.5 68 246.5s111.666 88.5 198.999 88.5c77.333 0 138 -21.333 182 -64s69.333 -107 76 -193l-123 -19c-3.33301 56 -16.5 99 -39.5 129 s-55.167 45 -96.5 45c-48 0 -83.333 -19 -106 -57s-34 -96 -34 -174v-71c0 -78 11.667 -137.167 35 -177.5s58.333 -60.5 105 -60.5c42 0 74.333 14.833 97 44.5s35.667 73.167 39 130.5l122 -23c-5.33301 -77.333 -30.5 -139 -75.5 -185s-107.5 -69 -187.5 -69 c-86 0 -151 29.333 -195 88z"/>
    <glyph glyph-name="ccircumflex" unicode="ĉ" d="M179.5 22.5c-36.333 23 -63.999 54.501 -82.999 94.501s-28.5 85 -28.5 135c0 78 21.167 140.833 63.5 188.5s103.166 71.5 182.499 71.5c60 0 109.5 -15.667 148.5 -47s62.167 -75 69.5 -131l-117 -18c-4.66699 33.333 -16 58.833 -34 76.5s-42.333 26.5 -73 26.5 c-38.667 0 -68.167 -14.667 -88.5 -44s-30.5 -69.333 -30.5 -120c0 -52.667 10.333 -94.334 31 -125.001s51 -46 91 -46c30.667 0 54.834 9.16699 72.501 27.5s29.167 44.833 34.5 79.5l113 -22c-8.66699 -52.667 -31.834 -96 -69.501 -130s-87.834 -51 -150.501 -51 c-51.333 0 -95.166 11.5 -131.499 34.5zM375.001 572.001l-65 96l-65 -96h-98l101 151h124l101 -151h-98z"/>
    <glyph glyph-name="Cdotaccent" unicode="Ċ" d="M375 768h-130v124h130v-124zM114 71c-44 58.667 -65.999 141 -65.999 247v74c0 105.333 22.667 187.5 68 246.5s111.666 88.5 198.999 88.5c77.333 0 138 -21.333 182 -64s69.333 -107 76 -193l-123 -19c-3.33301 56 -16.5 99 -39.5 129s-55.167 45 -96.5 45 c-48 0 -83.333 -19 -106 -57s-34 -96 -34 -174v-71c0 -78 11.667 -137.167 35 -177.5s58.333 -60.5 105 -60.5c42 0 74.333 14.833 97 44.5s35.667 73.167 39 130.5l122 -23c-5.33301 -77.333 -30.5 -139 -75.5 -185s-107.5 -69 -187.5 -69c-86 0 -151 29.333 -195 88z"/>
    <glyph glyph-name="cdotaccent" unicode="ċ" d="M179.5 22.5c-36.333 23 -63.999 54.501 -82.999 94.501s-28.5 85 -28.5 135c0 78 21.167 140.833 63.5 188.5s103.166 71.5 182.499 71.5c60 0 109.5 -15.667 148.5 -47s62.167 -75 69.5 -131l-117 -18c-4.66699 33.333 -16 58.833 -34 76.5s-42.333 26.5 -73 26.5 c-38.667 0 -68.167 -14.667 -88.5 -44s-30.5 -69.333 -30.5 -120c0 -52.667 10.333 -94.334 31 -125.001s51 -46 91 -46c30.667 0 54.834 9.16699 72.501 27.5s29.167 44.833 34.5 79.5l113 -22c-8.66699 -52.667 -31.834 -96 -69.501 -130s-87.834 -51 -150.501 -51 c-51.333 0 -95.166 11.5 -131.499 34.5zM383.001 584.001h-146v138h146v-138z"/>
    <glyph glyph-name="Ccaron" unicode="Č" d="M244 892l67 -71l66 71h99l-101 -122h-131l-100 122h100zM114 71c-44 58.667 -65.999 141 -65.999 247v74c0 105.333 22.667 187.5 68 246.5s111.666 88.5 198.999 88.5c77.333 0 138 -21.333 182 -64s69.333 -107 76 -193l-123 -19c-3.33301 56 -16.5 99 -39.5 129 s-55.167 45 -96.5 45c-48 0 -83.333 -19 -106 -57s-34 -96 -34 -174v-71c0 -78 11.667 -137.167 35 -177.5s58.333 -60.5 105 -60.5c42 0 74.333 14.833 97 44.5s35.667 73.167 39 130.5l122 -23c-5.33301 -77.333 -30.5 -139 -75.5 -185s-107.5 -69 -187.5 -69 c-86 0 -151 29.333 -195 88z"/>
    <glyph glyph-name="ccaron" unicode="č" d="M179.5 22.5c-36.333 23 -63.999 54.501 -82.999 94.501s-28.5 85 -28.5 135c0 78 21.167 140.833 63.5 188.5s103.166 71.5 182.499 71.5c60 0 109.5 -15.667 148.5 -47s62.167 -75 69.5 -131l-117 -18c-4.66699 33.333 -16 58.833 -34 76.5s-42.333 26.5 -73 26.5 c-38.667 0 -68.167 -14.667 -88.5 -44s-30.5 -69.333 -30.5 -120c0 -52.667 10.333 -94.334 31 -125.001s51 -46 91 -46c30.667 0 54.834 9.16699 72.501 27.5s29.167 44.833 34.5 79.5l113 -22c-8.66699 -52.667 -31.834 -96 -69.501 -130s-87.834 -51 -150.501 -51 c-51.333 0 -95.166 11.5 -131.499 34.5zM245.001 723.001l65 -96l65 96h98l-101 -151h-124l-101 151h98z"/>
    <glyph glyph-name="Dcaron" unicode="Ď" d="M244 892l67 -71l66 71h99l-101 -122h-131l-100 122h100zM69 710h226.998c61.333 0 114 -14.5 158 -43.5s77.5 -70 100.5 -123s34.5 -114.167 34.5 -183.5c0 -70 -12.167 -132.333 -36.5 -187s-58.666 -97.167 -102.999 -127.5s-96.166 -45.5 -155.499 -45.5h-225v710z M285.998 98c56 0 99.5 24.166 130.5 72.499s46.5 111.5 46.5 189.5c0 76.667 -15 137.834 -45 183.501s-73.333 68.5 -130 68.5h-96v-514h94z"/>
    <glyph glyph-name="dcaron" unicode="ď" d="M73.5 58c-33 46 -49.5 110.667 -49.5 194c0 82 17.5 146 52.5 192s81.5 69 139.5 69c30 0 55.5 -7.16699 76.5 -21.5s37.167 -33.5 48.5 -57.5v292h111v-725h-105v90c-27.333 -68 -75 -102 -143 -102c-54 0 -97.5 23 -130.5 69zM496 545 c18.667 7.33301 30.667 15.832 36 25.499s8 24.834 8 45.501h-50v109h108v-102c0 -32 -5.66699 -58.667 -17 -80s-31.333 -37.333 -60 -48zM314.5 120.499c19 26.333 28.5 62.833 28.5 109.5v42c0 46.667 -9.33301 83.334 -28 110.001s-43.667 40 -75 40 c-32.667 0 -57.5 -14.333 -74.5 -43s-25.5 -71 -25.5 -127c0 -54.667 8.5 -96.834 25.5 -126.501s40.833 -44.5 71.5 -44.5c32.667 0 58.5 13.167 77.5 39.5z"/>
    <glyph glyph-name="Dcroat" unicode="Đ" d="M454 666.5c44 -29 77.498 -70 100.498 -123s34.5 -114.167 34.5 -183.5c0 -70 -12.167 -132.333 -36.5 -187s-58.666 -97.167 -102.999 -127.5s-96.166 -45.5 -155.499 -45.5h-225v325h-69v82h69v303h227c61.333 0 114 -14.5 158 -43.5zM416.498 170.5 c31 48.333 46.5 111.499 46.5 189.499c0 76.667 -15 137.834 -45 183.501s-73.333 68.5 -130 68.5h-96v-205h142v-82h-142v-227h94c56 0 99.5 24.167 130.5 72.5z"/>
    <glyph glyph-name="dcroat" unicode="đ" d="M584 579l-64.9971 -0.00195312v-579h-111v91c-30 -68.667 -82 -103 -156 -103c-40 0 -75.333 10.833 -106 32.5s-54.334 52.167 -71.001 91.5s-25 85.333 -25 138c0 52 8.66699 97.833 26 137.5s42.166 70.334 74.499 92.001s70.166 32.5 113.499 32.5 c32 0 60 -7.66699 84 -23s41.667 -35.666 53 -60.999v151h-250v54h250v92h118v-92h65v-54zM404.003 264.998c0 46.667 -10.332 84.168 -30.999 112.501s-48.334 42.5 -83.001 42.5c-37.333 0 -66.166 -14.833 -86.499 -44.5s-30.5 -71.167 -30.5 -124.5 c0 -52.667 10.167 -94.334 30.5 -125.001s48.166 -46 83.499 -46c36 0 64.5 14 85.5 42s31.5 65.667 31.5 113v30z"/>
    <glyph glyph-name="Emacron" unicode="Ē" d="M145 849h330v-81h-330v81zM526 609h-305v-196h288v-99h-288v-213h312v-101h-435v710h428v-101z"/>
    <glyph glyph-name="emacron" unicode="ē" d="M530 223l-341 -0.00390625c0 -41.333 11.667 -75.166 35 -101.499s54.333 -39.5 93 -39.5c50.667 0 90 26.333 118 79l94 -46c-21.333 -41.333 -50 -72.833 -86 -94.5s-78 -32.5 -126 -32.5c-80 0 -141 23.833 -183 71.5s-63 112.834 -63 195.501 c0 51.333 9.66699 96.5 29 135.5s46.833 69 82.5 90s77.5 31.5 125.5 31.5c74.667 0 130.667 -22.667 168 -68s56 -105.666 56 -180.999c0 -9.33301 -0.666992 -22.666 -2 -39.999zM386.5 393.496c-18.333 24.333 -45.5 36.5 -81.5 36.5 c-36.667 0 -65.334 -12.833 -86.001 -38.5s-31 -56.5 -31 -92.5h225c0.666992 38.667 -8.16602 70.167 -26.499 94.5zM153 669.996h314v-82h-314v82z"/>
    <glyph glyph-name="Ebreve" unicode="Ĕ" d="M257 851c13.333 -10.667 30.9971 -15.999 52.9971 -15.999s39.833 5.33301 53.5 16s21.834 24.334 24.501 41.001h92c-5.33301 -42.667 -23.666 -74.834 -54.999 -96.501s-69.666 -32.5 -114.999 -32.5s-83.833 11 -115.5 33s-49.5 54 -53.5 96h93 c2 -16.667 9.66699 -30.334 23 -41.001zM525.997 609.001h-305v-196h288v-99h-288v-213h312v-101h-435v710h428v-101z"/>
    <glyph glyph-name="ebreve" unicode="ĕ" d="M530 223l-341 -0.00390625c0 -41.333 11.667 -75.166 35 -101.499s54.333 -39.5 93 -39.5c50.667 0 90 26.333 118 79l94 -46c-21.333 -41.333 -50 -72.833 -86 -94.5s-78 -32.5 -126 -32.5c-80 0 -141 23.833 -183 71.5s-63 112.834 -63 195.501 c0 51.333 9.66699 96.5 29 135.5s46.833 69 82.5 90s77.5 31.5 125.5 31.5c74.667 0 130.667 -22.667 168 -68s56 -105.666 56 -180.999c0 -9.33301 -0.666992 -22.666 -2 -39.999zM386.5 393.496c-18.333 24.333 -45.5 36.5 -81.5 36.5 c-36.667 0 -65.334 -12.833 -86.001 -38.5s-31 -56.5 -31 -92.5h225c0.666992 38.667 -8.16602 70.167 -26.499 94.5zM257.5 662.496c13.667 -15 31.167 -22.5 52.5 -22.5s38.833 7.5 52.5 22.5s20.834 35.167 21.501 60.5h90 c-3.33301 -52.667 -20.333 -91.834 -51 -117.501s-68.334 -38.5 -113.001 -38.5s-82.334 12.833 -113.001 38.5s-47.667 64.834 -51 117.501h90c0.666992 -25.333 7.83398 -45.5 21.501 -60.5z"/>
    <glyph glyph-name="Edotaccent" unicode="Ė" d="M375 768h-130v124h130v-124zM526 609h-305v-196h288v-99h-288v-213h312v-101h-435v710h428v-101z"/>
    <glyph glyph-name="edotaccent" unicode="ė" d="M530 223l-341 -0.00390625c0 -41.333 11.667 -75.166 35 -101.499s54.333 -39.5 93 -39.5c50.667 0 90 26.333 118 79l94 -46c-21.333 -41.333 -50 -72.833 -86 -94.5s-78 -32.5 -126 -32.5c-80 0 -141 23.833 -183 71.5s-63 112.834 -63 195.501 c0 51.333 9.66699 96.5 29 135.5s46.833 69 82.5 90s77.5 31.5 125.5 31.5c74.667 0 130.667 -22.667 168 -68s56 -105.666 56 -180.999c0 -9.33301 -0.666992 -22.666 -2 -39.999zM386.5 393.496c-18.333 24.333 -45.5 36.5 -81.5 36.5 c-36.667 0 -65.334 -12.833 -86.001 -38.5s-31 -56.5 -31 -92.5h225c0.666992 38.667 -8.16602 70.167 -26.499 94.5zM383 583.996h-146v138h146v-138z"/>
    <glyph glyph-name="Eogonek" unicode="Ę" d="M526 609h-305v-196h288v-99h-288v-213h312v-101h-435v710h428v-101zM525.5 -184c-23 -14 -51.1641 -20.999 -84.4971 -20.999c-30.667 0 -56.334 8 -77.001 24s-31 38.333 -31 67c0 46.667 29 84.667 87 114h113c-40.667 -11.333 -70.834 -26.333 -90.501 -45 s-29.5 -37.667 -29.5 -57c0 -13.333 3.66699 -24.5 11 -33.5s16.666 -13.5 27.999 -13.5c12 0 22 4.16699 30 12.5s13.667 19.166 17 32.499l68 -17c-4.66699 -28 -18.5 -49 -41.5 -63z"/>
    <glyph glyph-name="eogonek" unicode="ę" d="M530 223l-340.997 -0.00195312c0 -41.333 11.667 -75.166 35 -101.499s54.333 -39.5 93 -39.5c50.667 0 90 26.333 118 79l94 -46c-32.667 -63.333 -81.334 -103 -146.001 -119c-36 -12 -62.667 -26.833 -80 -44.5s-26 -35.5 -26 -53.5c0 -13.333 3.66699 -24.5 11 -33.5 s16.666 -13.5 27.999 -13.5c12 0 22 4.16699 30 12.5s13.667 19.166 17 32.499l68 -17c-4.66699 -28 -18.5 -49 -41.5 -63s-51.167 -21 -84.5 -21c-30.667 0 -56.334 8 -77.001 24s-31 38.333 -31 67c0 42.667 23.667 77.667 71 105c-64.667 10 -113.667 38 -147 84 s-50 106 -50 180c0 51.333 9.66699 96.5 29 135.5s46.833 69 82.5 90s77.5 31.5 125.5 31.5c74.667 0 130.667 -22.667 168 -68s56 -105.666 56 -180.999c0 -9.33301 -0.666992 -22.666 -2 -39.999zM386.503 393.498c-18.333 24.333 -45.5 36.5 -81.5 36.5 c-36.667 0 -65.334 -12.833 -86.001 -38.5s-31 -56.5 -31 -92.5h225c0.666992 38.667 -8.16602 70.167 -26.499 94.5z"/>
    <glyph glyph-name="Ecaron" unicode="Ě" d="M244 892l67 -71l66 71h99l-101 -122h-131l-100 122h100zM526 609h-305v-196h288v-99h-288v-213h312v-101h-435v710h428v-101z"/>
    <glyph glyph-name="ecaron" unicode="ě" d="M530 223l-341 -0.00390625c0 -41.333 11.667 -75.166 35 -101.499s54.333 -39.5 93 -39.5c50.667 0 90 26.333 118 79l94 -46c-21.333 -41.333 -50 -72.833 -86 -94.5s-78 -32.5 -126 -32.5c-80 0 -141 23.833 -183 71.5s-63 112.834 -63 195.501 c0 51.333 9.66699 96.5 29 135.5s46.833 69 82.5 90s77.5 31.5 125.5 31.5c74.667 0 130.667 -22.667 168 -68s56 -105.666 56 -180.999c0 -9.33301 -0.666992 -22.666 -2 -39.999zM386.5 393.496c-18.333 24.333 -45.5 36.5 -81.5 36.5 c-36.667 0 -65.334 -12.833 -86.001 -38.5s-31 -56.5 -31 -92.5h225c0.666992 38.667 -8.16602 70.167 -26.499 94.5zM245 722.996l65 -96l65 96h98l-101 -151h-124l-101 151h98z"/>
    <glyph glyph-name="Gcircumflex" unicode="Ĝ" d="M376 770l-67 71l-66 -71h-99l101 122h131l100 -122h-100zM158 23c-36 26.667 -63.667 64.666 -83 113.999s-29 107.333 -29 174v91c0 102 23 181.667 69 239s111.667 86 197 86c56 0 101.667 -11.5 137 -34.5s61 -51.167 77 -84.5s25.333 -67.666 28 -102.999l-122 -20 c-2.66699 38.667 -13.667 72.167 -33 100.5s-49 42.5 -89 42.5c-45.333 0 -79.5 -17.833 -102.5 -53.5s-34.5 -96.834 -34.5 -183.501v-65c0 -80 11.167 -140.5 33.5 -181.5s57.5 -61.5 105.5 -61.5c48.667 0 83.667 17.833 105 53.5s32 74.834 32 117.501v31h-154v93h265 v-378h-85l-11 104c-31.333 -80.667 -91 -121 -179 -121c-48.667 0 -91 13.333 -127 40z"/>
    <glyph glyph-name="gcircumflex" unicode="ĝ" d="M248 595h-101l102 128h124l100 -128h-100l-63 82zM458 462c34.667 -30.667 52.0039 -70.332 52.0039 -118.999c0 -52 -19.167 -93.167 -57.5 -123.5s-87.833 -45.5 -148.5 -45.5c-34.667 0 -66 5 -94 15c-15.333 -8.66699 -23 -21.334 -23 -38.001c0 -30 26 -45 78 -45 l127 -1c56.667 -0.666992 99.667 -13.334 129 -38.001s44 -58.667 44 -102c0 -56 -23.5 -98.667 -70.5 -128s-112.5 -44 -196.5 -44c-74.667 0 -132.334 11.167 -173.001 33.5s-61 52.5 -61 90.5c0 25.333 8.16699 47 24.5 65s39.166 31 68.499 39 c-22.667 8.66699 -39.834 20.834 -51.501 36.501s-17.5 34.5 -17.5 56.5c0 23.333 6.66699 43.666 20 60.999s31.666 30.333 54.999 39c-40 31.333 -60 73.333 -60 126s19.167 94.5 57.5 125.5s87.166 46.5 146.499 46.5c38.667 0 73.334 -6.66699 104.001 -20 c9.33301 28.667 25.5 50.334 48.5 65.001s50.5 22 82.5 22c9.33301 0 18 -1 26 -3v-89l-18 3c-8 1.33301 -15.667 2 -23 2c-30 0 -53 -10 -69 -30zM371.504 275.002c17.667 17.333 26.5 40.334 26.5 69.001c0 28 -8.66699 50.5 -26 67.5s-39.333 25.5 -66 25.5 s-48.667 -8.66699 -66 -26s-26 -40.333 -26 -69s8.5 -51.334 25.5 -68.001s38.5 -25 64.5 -25c27.333 0 49.833 8.66699 67.5 26zM241.004 7.00293l-26 1.00098c-14 -6 -24.833 -14.5 -32.5 -25.5s-11.5 -23.5 -11.5 -37.5c0 -48.667 46 -73 138 -73 c95.333 0 143 25.333 143 76c0 19.333 -7.16699 33.666 -21.5 42.999s-36.5 14.333 -66.5 15z"/>
    <glyph glyph-name="Gbreve" unicode="Ğ" d="M257 851c13.333 -10.667 30.9971 -15.999 52.9971 -15.999s39.833 5.33301 53.5 16s21.834 24.334 24.501 41.001h92c-5.33301 -42.667 -23.666 -74.834 -54.999 -96.501s-69.666 -32.5 -114.999 -32.5s-83.833 11 -115.5 33s-49.5 54 -53.5 96h93 c2 -16.667 9.66699 -30.334 23 -41.001zM157.997 23.001c-36 26.667 -63.667 64.666 -83 113.999s-29 107.333 -29 174v91c0 102 23 181.667 69 239s111.667 86 197 86c56 0 101.667 -11.5 137 -34.5s61 -51.167 77 -84.5s25.333 -67.666 28 -102.999l-122 -20 c-2.66699 38.667 -13.667 72.167 -33 100.5s-49 42.5 -89 42.5c-45.333 0 -79.5 -17.833 -102.5 -53.5s-34.5 -96.834 -34.5 -183.501v-65c0 -80 11.167 -140.5 33.5 -181.5s57.5 -61.5 105.5 -61.5c48.667 0 83.667 17.833 105 53.5s32 74.834 32 117.501v31h-154v93h265 v-378h-85l-11 104c-31.333 -80.667 -91 -121 -179 -121c-48.667 0 -91 13.333 -127 40z"/>
    <glyph glyph-name="gbreve" unicode="ğ" d="M458 462c34.667 -30.667 52.0039 -70.332 52.0039 -118.999c0 -52 -19.167 -93.167 -57.5 -123.5s-87.833 -45.5 -148.5 -45.5c-34.667 0 -66 5 -94 15c-15.333 -8.66699 -23 -21.334 -23 -38.001c0 -30 26 -45 78 -45l127 -1 c56.667 -0.666992 99.667 -13.334 129 -38.001s44 -58.667 44 -102c0 -56 -23.5 -98.667 -70.5 -128s-112.5 -44 -196.5 -44c-74.667 0 -132.334 11.167 -173.001 33.5s-61 52.5 -61 90.5c0 25.333 8.16699 47 24.5 65s39.166 31 68.499 39 c-22.667 8.66699 -39.834 20.834 -51.501 36.501s-17.5 34.5 -17.5 56.5c0 23.333 6.66699 43.666 20 60.999s31.666 30.333 54.999 39c-40 31.333 -60 73.333 -60 126s19.167 94.5 57.5 125.5s87.166 46.5 146.499 46.5c38.667 0 73.334 -6.66699 104.001 -20 c9.33301 28.667 25.5 50.334 48.5 65.001s50.5 22 82.5 22c9.33301 0 18 -1 26 -3v-89l-18 3c-8 1.33301 -15.667 2 -23 2c-30 0 -53 -10 -69 -30zM371.504 275.002c17.667 17.333 26.5 40.334 26.5 69.001c0 28 -8.66699 50.5 -26 67.5s-39.333 25.5 -66 25.5 s-48.667 -8.66699 -66 -26s-26 -40.333 -26 -69s8.5 -51.334 25.5 -68.001s38.5 -25 64.5 -25c27.333 0 49.833 8.66699 67.5 26zM241.004 7.00293l-26 1.00098c-14 -6 -24.833 -14.5 -32.5 -25.5s-11.5 -23.5 -11.5 -37.5c0 -48.667 46 -73 138 -73 c95.333 0 143 25.333 143 76c0 19.333 -7.16699 33.666 -21.5 42.999s-36.5 14.333 -66.5 15zM257.504 662.504c13.667 -15 31.167 -22.5 52.5 -22.5s38.833 7.5 52.5 22.5s20.834 35.167 21.501 60.5h90c-3.33301 -52.667 -20.333 -91.834 -51 -117.501 s-68.334 -38.5 -113.001 -38.5s-82.334 12.833 -113.001 38.5s-47.667 64.834 -51 117.501h90c0.666992 -25.333 7.83398 -45.5 21.501 -60.5z"/>
    <glyph glyph-name="Gdotaccent" unicode="Ġ" d="M375 768h-130v124h130v-124zM158 23c-36 26.667 -63.667 64.666 -83 113.999s-29 107.333 -29 174v91c0 102 23 181.667 69 239s111.667 86 197 86c56 0 101.667 -11.5 137 -34.5s61 -51.167 77 -84.5s25.333 -67.666 28 -102.999l-122 -20 c-2.66699 38.667 -13.667 72.167 -33 100.5s-49 42.5 -89 42.5c-45.333 0 -79.5 -17.833 -102.5 -53.5s-34.5 -96.834 -34.5 -183.501v-65c0 -80 11.167 -140.5 33.5 -181.5s57.5 -61.5 105.5 -61.5c48.667 0 83.667 17.833 105 53.5s32 74.834 32 117.501v31h-154v93h265 v-378h-85l-11 104c-31.333 -80.667 -91 -121 -179 -121c-48.667 0 -91 13.333 -127 40z"/>
    <glyph glyph-name="gdotaccent" unicode="ġ" d="M458 462c34.667 -30.667 52.0039 -70.332 52.0039 -118.999c0 -52 -19.167 -93.167 -57.5 -123.5s-87.833 -45.5 -148.5 -45.5c-34.667 0 -66 5 -94 15c-15.333 -8.66699 -23 -21.334 -23 -38.001c0 -30 26 -45 78 -45l127 -1 c56.667 -0.666992 99.667 -13.334 129 -38.001s44 -58.667 44 -102c0 -56 -23.5 -98.667 -70.5 -128s-112.5 -44 -196.5 -44c-74.667 0 -132.334 11.167 -173.001 33.5s-61 52.5 -61 90.5c0 25.333 8.16699 47 24.5 65s39.166 31 68.499 39 c-22.667 8.66699 -39.834 20.834 -51.501 36.501s-17.5 34.5 -17.5 56.5c0 23.333 6.66699 43.666 20 60.999s31.666 30.333 54.999 39c-40 31.333 -60 73.333 -60 126s19.167 94.5 57.5 125.5s87.166 46.5 146.499 46.5c38.667 0 73.334 -6.66699 104.001 -20 c9.33301 28.667 25.5 50.334 48.5 65.001s50.5 22 82.5 22c9.33301 0 18 -1 26 -3v-89l-18 3c-8 1.33301 -15.667 2 -23 2c-30 0 -53 -10 -69 -30zM371.504 275.002c17.667 17.333 26.5 40.334 26.5 69.001c0 28 -8.66699 50.5 -26 67.5s-39.333 25.5 -66 25.5 s-48.667 -8.66699 -66 -26s-26 -40.333 -26 -69s8.5 -51.334 25.5 -68.001s38.5 -25 64.5 -25c27.333 0 49.833 8.66699 67.5 26zM241.004 7.00293l-26 1.00098c-14 -6 -24.833 -14.5 -32.5 -25.5s-11.5 -23.5 -11.5 -37.5c0 -48.667 46 -73 138 -73 c95.333 0 143 25.333 143 76c0 19.333 -7.16699 33.666 -21.5 42.999s-36.5 14.333 -66.5 15zM383.004 584.004h-146v138h146v-138z"/>
    <glyph glyph-name="Gcommaaccent" unicode="Ģ" d="M158 23c-36 26.667 -63.667 64.666 -83 113.999s-29 107.333 -29 174v91c0 102 23 181.667 69 239s111.667 86 197 86c56 0 101.667 -11.5 137 -34.5s61 -51.167 77 -84.5s25.333 -67.666 28 -102.999l-122 -20c-2.66699 38.667 -13.667 72.167 -33 100.5 s-49 42.5 -89 42.5c-45.333 0 -79.5 -17.833 -102.5 -53.5s-34.5 -96.834 -34.5 -183.501v-65c0 -80 11.167 -140.5 33.5 -181.5s57.5 -61.5 105.5 -61.5c48.667 0 83.667 17.833 105 53.5s32 74.834 32 117.501v31h-154v93h265v-378h-85l-11 104 c-31.333 -80.667 -91 -121 -179 -121c-48.667 0 -91 13.333 -127 40zM236 -180.001c24.667 6 41.5 12.8311 50.5 20.498s13.5 16.834 13.5 27.501h-73v96h135v-77c0 -29.333 -7.66699 -53.166 -23 -71.499s-42 -31.5 -80 -39.5z"/>
    <glyph glyph-name="gcommaaccent" unicode="ģ" d="M458 462c34.667 -30.667 52.0039 -70.332 52.0039 -118.999c0 -52 -19.167 -93.167 -57.5 -123.5s-87.833 -45.5 -148.5 -45.5c-34.667 0 -66 5 -94 15c-15.333 -8.66699 -23 -21.334 -23 -38.001c0 -30 26 -45 78 -45l127 -1 c56.667 -0.666992 99.667 -13.334 129 -38.001s44 -58.667 44 -102c0 -56 -23.5 -98.667 -70.5 -128s-112.5 -44 -196.5 -44c-74.667 0 -132.334 11.167 -173.001 33.5s-61 52.5 -61 90.5c0 25.333 8.16699 47 24.5 65s39.166 31 68.499 39 c-22.667 8.66699 -39.834 20.834 -51.501 36.501s-17.5 34.5 -17.5 56.5c0 23.333 6.66699 43.666 20 60.999s31.666 30.333 54.999 39c-40 31.333 -60 73.333 -60 126s19.167 94.5 57.5 125.5s87.166 46.5 146.499 46.5c38.667 0 73.334 -6.66699 104.001 -20 c9.33301 28.667 25.5 50.334 48.5 65.001s50.5 22 82.5 22c9.33301 0 18 -1 26 -3v-89l-18 3c-8 1.33301 -15.667 2 -23 2c-30 0 -53 -10 -69 -30zM371.504 275.002c17.667 17.333 26.5 40.334 26.5 69.001c0 28 -8.66699 50.5 -26 67.5s-39.333 25.5 -66 25.5 s-48.667 -8.66699 -66 -26s-26 -40.333 -26 -69s8.5 -51.334 25.5 -68.001s38.5 -25 64.5 -25c27.333 0 49.833 8.66699 67.5 26zM241.004 7.00293l-26 1.00098c-14 -6 -24.833 -14.5 -32.5 -25.5s-11.5 -23.5 -11.5 -37.5c0 -48.667 46 -73 138 -73 c95.333 0 143 25.333 143 76c0 19.333 -7.16699 33.666 -21.5 42.999s-36.5 14.333 -66.5 15zM368.004 711.004c-24.667 -6 -41.5 -12.8311 -50.5 -20.498s-13.5 -16.834 -13.5 -27.501h73v-96h-135v77c0 29.333 7.66699 53.166 23 71.499s42 31.5 80 39.5z"/>
    <glyph glyph-name="Hcircumflex" unicode="Ĥ" d="M376 770l-67 71l-66 -71h-99l101 122h131l100 -122h-100zM548 0h-123v313h-230v-313h-123v710h123v-299h230v299h123v-710z"/>
    <glyph glyph-name="hcircumflex" unicode="ĥ" d="M216 770l-67 71l-66 -71h-99l101 122h131l100 -122h-100zM267 483c28 19.333 59.667 28.999 95 28.999c48.667 0 88 -14 118 -42c16 -15.333 28.167 -36 36.5 -62s12.5 -59 12.5 -99v-309h-118v296c0 79.333 -30.333 119 -91 119c-39.333 0 -67.833 -14.667 -85.5 -44 s-26.5 -62.666 -26.5 -99.999v-271h-117v725h117v-316c11.333 30 31 54.667 59 74z"/>
    <glyph glyph-name="Hbar" unicode="Ħ" d="M605 525h-57v-525h-123v313h-230v-313h-123v525h-57v64h57v121h123v-121h230v121h123v-121h57v-64zM425 525h-230v-114h230v114z"/>
    <glyph glyph-name="hbar" unicode="ħ" d="M516.5 408c8.33301 -26 12.5 -59.001 12.5 -99.001v-309h-118v296c0 79.333 -30.333 119 -91 119c-39.333 0 -67.833 -14.667 -85.5 -44s-26.5 -62.666 -26.5 -99.999v-271h-117v579h-91v54h91v92h117v-92h215v-54h-215v-170c11.333 30 31 54.667 59 74s59.667 29 95 29 c48.667 0 88 -14 118 -42c16 -15.333 28.167 -36 36.5 -62z"/>
    <glyph glyph-name="Itilde" unicode="Ĩ" d="M184 768l-72.002 16c7.33301 38 22.833 66.333 46.5 85s50.834 28 81.501 28c16 0 30 -2.66699 42 -8s25.667 -13.333 41 -24c11.333 -8 21.333 -14.167 30 -18.5s18 -6.5 28 -6.5c12.667 0 24.334 4.16699 35.001 12.5s18 21.833 22 40.5l69 -16 c-8 -38.667 -23.167 -67.667 -45.5 -87s-50.166 -29 -83.499 -29c-16.667 0 -30.834 2.66699 -42.501 8s-24.167 13 -37.5 23c-12 8.66699 -22 15 -30 19s-17.333 6 -28 6c-28 0 -46.667 -16.333 -56 -49zM370.998 614v-518h166v-96h-454v96h165v518h-165v96h454v-96h-166z "/>
    <glyph glyph-name="itilde" unicode="ĩ" d="M113 90h156v320h-141v90h258v-410h164v-90h-437v90zM291.5 719c13 -6 27.834 -14.998 44.501 -26.998c11.333 -8.66699 21.166 -15.167 29.499 -19.5s17.166 -6.5 26.499 -6.5c12 0 22.5 5 31.5 15s15.5 24.667 19.5 44l71 -17c-10.667 -44.667 -27 -77 -49 -97 s-47.333 -30 -76 -30c-16.667 0 -31.167 3 -43.5 9s-25.5 14.333 -39.5 25c-12.667 9.33301 -23.167 16.166 -31.5 20.499s-18.166 6.5 -29.499 6.5c-13.333 0 -24.5 -4.83301 -33.5 -14.5s-14.833 -22.834 -17.5 -39.501l-74 16c8 42.667 23.667 74 47 94s49.333 30 78 30 c18 0 33.5 -3 46.5 -9z"/>
    <glyph glyph-name="Imacron" unicode="Ī" d="M475 768h-330v81h330v-81zM371 614v-518h166v-96h-454v96h165v518h-165v96h454v-96h-166z"/>
    <glyph glyph-name="imacron" unicode="ī" d="M113 90h156v320h-141v90h258v-410h164v-90h-437v90zM161 670h314v-82h-314v82z"/>
    <glyph glyph-name="Ibreve" unicode="Ĭ" d="M194.5 796c-31.667 22 -49.5029 54.001 -53.5029 96.001h93c2 -16.667 9.66699 -30.334 23 -41.001s31 -16 53 -16s39.833 5.33301 53.5 16s21.834 24.334 24.501 41.001h92c-5.33301 -42.667 -23.666 -74.834 -54.999 -96.501s-69.666 -32.5 -114.999 -32.5 s-83.833 11 -115.5 33zM370.997 614.001v-518h166v-96h-454v96h165v518h-165v96h454v-96h-166z"/>
    <glyph glyph-name="ibreve" unicode="ĭ" d="M113 90h156v320h-141v90h258v-410h164v-90h-437v90zM265.5 662.5c13.667 -15 31.167 -22.5 52.5 -22.5s38.833 7.5 52.5 22.5s20.834 35.167 21.501 60.5h90c-3.33301 -52.667 -20.333 -91.834 -51 -117.501s-68.334 -38.5 -113.001 -38.5s-82.334 12.833 -113.001 38.5 s-47.667 64.834 -51 117.501h90c0.666992 -25.333 7.83398 -45.5 21.501 -60.5z"/>
    <glyph glyph-name="Iogonek" unicode="Į" d="M371 614v-518h166v-96h-454v96h165v518h-165v96h454v-96h-166zM529.5 -184c-23 -14 -51.1641 -20.999 -84.4971 -20.999c-30.667 0 -56.334 8 -77.001 24s-31 38.333 -31 67c0 46.667 29 84.667 87 114h113c-40.667 -11.333 -70.834 -26.333 -90.501 -45 s-29.5 -37.667 -29.5 -57c0 -13.333 3.66699 -24.5 11 -33.5s16.666 -13.5 27.999 -13.5c12 0 22 4.16699 30 12.5s13.667 19.166 17 32.499l68 -17c-4.66699 -28 -18.5 -49 -41.5 -63z"/>
    <glyph glyph-name="iogonek" unicode="į" d="M113 90h156v320h-141v90h258v-410h164v-90h-437v90zM391 584h-146v138h146v-138zM542.5 -184c-23 -14 -51.1641 -20.999 -84.4971 -20.999c-30.667 0 -56.334 8 -77.001 24s-31 38.333 -31 67c0 46.667 29 84.667 87 114h113 c-40.667 -11.333 -70.834 -26.333 -90.501 -45s-29.5 -37.667 -29.5 -57c0 -13.333 3.66699 -24.5 11 -33.5s16.666 -13.5 27.999 -13.5c12 0 22 4.16699 30 12.5s13.667 19.166 17 32.499l68 -17c-4.66699 -28 -18.5 -49 -41.5 -63z"/>
    <glyph glyph-name="Idotaccent" unicode="İ" d="M375 768h-130v124h130v-124zM371 614v-518h166v-96h-454v96h165v518h-165v96h454v-96h-166z"/>
    <glyph glyph-name="dotlessi" unicode="ı" d="M113 90h156v320h-141v90h258v-410h164v-90h-437v90z"/>
    <glyph glyph-name="IJ" unicode="Ĳ" d="M206 0h-123v710h123v-710zM265 104c20.667 -5.33301 44.001 -8 70.001 -8c31.333 0 54 7.33301 68 22s21 41.667 21 81v511h123v-531c0 -57.333 -15.667 -102.833 -47 -136.5s-81 -50.5 -149 -50.5c-36.667 0 -65.334 3.66699 -86.001 11v101z"/>
    <glyph glyph-name="ij" unicode="ĳ" d="M97 725h145v-138h-145v138zM379 725h145v-138h-145v138zM112 500h117v-500h-117v500zM232 -193l0.000976562 95c5.33301 -0.666992 12 -1 20 -1c28 -2 45 -3 51 -3c32 0 55.333 7.66699 70 23s22 44 22 86v493h118v-501c0 -63.333 -14.833 -112.333 -44.5 -147 s-77.834 -52 -144.501 -52c-36 0 -66.667 2.33301 -92 7z"/>
    <glyph glyph-name="Jcircumflex" unicode="Ĵ" d="M533 770l-67 71l-66 -71h-99l101 122h131l100 -122h-100zM464 44.5c-42.667 -41 -100.669 -61.499 -174.002 -61.499c-76.667 0 -135 23.167 -175 69.5s-61.333 105.166 -64 176.499l123 36c0.666992 -57.333 11.334 -101.5 32.001 -132.5s50.334 -46.5 89.001 -46.5 c73.333 0 110 48 110 144v480h123v-495c0 -72.667 -21.333 -129.5 -64 -170.5z"/>
    <glyph glyph-name="jcircumflex" unicode="ĵ" d="M451 571l-65 96l-65 -96h-98l101 151h124l101 -151h-98zM101 -87c26 -6 46.334 -9.83301 61.001 -11.5s30 -2.5 46 -2.5c41.333 0 71.666 9.5 90.999 28.5s29 50.5 29 94.5v388h-196v90h313v-486c0 -142.667 -72 -214 -216 -214c-50 0 -92.667 6 -128 18v95z"/>
    <glyph glyph-name="Kcommaaccent" unicode="Ķ" d="M276 344l-79 -110v-234h-123v710h123v-334l229 334h142l-201 -281l222 -429h-142zM252 -180c24.667 6 41.5 12.8311 50.5 20.498s13.5 16.834 13.5 27.501h-73v96h135v-77c0 -29.333 -7.66699 -53.166 -23 -71.499s-42 -31.5 -80 -39.5z"/>
    <glyph glyph-name="kcommaaccent" unicode="ķ" d="M292 232l-75 -80v-152h-117v725h117v-453l194 228h142l-176 -191l186 -309h-140zM252 -180c24.667 6 41.5 12.8311 50.5 20.498s13.5 16.834 13.5 27.501h-73v96h135v-77c0 -29.333 -7.66699 -53.166 -23 -71.499s-42 -31.5 -80 -39.5z"/>
    <glyph glyph-name="kgreenlandic" unicode="ĸ" d="M287 240l-70 -73v-167h-118v500h118v-211l192 211h144l-180 -185l189 -315h-139z"/>
    <glyph glyph-name="Lacute" unicode="Ĺ" d="M188 892h138l-109 -122h-100zM228 710v-606h322v-104h-445v710h123z"/>
    <glyph glyph-name="lacute" unicode="ĺ" d="M349 892h138l-109 -122h-100zM113 90h156v545h-144v90h261v-635h164v-90h-437v90z"/>
    <glyph glyph-name="Lcommaaccent" unicode="Ļ" d="M228 710v-606h322v-104h-445v710h123zM321 545c18.667 7.33301 30.667 15.832 36 25.499s8 24.834 8 45.501h-50v109h108v-102c0 -32 -5.66699 -58.667 -17 -80s-31.333 -37.333 -60 -48z"/>
    <glyph glyph-name="lcommaaccent" unicode="ļ" d="M113 90h156v545h-144v90h261v-635h164v-90h-437v90zM252 -180c24.667 6 41.5 12.8311 50.5 20.498s13.5 16.834 13.5 27.501h-73v96h135v-77c0 -29.333 -7.66699 -53.166 -23 -71.499s-42 -31.5 -80 -39.5z"/>
    <glyph glyph-name="Lcaron" unicode="Ľ" d="M228 710v-606h322v-104h-445v710h123zM252 -180c24.667 6 41.5 12.8311 50.5 20.498s13.5 16.834 13.5 27.501h-73v96h135v-77c0 -29.333 -7.66699 -53.166 -23 -71.499s-42 -31.5 -80 -39.5z"/>
    <glyph glyph-name="lcaron" unicode="ľ" d="M113 90h156v545h-144v90h261v-635h164v-90h-437v90zM496 545c18.667 7.33301 30.667 15.832 36 25.499s8 24.834 8 45.501h-50v109h108v-102c0 -32 -5.66699 -58.667 -17 -80s-31.333 -37.333 -60 -48z"/>
    <glyph glyph-name="Ldot" unicode="Ŀ" d="M228 710v-606h322v-104h-445v710h123zM485 350h-155v150h155v-150z"/>
    <glyph glyph-name="ldot" unicode="ŀ" d="M113 90h156v545h-144v90h261v-635h164v-90h-437v90zM535 285h-107v150h107v-150z"/>
    <glyph glyph-name="Lslash" unicode="Ł" d="M550 104v-104h-445v276l-94 -60v83l94 60v351h123v-272l190 121v-82l-190 -122v-251h322z"/>
    <glyph glyph-name="lslash" unicode="ł" d="M550 90v-90h-437v90h156v236l-116 -78v77l116 78v232h-144v90h261v-244l116 78v-76l-116 -78v-315h164z"/>
    <glyph glyph-name="Nacute" unicode="Ń" d="M331 892h138l-109 -122h-100zM435 175h4c-4 28 -6 60 -6 96v439h115v-710h-132l-198 456c-8.66699 20.667 -16 40.667 -22 60s-9.33301 30.333 -10 33h-5c4 -22.667 6 -49.667 6 -81v-468h-115v710h144l185 -435c16 -38.667 27.333 -72 34 -100z"/>
    <glyph glyph-name="nacute" unicode="ń" d="M265.5 482c27.667 20 60.833 30.001 99.5 30.001c48.667 0 87 -13.667 115 -41c16.667 -16 29 -36.833 37 -62.5s12 -58.834 12 -99.501v-309h-118v296c0 79.333 -29.333 119 -88 119c-40.667 0 -70 -14.667 -88 -44s-27 -63 -27 -101v-270h-117v500h112v-97 c14 32.667 34.833 59 62.5 79zM343.999 723.001h132l-118 -151h-96z"/>
    <glyph glyph-name="Ncommaaccent" unicode="Ņ" d="M435 175h4c-4 28 -6 60 -6 96v439h115v-710h-132l-198 456c-8.66699 20.667 -16 40.667 -22 60s-9.33301 30.333 -10 33h-5c4 -22.667 6 -49.667 6 -81v-468h-115v710h144l185 -435c16 -38.667 27.333 -72 34 -100zM252 -180c24.667 6 41.5 12.8311 50.5 20.498 s13.5 16.834 13.5 27.501h-73v96h135v-77c0 -29.333 -7.66699 -53.166 -23 -71.499s-42 -31.5 -80 -39.5z"/>
    <glyph glyph-name="ncommaaccent" unicode="ņ" d="M265.5 482c27.667 20 60.833 30.001 99.5 30.001c48.667 0 87 -13.667 115 -41c16.667 -16 29 -36.833 37 -62.5s12 -58.834 12 -99.501v-309h-118v296c0 79.333 -29.333 119 -88 119c-40.667 0 -70 -14.667 -88 -44s-27 -63 -27 -101v-270h-117v500h112v-97 c14 32.667 34.833 59 62.5 79zM251.999 -179.999c24.667 6 41.5 12.8311 50.5 20.498s13.5 16.834 13.5 27.501h-73v96h135v-77c0 -29.333 -7.66699 -53.166 -23 -71.499s-42 -31.5 -80 -39.5z"/>
    <glyph glyph-name="Ncaron" unicode="Ň" d="M244 892l67 -71l66 71h99l-101 -122h-131l-100 122h100zM435 175h4c-4 28 -6 60 -6 96v439h115v-710h-132l-198 456c-8.66699 20.667 -16 40.667 -22 60s-9.33301 30.333 -10 33h-5c4 -22.667 6 -49.667 6 -81v-468h-115v710h144l185 -435c16 -38.667 27.333 -72 34 -100 z"/>
    <glyph glyph-name="ncaron" unicode="ň" d="M265.5 482c27.667 20 60.833 30.001 99.5 30.001c48.667 0 87 -13.667 115 -41c16.667 -16 29 -36.833 37 -62.5s12 -58.834 12 -99.501v-309h-118v296c0 79.333 -29.333 119 -88 119c-40.667 0 -70 -14.667 -88 -44s-27 -63 -27 -101v-270h-117v500h112v-97 c14 32.667 34.833 59 62.5 79zM244.999 723.001l65 -96l65 96h98l-101 -151h-124l-101 151h98z"/>
    <glyph glyph-name="napostrophe" unicode="ŉ" d="M265.5 482c27.667 20 60.833 30.001 99.5 30.001c48.667 0 87 -13.667 115 -41c16.667 -16 29 -36.833 37 -62.5s12 -58.834 12 -99.501v-309h-118v296c0 79.333 -29.333 119 -88 119c-40.667 0 -70 -14.667 -88 -44s-27 -63 -27 -101v-270h-117v500h112v-97 c14 32.667 34.833 59 62.5 79zM251.999 -179.999c24.667 6 41.5 12.8311 50.5 20.498s13.5 16.834 13.5 27.501h-73v96h135v-77c0 -29.333 -7.66699 -53.166 -23 -71.499s-42 -31.5 -80 -39.5z"/>
    <glyph glyph-name="Eng" unicode="Ŋ" d="M263 -108c18.667 -3.33301 41.668 -4.99902 69.001 -4.99902c61.333 0 92 30.667 92 92v19l-203 462c-7.33301 17.333 -13.833 35.666 -19.5 54.999s-8.5 32 -8.5 38h-5c1.33301 -16 2 -41.333 2 -76v-477h-110v710h144l173 -417c17.333 -42 27.666 -75.667 30.999 -101 h4c-1.33301 18.667 -2 48 -2 88v430h110v-726c0 -71.333 -17.5 -122.833 -52.5 -154.5s-82.5 -47.5 -142.5 -47.5c-36.667 0 -64 2.33301 -82 7v103z"/>
    <glyph glyph-name="eng" unicode="ŋ" d="M517 408.5c8 -25.667 11.999 -58.834 11.999 -99.501v-328c0 -59.333 -11.333 -104.666 -34 -135.999s-61.667 -47 -117 -47c-24.667 0 -46 2 -64 6v92c16 -1.33301 28.667 -2 38 -2c22 0 37.333 6.5 46 19.5s13 35.5 13 67.5v315c0 79.333 -29.333 119 -88 119 c-40.667 0 -70 -14.667 -88 -44s-27 -63 -27 -101v-270h-117v500h112v-97c14 32.667 34.833 59 62.5 79s60.834 30 99.501 30c48.667 0 87 -13.667 115 -41c16.667 -16 29 -36.833 37 -62.5z"/>
    <glyph glyph-name="Omacron" unicode="Ō" d="M145 849h330v-81h-330v81zM112 71c-44.667 58.667 -67 141.334 -67 248.001v72c0 106.667 22.333 189.334 67 248.001s110.667 88 198 88s153.333 -29.333 198 -88s67 -141.334 67 -248.001v-72c0 -106.667 -22.333 -189.334 -67 -248.001s-110.667 -88 -198 -88 s-153.333 29.333 -198 88zM415.5 140c22.333 37.333 33.5 96 33.5 176v78c0 80 -11.167 138.667 -33.5 176s-57.5 56 -105.5 56s-83.167 -18.667 -105.5 -56s-33.5 -96 -33.5 -176v-78c0 -80 11.167 -138.667 33.5 -176s57.5 -56 105.5 -56s83.167 18.667 105.5 56z"/>
    <glyph glyph-name="omacron" unicode="ō" d="M184 20c-36.667 21.333 -65.334 51.668 -86.001 91.001s-31 85.666 -31 138.999s10.333 99.833 31 139.5s49.334 70 86.001 91s78.667 31.5 126 31.5s89.333 -10.5 126 -31.5s65.334 -51.333 86.001 -91s31 -86.167 31 -139.5s-10.333 -99.833 -31 -139.5 s-49.334 -70 -86.001 -91s-78.667 -31.5 -126 -31.5s-89.333 10.667 -126 32zM399 124.502c21.333 29.667 32 71.5 32 125.5s-10.667 95.833 -32 125.5s-51 44.5 -89 44.5s-67.667 -14.833 -89 -44.5s-32 -71.5 -32 -125.5s10.667 -95.833 32 -125.5s51 -44.5 89 -44.5 s67.667 14.833 89 44.5zM153 670.002h314v-82h-314v82z"/>
    <glyph glyph-name="Obreve" unicode="Ŏ" d="M257 851c13.333 -10.667 30.9971 -15.999 52.9971 -15.999s39.833 5.33301 53.5 16s21.834 24.334 24.501 41.001h92c-5.33301 -42.667 -23.666 -74.834 -54.999 -96.501s-69.666 -32.5 -114.999 -32.5s-83.833 11 -115.5 33s-49.5 54 -53.5 96h93 c2 -16.667 9.66699 -30.334 23 -41.001zM111.997 71.001c-44.667 58.667 -67 141.334 -67 248.001v72c0 106.667 22.333 189.334 67 248.001s110.667 88 198 88s153.333 -29.333 198 -88s67 -141.334 67 -248.001v-72c0 -106.667 -22.333 -189.334 -67 -248.001 s-110.667 -88 -198 -88s-153.333 29.333 -198 88zM415.497 140.001c22.333 37.333 33.5 96 33.5 176v78c0 80 -11.167 138.667 -33.5 176s-57.5 56 -105.5 56s-83.167 -18.667 -105.5 -56s-33.5 -96 -33.5 -176v-78c0 -80 11.167 -138.667 33.5 -176s57.5 -56 105.5 -56 s83.167 18.667 105.5 56z"/>
    <glyph glyph-name="obreve" unicode="ŏ" d="M184 20c-36.667 21.333 -65.334 51.668 -86.001 91.001s-31 85.666 -31 138.999s10.333 99.833 31 139.5s49.334 70 86.001 91s78.667 31.5 126 31.5s89.333 -10.5 126 -31.5s65.334 -51.333 86.001 -91s31 -86.167 31 -139.5s-10.333 -99.833 -31 -139.5 s-49.334 -70 -86.001 -91s-78.667 -31.5 -126 -31.5s-89.333 10.667 -126 32zM399 124.502c21.333 29.667 32 71.5 32 125.5s-10.667 95.833 -32 125.5s-51 44.5 -89 44.5s-67.667 -14.833 -89 -44.5s-32 -71.5 -32 -125.5s10.667 -95.833 32 -125.5s51 -44.5 89 -44.5 s67.667 14.833 89 44.5zM257.5 662.502c13.667 -15 31.167 -22.5 52.5 -22.5s38.833 7.5 52.5 22.5s20.834 35.167 21.501 60.5h90c-3.33301 -52.667 -20.333 -91.834 -51 -117.501s-68.334 -38.5 -113.001 -38.5s-82.334 12.833 -113.001 38.5s-47.667 64.834 -51 117.501 h90c0.666992 -25.333 7.83398 -45.5 21.501 -60.5z"/>
    <glyph glyph-name="Ohungarumlaut" unicode="Ő" d="M231 892h117l-78 -122h-107zM417 892h117l-78 -122h-106zM112 71c-44.667 58.667 -67 141.334 -67 248.001v72c0 106.667 22.333 189.334 67 248.001s110.667 88 198 88s153.333 -29.333 198 -88s67 -141.334 67 -248.001v-72c0 -106.667 -22.333 -189.334 -67 -248.001 s-110.667 -88 -198 -88s-153.333 29.333 -198 88zM415.5 140c22.333 37.333 33.5 96 33.5 176v78c0 80 -11.167 138.667 -33.5 176s-57.5 56 -105.5 56s-83.167 -18.667 -105.5 -56s-33.5 -96 -33.5 -176v-78c0 -80 11.167 -138.667 33.5 -176s57.5 -56 105.5 -56 s83.167 18.667 105.5 56z"/>
    <glyph glyph-name="ohungarumlaut" unicode="ő" d="M184 20c-36.667 21.333 -65.334 51.668 -86.001 91.001s-31 85.666 -31 138.999s10.333 99.833 31 139.5s49.334 70 86.001 91s78.667 31.5 126 31.5s89.333 -10.5 126 -31.5s65.334 -51.333 86.001 -91s31 -86.167 31 -139.5s-10.333 -99.833 -31 -139.5 s-49.334 -70 -86.001 -91s-78.667 -31.5 -126 -31.5s-89.333 10.667 -126 32zM399 124.502c21.333 29.667 32 71.5 32 125.5s-10.667 95.833 -32 125.5s-51 44.5 -89 44.5s-67.667 -14.833 -89 -44.5s-32 -71.5 -32 -125.5s10.667 -95.833 32 -125.5s51 -44.5 89 -44.5 s67.667 14.833 89 44.5zM247 723.002h118l-93 -151h-107zM430 723.002h118l-93 -151h-107z"/>
    <glyph glyph-name="OE" unicode="Œ" d="M580 101v-100.999h-314c-37.333 0 -71 6.66699 -101 20s-55.333 32.666 -76 57.999c-41.333 52 -62 120 -62 204v153c0 88 21 156 63 204c40 47.333 98 71 174 71h309v-101h-181v-196h164v-99h-164v-213h188zM278 98.001l-0.000976562 514h-20 c-18.667 0 -34.667 -3.5 -48 -10.5s-24.666 -17.5 -33.999 -31.5c-18.667 -28.667 -28 -73.667 -28 -135v-153c0 -62 10 -108.667 30 -140c18.667 -29.333 46 -44 82 -44h18z"/>
    <glyph glyph-name="oe" unicode="œ" d="M596 160l0.00195312 -8.99805c-0.666992 -50.667 -17 -90.5 -49 -119.5s-73 -43.5 -123 -43.5c-22.667 0 -44 3.66699 -64 11s-37.333 17.666 -52 30.999c-28.667 -28 -67.667 -42 -117 -42c-51.333 0 -92 15.5 -122 46.5s-45 74.5 -45 130.5v154 c0 62 14.167 109.333 42.5 142s70.166 49 125.499 49c49.333 0 88 -14 116 -42c29.333 28 68.333 42 117 42c52 0 93 -16.167 123 -48.5s45 -78.833 45 -139.5v-89h-236v-67c0 -30.667 6.16699 -53.667 18.5 -69s29.166 -23 50.499 -23c22 0 39.667 8.16699 53 24.5 s20.333 40.166 21 71.499v11zM357.002 330.002v-31h133v32c0 64 -22 96 -66 96c-44.667 0 -67 -32.333 -67 -97zM239.002 96.002c10.667 14.667 16.001 39 16.001 73v163c0 33.333 -5.33301 57 -16 71s-26.334 21 -47.001 21c-21.333 0 -37.5 -7.16699 -48.5 -21.5 s-16.5 -38.833 -16.5 -73.5v-159c0 -34 5.5 -58.5 16.5 -73.5s26.833 -22.5 47.5 -22.5c21.333 0 37.333 7.33301 48 22z"/>
    <glyph glyph-name="Racute" unicode="Ŕ" d="M359 770h-100l71 122h138zM308 291h-109.001v-291h-123v710h242c78 0 138.333 -18.5 181 -55.5s64 -89.167 64 -156.5c0 -44.667 -11.667 -83.167 -35 -115.5s-56.666 -55.833 -99.999 -70.5l158 -312h-135zM198.999 379h108c41.333 0 72.833 10.167 94.5 30.5 s32.5 49.5 32.5 87.5s-10.833 67.167 -32.5 87.5s-53.167 30.5 -94.5 30.5h-108v-236z"/>
    <glyph glyph-name="racute" unicode="ŕ" d="M320 470c38.667 26.667 83.3311 40 133.998 40c36.667 0 66.667 -3.66699 90 -11v-106c-10.667 3.33301 -25 6.16602 -43 8.49902s-36.333 3.5 -55 3.5c-38.667 0 -73.667 -8.16699 -105 -24.5s-56.166 -41.333 -74.499 -75s-27.5 -75.167 -27.5 -124.5v-181h-117v500 h115v-137c16.667 44.667 44.334 80.334 83.001 107.001zM347.997 723h132l-118 -151h-96z"/>
    <glyph glyph-name="Rcommaaccent" unicode="Ŗ" d="M308 291h-109.001v-291h-123v710h242c78 0 138.333 -18.5 181 -55.5s64 -89.167 64 -156.5c0 -44.667 -11.667 -83.167 -35 -115.5s-56.666 -55.833 -99.999 -70.5l158 -312h-135zM198.999 379h108c41.333 0 72.833 10.167 94.5 30.5s32.5 49.5 32.5 87.5 s-10.833 67.167 -32.5 87.5s-53.167 30.5 -94.5 30.5h-108v-236zM250.999 -180c24.667 6 41.5 12.8311 50.5 20.498s13.5 16.834 13.5 27.501h-73v96h135v-77c0 -29.333 -7.66699 -53.166 -23 -71.499s-42 -31.5 -80 -39.5z"/>
    <glyph glyph-name="rcommaaccent" unicode="ŗ" d="M320 470c38.667 26.667 83.3311 40 133.998 40c36.667 0 66.667 -3.66699 90 -11v-106c-10.667 3.33301 -25 6.16602 -43 8.49902s-36.333 3.5 -55 3.5c-38.667 0 -73.667 -8.16699 -105 -24.5s-56.166 -41.333 -74.499 -75s-27.5 -75.167 -27.5 -124.5v-181h-117v500 h115v-137c16.667 44.667 44.334 80.334 83.001 107.001zM122.997 -180c24.667 6 41.5 12.8311 50.5 20.498s13.5 16.834 13.5 27.501h-73v96h135v-77c0 -29.333 -7.66699 -53.166 -23 -71.499s-42 -31.5 -80 -39.5z"/>
    <glyph glyph-name="Rcaron" unicode="Ř" d="M243 770l-100 122h100l67 -71l66 71h99l-101 -122h-131zM308 291h-109.001v-291h-123v710h242c78 0 138.333 -18.5 181 -55.5s64 -89.167 64 -156.5c0 -44.667 -11.667 -83.167 -35 -115.5s-56.666 -55.833 -99.999 -70.5l158 -312h-135zM198.999 379h108 c41.333 0 72.833 10.167 94.5 30.5s32.5 49.5 32.5 87.5s-10.833 67.167 -32.5 87.5s-53.167 30.5 -94.5 30.5h-108v-236z"/>
    <glyph glyph-name="rcaron" unicode="ř" d="M320 470c38.667 26.667 83.3311 40 133.998 40c36.667 0 66.667 -3.66699 90 -11v-106c-10.667 3.33301 -25 6.16602 -43 8.49902s-36.333 3.5 -55 3.5c-38.667 0 -73.667 -8.16699 -105 -24.5s-56.166 -41.333 -74.499 -75s-27.5 -75.167 -27.5 -124.5v-181h-117v500 h115v-137c16.667 44.667 44.334 80.334 83.001 107.001zM248.997 723l65 -96l65 96h98l-101 -151h-124l-101 151h98z"/>
    <glyph glyph-name="Sacute" unicode="Ś" d="M331 892h138l-109 -122h-100zM135 38.5c-46 37 -77.001 87.1699 -93.001 150.503l110 38c24.667 -94.667 80 -142 166 -142c34 0 63.333 7.5 88 22.5s37 39.5 37 73.5c0 35.333 -8.83301 60.666 -26.5 75.999s-43.167 27.666 -76.5 36.999l-95 26 c-55.333 14.667 -98.833 38.334 -130.5 71.001s-47.5 75 -47.5 127c0 39.333 10.167 74.833 30.5 106.5s48.666 56.667 84.999 75s77.833 27.5 124.5 27.5c67.333 0 123.5 -14.5 168.5 -43.5s74.167 -73.167 87.5 -132.5l-104 -54c-10 46 -28.667 79.167 -56 99.5 s-59.666 30.5 -96.999 30.5c-40.667 0 -70 -9.16699 -88 -27.5s-27 -40.833 -27 -67.5c0 -25.333 8.66699 -46.833 26 -64.5s41.333 -30.834 72 -39.501l94 -26c58 -16 103.333 -39 136 -69s49 -75.333 49 -136c0 -38 -9.66699 -73.333 -29 -106 s-48.166 -58.834 -86.499 -78.501s-84.5 -29.5 -138.5 -29.5c-73.333 0 -133 18.5 -179 55.5z"/>
    <glyph glyph-name="sacute" unicode="ś" d="M169.5 25.5c-39.667 25 -66.8301 60.5 -81.4971 106.5l88 42c11.333 -32.667 29.5 -57.334 54.5 -74.001s55.833 -25 92.5 -25c30 0 53 5.5 69 16.5s24 26.5 24 46.5c0 19.333 -5.83301 34 -17.5 44s-30.834 16.667 -57.501 20l-79 10 c-48.667 6 -85.834 21.833 -111.501 47.5s-38.5 58.5 -38.5 98.5c0 48 18.333 85.667 55 113s86.667 41 150 41c53.333 0 98.666 -11.333 135.999 -34s62.333 -53.667 75 -93l-85 -45c-10.667 26.667 -27.167 47.834 -49.5 63.501s-49.166 23.5 -80.499 23.5 c-29.333 0 -51.833 -5.16699 -67.5 -15.5s-23.5 -25.5 -23.5 -45.5c0 -18 6.16699 -32 18.5 -42s32.166 -16.667 59.499 -20l87 -12c93.333 -12.667 140 -60.667 140 -144c0 -50 -18.667 -89.167 -56 -117.5s-88.666 -42.5 -153.999 -42.5 c-58.667 0 -107.834 12.5 -147.501 37.5zM345.004 723h132l-118 -151h-96z"/>
    <glyph glyph-name="Scircumflex" unicode="Ŝ" d="M376 770l-67 71l-66 -71h-99l101 122h131l100 -122h-100zM135 38.5c-46 37 -77.001 87.1699 -93.001 150.503l110 38c24.667 -94.667 80 -142 166 -142c34 0 63.333 7.5 88 22.5s37 39.5 37 73.5c0 35.333 -8.83301 60.666 -26.5 75.999s-43.167 27.666 -76.5 36.999 l-95 26c-55.333 14.667 -98.833 38.334 -130.5 71.001s-47.5 75 -47.5 127c0 39.333 10.167 74.833 30.5 106.5s48.666 56.667 84.999 75s77.833 27.5 124.5 27.5c67.333 0 123.5 -14.5 168.5 -43.5s74.167 -73.167 87.5 -132.5l-104 -54c-10 46 -28.667 79.167 -56 99.5 s-59.666 30.5 -96.999 30.5c-40.667 0 -70 -9.16699 -88 -27.5s-27 -40.833 -27 -67.5c0 -25.333 8.66699 -46.833 26 -64.5s41.333 -30.834 72 -39.501l94 -26c58 -16 103.333 -39 136 -69s49 -75.333 49 -136c0 -38 -9.66699 -73.333 -29 -106 s-48.166 -58.834 -86.499 -78.501s-84.5 -29.5 -138.5 -29.5c-73.333 0 -133 18.5 -179 55.5z"/>
    <glyph glyph-name="scircumflex" unicode="ŝ" d="M169.5 25.5c-39.667 25 -66.8301 60.5 -81.4971 106.5l88 42c11.333 -32.667 29.5 -57.334 54.5 -74.001s55.833 -25 92.5 -25c30 0 53 5.5 69 16.5s24 26.5 24 46.5c0 19.333 -5.83301 34 -17.5 44s-30.834 16.667 -57.501 20l-79 10 c-48.667 6 -85.834 21.833 -111.501 47.5s-38.5 58.5 -38.5 98.5c0 48 18.333 85.667 55 113s86.667 41 150 41c53.333 0 98.666 -11.333 135.999 -34s62.333 -53.667 75 -93l-85 -45c-10.667 26.667 -27.167 47.834 -49.5 63.501s-49.166 23.5 -80.499 23.5 c-29.333 0 -51.833 -5.16699 -67.5 -15.5s-23.5 -25.5 -23.5 -45.5c0 -18 6.16699 -32 18.5 -42s32.166 -16.667 59.499 -20l87 -12c93.333 -12.667 140 -60.667 140 -144c0 -50 -18.667 -89.167 -56 -117.5s-88.666 -42.5 -153.999 -42.5 c-58.667 0 -107.834 12.5 -147.501 37.5zM376.004 572l-65 96l-65 -96h-98l101 151h124l101 -151h-98z"/>
    <glyph glyph-name="Scedilla" unicode="Ş" d="M544.5 100.5c-15.667 -30.333 -39.334 -55.666 -71.001 -75.999s-69.834 -33.166 -114.501 -38.499l-20 -35c4.66699 4 11.834 7.33301 21.501 10s19.5 4 29.5 4c24 0 43.5 -6.66699 58.5 -20s22.5 -31.333 22.5 -54c0 -28 -11.833 -51 -35.5 -69s-53.5 -27 -89.5 -27 c-53.333 0 -89.666 19.667 -108.999 59l72 19c8 -17.333 21.333 -26 40 -26c11.333 0 21 3.5 29 10.5s12 16.833 12 29.5c0 12 -3.83301 21.333 -11.5 28s-16.834 10 -27.501 10c-14.667 0 -26 -5 -34 -15l-49 13l29 60c-68 2.66699 -123.667 22.5 -167 59.5 s-72.666 85.833 -87.999 146.5l110 38c24.667 -94.667 80 -142 166 -142c34 0 63.333 7.5 88 22.5s37 39.5 37 73.5c0 35.333 -8.83301 60.666 -26.5 75.999s-43.167 27.666 -76.5 36.999l-95 26c-55.333 14.667 -98.833 38.334 -130.5 71.001s-47.5 75 -47.5 127 c0 39.333 10.167 74.833 30.5 106.5s48.666 56.667 84.999 75s77.833 27.5 124.5 27.5c67.333 0 123.5 -14.5 168.5 -43.5s74.167 -73.167 87.5 -132.5l-104 -54c-10 46 -28.667 79.167 -56 99.5s-59.666 30.5 -96.999 30.5c-40.667 0 -70 -9.16699 -88 -27.5 s-27 -40.833 -27 -67.5c0 -25.333 8.66699 -46.833 26 -64.5s41.333 -30.834 72 -39.501l94 -26c58 -16 103.333 -39 136 -69s49 -75.333 49 -136c0 -34 -7.83301 -66.167 -23.5 -96.5z"/>
    <glyph glyph-name="scedilla" unicode="ş" d="M527 148c0 -45.333 -15.166 -81.6689 -45.499 -109.002s-72.5 -43.666 -126.5 -48.999l-23 -39c4.66699 4 11.834 7.33301 21.501 10s19.5 4 29.5 4c24 0 43.5 -6.66699 58.5 -20s22.5 -31.333 22.5 -54c0 -28 -11.833 -51 -35.5 -69s-53.5 -27 -89.5 -27 c-53.333 0 -89.666 19.667 -108.999 59l72 19c8 -17.333 21.333 -26 40 -26c11.333 0 21 3.5 29 10.5s12 16.833 12 29.5c0 12 -3.83301 21.333 -11.5 28s-16.834 10 -27.501 10c-14.667 0 -26 -5 -34 -15l-49 13l32 66c-52.667 2.66699 -96.667 16.334 -132 41.001 s-59.666 58.667 -72.999 102l88 42c11.333 -32.667 29.5 -57.334 54.5 -74.001s55.833 -25 92.5 -25c30 0 53 5.5 69 16.5s24 26.5 24 46.5c0 19.333 -5.83301 34 -17.5 44s-30.834 16.667 -57.501 20l-79 10c-48.667 6 -85.834 21.833 -111.501 47.5s-38.5 58.5 -38.5 98.5 c0 48 18.333 85.667 55 113s86.667 41 150 41c53.333 0 98.666 -11.333 135.999 -34s62.333 -53.667 75 -93l-85 -45c-10.667 26.667 -27.167 47.834 -49.5 63.501s-49.166 23.5 -80.499 23.5c-29.333 0 -51.833 -5.16699 -67.5 -15.5s-23.5 -25.5 -23.5 -45.5 c0 -18 6.16699 -32 18.5 -42s32.166 -16.667 59.499 -20l87 -12c93.333 -12.667 140 -60.667 140 -144z"/>
    <glyph glyph-name="Scaron" unicode="Š" d="M244 892l67 -71l66 71h99l-101 -122h-131l-100 122h100zM135 38.5c-46 37 -77.001 87.1699 -93.001 150.503l110 38c24.667 -94.667 80 -142 166 -142c34 0 63.333 7.5 88 22.5s37 39.5 37 73.5c0 35.333 -8.83301 60.666 -26.5 75.999s-43.167 27.666 -76.5 36.999 l-95 26c-55.333 14.667 -98.833 38.334 -130.5 71.001s-47.5 75 -47.5 127c0 39.333 10.167 74.833 30.5 106.5s48.666 56.667 84.999 75s77.833 27.5 124.5 27.5c67.333 0 123.5 -14.5 168.5 -43.5s74.167 -73.167 87.5 -132.5l-104 -54c-10 46 -28.667 79.167 -56 99.5 s-59.666 30.5 -96.999 30.5c-40.667 0 -70 -9.16699 -88 -27.5s-27 -40.833 -27 -67.5c0 -25.333 8.66699 -46.833 26 -64.5s41.333 -30.834 72 -39.501l94 -26c58 -16 103.333 -39 136 -69s49 -75.333 49 -136c0 -38 -9.66699 -73.333 -29 -106 s-48.166 -58.834 -86.499 -78.501s-84.5 -29.5 -138.5 -29.5c-73.333 0 -133 18.5 -179 55.5z"/>
    <glyph glyph-name="scaron" unicode="š" d="M169.5 25.5c-39.667 25 -66.8301 60.5 -81.4971 106.5l88 42c11.333 -32.667 29.5 -57.334 54.5 -74.001s55.833 -25 92.5 -25c30 0 53 5.5 69 16.5s24 26.5 24 46.5c0 19.333 -5.83301 34 -17.5 44s-30.834 16.667 -57.501 20l-79 10 c-48.667 6 -85.834 21.833 -111.501 47.5s-38.5 58.5 -38.5 98.5c0 48 18.333 85.667 55 113s86.667 41 150 41c53.333 0 98.666 -11.333 135.999 -34s62.333 -53.667 75 -93l-85 -45c-10.667 26.667 -27.167 47.834 -49.5 63.501s-49.166 23.5 -80.499 23.5 c-29.333 0 -51.833 -5.16699 -67.5 -15.5s-23.5 -25.5 -23.5 -45.5c0 -18 6.16699 -32 18.5 -42s32.166 -16.667 59.499 -20l87 -12c93.333 -12.667 140 -60.667 140 -144c0 -50 -18.667 -89.167 -56 -117.5s-88.666 -42.5 -153.999 -42.5 c-58.667 0 -107.834 12.5 -147.501 37.5zM246.004 723l65 -96l65 96h98l-101 -151h-124l-101 151h98z"/>
    <glyph glyph-name="uni0162" unicode="Ţ" d="M337 0l-29.001 -49c4.66699 4 11.834 7.33301 21.501 10s19.5 4 29.5 4c24 0 43.5 -6.66699 58.5 -20s22.5 -31.333 22.5 -54c0 -28 -11.833 -51 -35.5 -69s-53.5 -27 -89.5 -27c-53.333 0 -89.666 19.667 -108.999 59l72 19c8 -17.333 21.333 -26 40 -26 c11.333 0 21 3.5 29 10.5s12 16.833 12 29.5c0 12 -3.83301 21.333 -11.5 28s-16.834 10 -27.501 10c-14.667 0 -26 -5 -34 -15l-49 13l38 77h-28v606h-208v104h540v-104h-208v-606h-34z"/>
    <glyph glyph-name="uni0163" unicode="ţ" d="M508.5 -55c15 -13.333 22.499 -31.333 22.499 -54c0 -28 -11.833 -51 -35.5 -69s-53.5 -27 -89.5 -27c-53.333 0 -89.666 19.667 -108.999 59l72 19c8 -17.333 21.333 -26 40 -26c11.333 0 21 3.5 29 10.5s12 16.833 12 29.5c0 12 -3.83301 21.333 -11.5 28 s-16.834 10 -27.501 10c-14.667 0 -26 -5 -34 -15l-49 13l35 72c-48.667 7.33301 -85.5 25.833 -110.5 55.5s-37.5 69.167 -37.5 118.5v243h-137v88h137v127l118 47v-174h185v-88h-185v-225c0 -30 8.33301 -52.667 25 -68s40.667 -23 72 -23c28.667 0 58 2.33301 88 7v-99 c-35.333 -7.33301 -67 -11.333 -95 -12l-24 -41c4.66699 4 11.834 7.33301 21.501 10s19.5 4 29.5 4c24 0 43.5 -6.66699 58.5 -20z"/>
    <glyph glyph-name="Tcaron" unicode="Ť" d="M243 892l67 -71l66 71h99l-101 -122h-131l-100 122h100zM579 710v-104h-208v-606h-124v606h-208v104h540z"/>
    <glyph glyph-name="tcaron" unicode="ť" d="M78 500l137 -0.000976562v127l118 47v-174h185v-88h-185v-225c0 -30 8.33301 -52.667 25 -68s40.667 -23 72 -23c28.667 0 58 2.33301 88 7v-99c-20.667 -4 -38.5 -7 -53.5 -9s-32.833 -3 -53.5 -3c-64.667 0 -113.5 15.333 -146.5 46s-49.5 74.334 -49.5 131.001v243 h-137v88zM515 544.999c18.667 7.33301 30.667 15.832 36 25.499s8 24.834 8 45.501h-50v109h108v-102c0 -32 -5.66699 -58.667 -17 -80s-31.333 -37.333 -60 -48z"/>
    <glyph glyph-name="Tbar" unicode="Ŧ" d="M371 606v-146h179v-65h-179v-395h-124v395h-178v65h178v146h-208v104h540v-104h-208z"/>
    <glyph glyph-name="tbar" unicode="ŧ" d="M333 412v-99.001h185v-77h-185v-49c0 -30 8.33301 -52.667 25 -68s40.667 -23 72 -23c28.667 0 58 2.33301 88 7v-99c-20.667 -4 -38.5 -7 -53.5 -9s-32.833 -3 -53.5 -3c-64.667 0 -113.5 15.333 -146.5 46s-49.5 74.334 -49.5 131.001v67h-136v77h136v99h-137v88h137 v127l118 47v-174h185v-88h-185z"/>
    <glyph glyph-name="Utilde" unicode="Ũ" d="M281 889.5c12.667 -5 26.9971 -12.5 42.9971 -22.5c12.667 -8 23.5 -14 32.5 -18s18.833 -6 29.5 -6c12.667 0 23.834 4 33.501 12s16.167 20.667 19.5 38l71 -16c-7.33301 -37.333 -22.166 -65.5 -44.499 -84.5s-49.833 -28.5 -82.5 -28.5c-18 0 -33.167 2.5 -45.5 7.5 s-26.166 12.5 -41.499 22.5c-13.333 8 -24.333 14 -33 18s-18.667 6 -30 6c-12 0 -22.5 -4 -31.5 -12s-15.5 -20.667 -19.5 -38l-73 16c7.33301 38 22.833 66.333 46.5 85s50.5 28 80.5 28c17.333 0 32.333 -2.5 45 -7.5zM184.997 710l0.000976562 -478 c0 -45.333 10.833 -81 32.5 -107s53.167 -39 94.5 -39s72 12.833 92 38.5s30 61.5 30 107.5v478h124v-479c0 -76 -20.833 -136.333 -62.5 -181s-102.5 -67 -182.5 -67c-80.667 0 -142.834 22.5 -186.501 67.5s-65.5 105.167 -65.5 180.5v479h124z"/>
    <glyph glyph-name="utilde" unicode="ũ" d="M350 19c-28 -20.667 -59 -31.001 -93 -31.001c-52 0 -93 14 -123 42c-16 15.333 -27.667 35.333 -35 60s-11 56.334 -11 95.001v315h119v-303c0 -76.667 29.333 -115 88 -115c38 0 65.5 14.667 82.5 44s25.5 63 25.5 101v273h118v-500h-111v92 c-12 -28 -32 -52.333 -60 -73zM280.5 718.999c13 -6 27.834 -14.998 44.501 -26.998c11.333 -8.66699 21.166 -15.167 29.499 -19.5s17.166 -6.5 26.499 -6.5c12 0 22.5 5 31.5 15s15.5 24.667 19.5 44l71 -17c-10.667 -44.667 -27 -77 -49 -97s-47.333 -30 -76 -30 c-16.667 0 -31.167 3 -43.5 9s-25.5 14.333 -39.5 25c-12.667 9.33301 -23.167 16.166 -31.5 20.499s-18.166 6.5 -29.499 6.5c-13.333 0 -24.5 -4.83301 -33.5 -14.5s-14.833 -22.834 -17.5 -39.501l-74 16c8 42.667 23.667 74 47 94s49.333 30 78 30c18 0 33.5 -3 46.5 -9 z"/>
    <glyph glyph-name="Umacron" unicode="Ū" d="M145 849h330v-81h-330v81zM185 710l0.000976562 -478c0 -45.333 10.833 -81 32.5 -107s53.167 -39 94.5 -39s72 12.833 92 38.5s30 61.5 30 107.5v478h124v-479c0 -76 -20.833 -136.333 -62.5 -181s-102.5 -67 -182.5 -67c-80.667 0 -142.834 22.5 -186.501 67.5 s-65.5 105.167 -65.5 180.5v479h124z"/>
    <glyph glyph-name="umacron" unicode="ū" d="M350 19c-28 -20.667 -59 -31.001 -93 -31.001c-52 0 -93 14 -123 42c-16 15.333 -27.667 35.333 -35 60s-11 56.334 -11 95.001v315h119v-303c0 -76.667 29.333 -115 88 -115c38 0 65.5 14.667 82.5 44s25.5 63 25.5 101v273h118v-500h-111v92 c-12 -28 -32 -52.333 -60 -73zM150 669.999h314v-82h-314v82z"/>
    <glyph glyph-name="Ubreve" unicode="Ŭ" d="M257 851c13.333 -10.667 30.9971 -15.999 52.9971 -15.999s39.833 5.33301 53.5 16s21.834 24.334 24.501 41.001h92c-5.33301 -42.667 -23.666 -74.834 -54.999 -96.501s-69.666 -32.5 -114.999 -32.5s-83.833 11 -115.5 33s-49.5 54 -53.5 96h93 c2 -16.667 9.66699 -30.334 23 -41.001zM184.997 710.001l0.000976562 -478c0 -45.333 10.833 -81 32.5 -107s53.167 -39 94.5 -39s72 12.833 92 38.5s30 61.5 30 107.5v478h124v-479c0 -76 -20.833 -136.333 -62.5 -181s-102.5 -67 -182.5 -67 c-80.667 0 -142.834 22.5 -186.501 67.5s-65.5 105.167 -65.5 180.5v479h124z"/>
    <glyph glyph-name="ubreve" unicode="ŭ" d="M350 19c-28 -20.667 -59 -31.001 -93 -31.001c-52 0 -93 14 -123 42c-16 15.333 -27.667 35.333 -35 60s-11 56.334 -11 95.001v315h119v-303c0 -76.667 29.333 -115 88 -115c38 0 65.5 14.667 82.5 44s25.5 63 25.5 101v273h118v-500h-111v92 c-12 -28 -32 -52.333 -60 -73zM254.5 662.499c13.667 -15 31.167 -22.5 52.5 -22.5s38.833 7.5 52.5 22.5s20.834 35.167 21.501 60.5h90c-3.33301 -52.667 -20.333 -91.834 -51 -117.501s-68.334 -38.5 -113.001 -38.5s-82.334 12.833 -113.001 38.5 s-47.667 64.834 -51 117.501h90c0.666992 -25.333 7.83398 -45.5 21.501 -60.5z"/>
    <glyph glyph-name="Uring" unicode="Ů" d="M231.5 761c-19.667 18.667 -29.5 42 -29.5 70s9.83301 51.167 29.5 69.5s45.834 27.5 78.501 27.5s58.834 -9.16699 78.501 -27.5s29.5 -41.5 29.5 -69.5s-9.83301 -51.333 -29.5 -70s-45.834 -28 -78.501 -28s-58.834 9.33301 -78.501 28zM341.5 798 c8.33301 8.66699 12.5 19.667 12.5 33s-4.16699 24.166 -12.5 32.499s-18.833 12.5 -31.5 12.5s-23.167 -4.16699 -31.5 -12.5s-12.5 -19.166 -12.5 -32.499s4.16699 -24.333 12.5 -33s18.833 -13 31.5 -13s23.167 4.33301 31.5 13zM185 710l0.000976562 -478 c0 -45.333 10.833 -81 32.5 -107s53.167 -39 94.5 -39s72 12.833 92 38.5s30 61.5 30 107.5v478h124v-479c0 -76 -20.833 -136.333 -62.5 -181s-102.5 -67 -182.5 -67c-80.667 0 -142.834 22.5 -186.501 67.5s-65.5 105.167 -65.5 180.5v479h124z"/>
    <glyph glyph-name="uring" unicode="ů" d="M350 19c-28 -20.667 -59 -31.001 -93 -31.001c-52 0 -93 14 -123 42c-16 15.333 -27.667 35.333 -35 60s-11 56.334 -11 95.001v315h119v-303c0 -76.667 29.333 -115 88 -115c38 0 65.5 14.667 82.5 44s25.5 63 25.5 101v273h118v-500h-111v92 c-12 -28 -32 -52.333 -60 -73zM226 579.499c-20 20.333 -29.999 45.5 -29.999 75.5s10.167 55 30.5 75s47.166 30 80.499 30s60.166 -10 80.499 -30s30.5 -45 30.5 -75s-10.167 -55.167 -30.5 -75.5s-47.166 -30.5 -80.499 -30.5c-34 0 -61 10.167 -81 30.5z M342.001 617.999c8.66699 10 13 22.333 13 37c0 14 -4.33301 26 -13 36s-20.334 15 -35.001 15c-14 0 -25.5 -5 -34.5 -15s-13.5 -22 -13.5 -36c0 -14.667 4.5 -27 13.5 -37s20.5 -15 34.5 -15c14.667 0 26.334 5 35.001 15z"/>
    <glyph glyph-name="Uhungarumlaut" unicode="Ű" d="M231 892h117l-78 -122h-107zM417 892h117l-78 -122h-106zM185 710l0.000976562 -478c0 -45.333 10.833 -81 32.5 -107s53.167 -39 94.5 -39s72 12.833 92 38.5s30 61.5 30 107.5v478h124v-479c0 -76 -20.833 -136.333 -62.5 -181s-102.5 -67 -182.5 -67 c-80.667 0 -142.834 22.5 -186.501 67.5s-65.5 105.167 -65.5 180.5v479h124z"/>
    <glyph glyph-name="uhungarumlaut" unicode="ű" d="M350 19c-28 -20.667 -59 -31.001 -93 -31.001c-52 0 -93 14 -123 42c-16 15.333 -27.667 35.333 -35 60s-11 56.334 -11 95.001v315h119v-303c0 -76.667 29.333 -115 88 -115c38 0 65.5 14.667 82.5 44s25.5 63 25.5 101v273h118v-500h-111v92 c-12 -28 -32 -52.333 -60 -73zM244 722.999h118l-93 -151h-107zM427 722.999h118l-93 -151h-107z"/>
    <glyph glyph-name="Uogonek" unicode="Ų" d="M558 710l0.00292969 -479c0 -57.333 -11.833 -106 -35.5 -146s-58.5 -68.333 -104.5 -85c-5.33301 -2 -13.333 -4.33301 -24 -7c-32.667 -12 -56.834 -26.5 -72.501 -43.5s-23.5 -34.167 -23.5 -51.5c0 -13.333 3.66699 -24.5 11 -33.5s16.666 -13.5 27.999 -13.5 c12 0 22 4.16699 30 12.5s13.667 19.166 17 32.499l68 -17c-4.66699 -28 -18.5 -49 -41.5 -63s-51.167 -21 -84.5 -21c-30.667 0 -56.334 8 -77.001 24s-31 38.333 -31 67c0 39.333 20 72.333 60 99c-69.333 6.66699 -122.833 31.834 -160.5 75.501s-56.5 100.5 -56.5 170.5 v479h124v-478c0 -45.333 10.833 -81 32.5 -107s53.167 -39 94.5 -39s72 12.833 92 38.5s30 61.5 30 107.5v478h124z"/>
    <glyph glyph-name="uogonek" unicode="ų" d="M555 -121c-4.66699 -28 -18.4971 -49 -41.4971 -63s-51.167 -21 -84.5 -21c-30.667 0 -56.334 8 -77.001 24s-31 38.333 -31 67c0 46.667 29 84.667 87 114h2v92c-12 -28 -32 -52.333 -60 -73s-59 -31 -93 -31c-52 0 -93 14 -123 42c-16 15.333 -27.667 35.333 -35 60 s-11 56.334 -11 95.001v315h119v-303c0 -76.667 29.333 -115 88 -115c38 0 65.5 14.667 82.5 44s25.5 63 25.5 101v273h118v-500c-40.667 -11.333 -70.834 -26.333 -90.501 -45s-29.5 -37.667 -29.5 -57c0 -13.333 3.66699 -24.5 11 -33.5s16.666 -13.5 27.999 -13.5 c12 0 22 4.16699 30 12.5s13.667 19.166 17 32.499z"/>
    <glyph glyph-name="Wcircumflex" unicode="Ŵ" d="M376 770l-67 71l-66 -71h-99l101 122h131l100 -122h-100zM40 710h113.001l20 -440c2 -44.667 3 -91.667 3 -141h10c1.33301 30 7.33301 71.667 18 125l56 279h100l56 -279c10.667 -53.333 16.667 -95 18 -125h10c0 49.333 1 96.333 3 141l20 440h113l-52 -710h-142 l-53 278c-9.33301 48 -15.333 95.667 -18 143h-10c-2.66699 -45.333 -8.33398 -93 -17.001 -143l-54 -278h-141z"/>
    <glyph glyph-name="wcircumflex" unicode="ŵ" d="M133 500l40.002 -326l9 -73h6c3.33301 26.667 7.66602 54 12.999 82l55 317h107l55 -317c5.33301 -28 9.66602 -55.333 12.999 -82h6l9 73l40 326h111l-91 -500h-130l-55 309c-4 20.667 -7 47 -9 79h-5c-1.33301 -28 -4 -54.333 -8 -79l-56 -309h-130l-91 500h111z M375.002 572l-65 96l-65 -96h-98l101 151h124l101 -151h-98z"/>
    <glyph glyph-name="Ycircumflex" unicode="Ŷ" d="M376 770l-67 71l-66 -71h-99l101 122h131l100 -122h-100zM372 0h-123v277l-221 433h134l148 -330l147 330h135l-220 -433v-277z"/>
    <glyph glyph-name="ycircumflex" unicode="ŷ" d="M320 116l118 384.001h124l-191 -528c-22.667 -64 -51.667 -108.833 -87 -134.5s-79.333 -38.5 -132 -38.5c-22.667 0 -41 1.66699 -55 5v93c16 -2 31.333 -3 46 -3c27.333 0 49.333 6.16699 66 18.5s29.667 33.166 39 62.499l10 30l-192 495h133zM375 572.001l-65 96 l-65 -96h-98l101 151h124l101 -151h-98z"/>
    <glyph glyph-name="Ydieresis" unicode="Ÿ" d="M258 768h-122v124h122v-124zM484 768h-122v124h122v-124zM372 0h-123v277l-221 433h134l148 -330l147 330h135l-220 -433v-277z"/>
    <glyph glyph-name="Zacute" unicode="Ź" d="M331 892h138l-109 -122h-100zM406 608h-330v102h467v-102l-341 -506h355v-102h-494v103z"/>
    <glyph glyph-name="zacute" unicode="ź" d="M369 409h-265v91h405v-76l-271 -331h287v-93h-431v79zM344 723h132l-118 -151h-96z"/>
    <glyph glyph-name="Zdotaccent" unicode="Ż" d="M375 768h-130v124h130v-124zM406 608h-330v102h467v-102l-341 -506h355v-102h-494v103z"/>
    <glyph glyph-name="zdotaccent" unicode="ż" d="M369 409h-265v91h405v-76l-271 -331h287v-93h-431v79zM383 584h-146v138h146v-138z"/>
    <glyph glyph-name="Zcaron" unicode="Ž" d="M244 892l67 -71l66 71h99l-101 -122h-131l-100 122h100zM406 608h-330v102h467v-102l-341 -506h355v-102h-494v103z"/>
    <glyph glyph-name="zcaron" unicode="ž" d="M369 409h-265v91h405v-76l-271 -331h287v-93h-431v79zM245 723l65 -96l65 96h98l-101 -151h-124l-101 151h98z"/>
    <glyph glyph-name="florin" unicode="ƒ" d="M384.5 591.5c-11.667 -17 -19.832 -43.167 -24.499 -78.5l-10 -79h103v-85h-114l-63 -499h-122l63 499h-94v85h105l8 64c6 49.333 16.167 89.5 30.5 120.5s35.333 54.333 63 70s64.5 23.5 110.5 23.5c23.333 0 42.333 -2.66699 57 -8v-92c-14.667 3.33301 -31 5 -49 5 c-30.667 0 -51.834 -8.5 -63.501 -25.5z"/>
    <glyph glyph-name="AEacute" unicode="Ǽ" d="M459 770h-100l71 122h138zM581 101v-101h-297v155h-119l-38 -155h-117l201 710h363v-101h-181v-196h164v-99h-164v-213h188zM284 249v384l-95 -384h95z"/>
    <glyph glyph-name="aeacute" unicode="ǽ" d="M600 160l-0.000976562 -2.00195c-1.33301 -52 -17.333 -93.333 -48 -124s-72 -46 -124 -46c-28.667 0 -54.667 5.66699 -78 17s-42.666 27 -57.999 47c-13.333 -19.333 -31.166 -34.666 -53.499 -45.999s-46.5 -17 -72.5 -17c-42.667 0 -77.667 12.333 -105 37 s-41 59.334 -41 104.001s11.5 78.667 34.5 102s61.5 40.333 115.5 51l88 16v54c0 26.667 -5 46.5 -15 59.5s-26 19.5 -48 19.5c-20 0 -35.833 -6.66699 -47.5 -20s-17.5 -32.666 -17.5 -57.999v-23h-102v6c0 58.667 15.5 102.167 46.5 130.5s70.833 42.5 119.5 42.5 c54 0 94 -13 120 -39c29.333 26 67.666 39 114.999 39c52 0 93 -16.167 123 -48.5s45 -78.833 45 -139.5v-89h-237v-67c0 -30.667 6.16699 -53.667 18.5 -69s29.5 -23 51.5 -23s39.667 8.16699 53 24.5s20.333 40.166 21 71.499v11zM359.999 329.998v-31h134v32 c0 64 -22.333 96 -67 96s-67 -32.333 -67 -97zM258.999 235.998l-58.001 -13c-26 -5.33301 -45.5 -14 -58.5 -26s-19.5 -31 -19.5 -57c0 -24 5.83301 -42.167 17.5 -54.5s26.834 -18.5 45.501 -18.5c19.333 0 36.333 7.5 51 22.5s22 35.167 22 60.5v86zM343.998 722.998h132 l-118 -151h-96z"/>
    <glyph glyph-name="Oslashacute" unicode="Ǿ" d="M360 770h-100l71 122h138zM575 391l-0.000976562 -72c0 -106.667 -22.333 -189.334 -67 -248.001s-110.667 -88 -198 -88c-69.333 0 -125.666 19 -168.999 57l-46 -74l-51 25l58 94c-38 57.333 -57 135.333 -57 234v72c0 106.667 22.333 189.334 67 248.001 s110.667 88 198 88c64.667 0 118 -16.333 160 -49l40 65l50 -27l-50 -80c43.333 -57.333 65 -139 65 -245zM179.999 210l229 370c-22.667 30.667 -55.667 46 -99 46c-48 0 -83.167 -18.667 -105.5 -56s-33.5 -96 -33.5 -176v-78c0 -40.667 3 -76 9 -106zM448.999 394 c0 49.333 -3.99902 90.333 -11.999 123l-233 -376c21.333 -38 56.666 -57 105.999 -57c48 0 83.167 18.667 105.5 56s33.5 96 33.5 176v78z"/>
    <glyph glyph-name="oslashacute" unicode="ǿ" d="M536.5 355.5c11 -31.667 16.501 -66.833 16.501 -105.5c0 -53.333 -10.333 -99.833 -31 -139.5s-49.334 -70 -86.001 -91s-78.667 -31.5 -126 -31.5c-55.333 0 -103 14.333 -143 43l-38 -47l-38 28l40 50c-42.667 49.333 -64 112 -64 188 c0 53.333 10.333 99.833 31 139.5s49.334 70 86.001 91s78.667 31.5 126 31.5c57.333 0 105.666 -14.667 144.999 -44l36 45l38 -28l-39 -49c20 -22 35.5 -48.833 46.5 -80.5zM205.001 154.001l185.001 233c-20.667 22 -47.334 33 -80.001 33 c-38 0 -67.667 -14.833 -89 -44.5s-32 -71.5 -32 -125.5c0 -38.667 5.33301 -70.667 16 -96zM399.002 124.501c21.333 29.667 32 71.5 32 125.5c0 37.333 -5 68.333 -15 93l-185 -231c20 -21.333 46.333 -32 79 -32c38 0 67.667 14.833 89 44.5zM344.002 723.001h132 l-118 -151h-96z"/>
    <glyph glyph-name="Scommaaccent" unicode="Ș" d="M135 38.5c-46 37 -77.001 87.1699 -93.001 150.503l110 38c24.667 -94.667 80 -142 166 -142c34 0 63.333 7.5 88 22.5s37 39.5 37 73.5c0 35.333 -8.83301 60.666 -26.5 75.999s-43.167 27.666 -76.5 36.999l-95 26c-55.333 14.667 -98.833 38.334 -130.5 71.001 s-47.5 75 -47.5 127c0 39.333 10.167 74.833 30.5 106.5s48.666 56.667 84.999 75s77.833 27.5 124.5 27.5c67.333 0 123.5 -14.5 168.5 -43.5s74.167 -73.167 87.5 -132.5l-104 -54c-10 46 -28.667 79.167 -56 99.5s-59.666 30.5 -96.999 30.5 c-40.667 0 -70 -9.16699 -88 -27.5s-27 -40.833 -27 -67.5c0 -25.333 8.66699 -46.833 26 -64.5s41.333 -30.834 72 -39.501l94 -26c58 -16 103.333 -39 136 -69s49 -75.333 49 -136c0 -38 -9.66699 -73.333 -29 -106s-48.166 -58.834 -86.499 -78.501 s-84.5 -29.5 -138.5 -29.5c-73.333 0 -133 18.5 -179 55.5zM281.999 -179.997c24.667 6 41.5 12.8311 50.5 20.498s13.5 16.834 13.5 27.501h-73v96h135v-77c0 -29.333 -7.66699 -53.166 -23 -71.499s-42 -31.5 -80 -39.5z"/>
    <glyph glyph-name="scommaaccent" unicode="ș" d="M169.5 25.5c-39.667 25 -66.8301 60.5 -81.4971 106.5l88 42c11.333 -32.667 29.5 -57.334 54.5 -74.001s55.833 -25 92.5 -25c30 0 53 5.5 69 16.5s24 26.5 24 46.5c0 19.333 -5.83301 34 -17.5 44s-30.834 16.667 -57.501 20l-79 10 c-48.667 6 -85.834 21.833 -111.501 47.5s-38.5 58.5 -38.5 98.5c0 48 18.333 85.667 55 113s86.667 41 150 41c53.333 0 98.666 -11.333 135.999 -34s62.333 -53.667 75 -93l-85 -45c-10.667 26.667 -27.167 47.834 -49.5 63.501s-49.166 23.5 -80.499 23.5 c-29.333 0 -51.833 -5.16699 -67.5 -15.5s-23.5 -25.5 -23.5 -45.5c0 -18 6.16699 -32 18.5 -42s32.166 -16.667 59.499 -20l87 -12c93.333 -12.667 140 -60.667 140 -144c0 -50 -18.667 -89.167 -56 -117.5s-88.666 -42.5 -153.999 -42.5 c-58.667 0 -107.834 12.5 -147.501 37.5zM275.004 -180c24.667 6 41.5 12.8311 50.5 20.498s13.5 16.834 13.5 27.501h-73v96h135v-77c0 -29.333 -7.66699 -53.166 -23 -71.499s-42 -31.5 -80 -39.5z"/>
    <glyph glyph-name="uni021A" unicode="Ț" d="M579 710v-104h-208v-606h-124v606h-208v104h540zM251 -180c24.667 6 41.5 12.8311 50.5 20.498s13.5 16.834 13.5 27.501h-73v96h135v-77c0 -29.333 -7.66699 -53.166 -23 -71.499s-42 -31.5 -80 -39.5z"/>
    <glyph glyph-name="uni021B" unicode="ț" d="M78 500l137 -0.000976562v127l118 47v-174h185v-88h-185v-225c0 -30 8.33301 -52.667 25 -68s40.667 -23 72 -23c28.667 0 58 2.33301 88 7v-99c-20.667 -4 -38.5 -7 -53.5 -9s-32.833 -3 -53.5 -3c-64.667 0 -113.5 15.333 -146.5 46s-49.5 74.334 -49.5 131.001v243 h-137v88zM342 -180.001c24.667 6 41.5 12.8311 50.5 20.498s13.5 16.834 13.5 27.501h-73v96h135v-77c0 -29.333 -7.66699 -53.166 -23 -71.499s-42 -31.5 -80 -39.5z"/>
    <glyph glyph-name="uni0237" unicode="ȷ" d="M101 -87c26 -6 46.334 -9.83301 61.001 -11.5s30 -2.5 46 -2.5c41.333 0 71.666 9.5 90.999 28.5s29 50.5 29 94.5v388h-196v90h313v-486c0 -142.667 -72 -214 -216 -214c-50 0 -92.667 6 -128 18v95z"/>
    <glyph glyph-name="uni0243" unicode="Ƀ" d="M509.5 72c-29 -36.667 -74.833 -59.333 -137.5 -68v-111h-56v107h-72v-107h-55v107h-122v695h122v90h55v-90h56h16v90h56v-96c58 -10.667 99.667 -32.5 125 -65.5s38 -69.833 38 -110.5c0 -35.333 -10.333 -67 -31 -95s-51.667 -47.333 -93 -58 c44.667 -7.33301 79.5 -25.166 104.5 -53.499s37.5 -64.833 37.5 -109.5c0 -46.667 -14.5 -88.334 -43.5 -125.001zM186 397.001l104 -0.000976562c79.333 0 119 35 119 105c0 28.667 -8.83301 52.334 -26.5 71.001s-48.5 28 -92.5 28h-104v-204zM397.5 126.5 c19.667 21.667 29.499 48.833 29.499 81.5c0 30 -9.66699 54.333 -29 73s-48.333 28 -87 28h-125v-215h118c42.667 0 73.834 10.833 93.501 32.5z"/>
    <glyph glyph-name="circumflex" unicode="ˆ" d="M375 572l-65 96l-65 -96h-98l101 151h124l101 -151h-98z"/>
    <glyph glyph-name="caron" unicode="ˇ" d="M245 723l65 -96l65 96h98l-101 -151h-124l-101 151h98z"/>
    <glyph glyph-name="breve" unicode="˘" d="M257.5 662.5c13.667 -15 31.167 -22.5 52.5 -22.5s38.833 7.5 52.5 22.5s20.834 35.167 21.501 60.5h90c-3.33301 -52.667 -20.333 -91.834 -51 -117.501s-68.334 -38.5 -113.001 -38.5s-82.334 12.833 -113.001 38.5s-47.667 64.834 -51 117.501h90 c0.666992 -25.333 7.83398 -45.5 21.501 -60.5z"/>
    <glyph glyph-name="dotaccent" unicode="˙" d="M383 584h-146v138h146v-138z"/>
    <glyph glyph-name="ring" unicode="˚" d="M229 579.5c-20 20.333 -29.999 45.5 -29.999 75.5s10.167 55 30.5 75s47.166 30 80.499 30s60.166 -10 80.499 -30s30.5 -45 30.5 -75s-10.167 -55.167 -30.5 -75.5s-47.166 -30.5 -80.499 -30.5c-34 0 -61 10.167 -81 30.5zM345.001 618c8.66699 10 13 22.333 13 37 c0 14 -4.33301 26 -13 36s-20.334 15 -35.001 15c-14 0 -25.5 -5 -34.5 -15s-13.5 -22 -13.5 -36c0 -14.667 4.5 -27 13.5 -37s20.5 -15 34.5 -15c14.667 0 26.334 5 35.001 15z"/>
    <glyph glyph-name="ogonek" unicode="˛" d="M385.5 -184c-23 -14 -51.1641 -20.999 -84.4971 -20.999c-30.667 0 -56.334 8 -77.001 24s-31 38.333 -31 67c0 46.667 29 84.667 87 114h113c-40.667 -11.333 -70.834 -26.333 -90.501 -45s-29.5 -37.667 -29.5 -57c0 -13.333 3.66699 -24.5 11 -33.5 s16.666 -13.5 27.999 -13.5c12 0 22 4.16699 30 12.5s13.667 19.166 17 32.499l68 -17c-4.66699 -28 -18.5 -49 -41.5 -63z"/>
    <glyph glyph-name="tilde" unicode="˜" d="M284.5 719c13 -6 27.834 -14.998 44.501 -26.998c11.333 -8.66699 21.166 -15.167 29.499 -19.5s17.166 -6.5 26.499 -6.5c12 0 22.5 5 31.5 15s15.5 24.667 19.5 44l71 -17c-10.667 -44.667 -27 -77 -49 -97s-47.333 -30 -76 -30c-16.667 0 -31.167 3 -43.5 9 s-25.5 14.333 -39.5 25c-12.667 9.33301 -23.167 16.166 -31.5 20.499s-18.166 6.5 -29.499 6.5c-13.333 0 -24.5 -4.83301 -33.5 -14.5s-14.833 -22.834 -17.5 -39.501l-74 16c8 42.667 23.667 74 47 94s49.333 30 78 30c18 0 33.5 -3 46.5 -9z"/>
    <glyph glyph-name="hungarumlaut" unicode="˝" d="M200 723h118l-93 -151h-107zM383 723h118l-93 -151h-107z"/>
    <glyph glyph-name="gravecomb" unicode="̀" horiz-adv-x="0" d="M-299 572l-118 151h132l82 -151h-96z"/>
    <glyph glyph-name="acutecomb" unicode="́" horiz-adv-x="0" d="M-335 723h132l-118 -151h-96z"/>
    <glyph glyph-name="uni0302" unicode="̂" horiz-adv-x="0" d="M-245 572l-65 96l-65 -96h-98l101 151h124l101 -151h-98z"/>
    <glyph glyph-name="tildecomb" unicode="̃" horiz-adv-x="0" d="M-335.5 719c13 -6 27.834 -14.998 44.501 -26.998c11.333 -8.66699 21.166 -15.167 29.499 -19.5s17.166 -6.5 26.499 -6.5c12 0 22.5 5 31.5 15s15.5 24.667 19.5 44l71 -17c-10.667 -44.667 -27 -77 -49 -97s-47.333 -30 -76 -30c-16.667 0 -31.167 3 -43.5 9 s-25.5 14.333 -39.5 25c-12.667 9.33301 -23.167 16.166 -31.5 20.499s-18.166 6.5 -29.499 6.5c-13.333 0 -24.5 -4.83301 -33.5 -14.5s-14.833 -22.834 -17.5 -39.501l-74 16c8 42.667 23.667 74 47 94s49.333 30 78 30c18 0 33.5 -3 46.5 -9z"/>
    <glyph glyph-name="uni0304" unicode="̄" horiz-adv-x="0" d="M-467 670h314v-82h-314v82z"/>
    <glyph glyph-name="uni0306" unicode="̆" horiz-adv-x="0" d="M-362.5 662.5c13.667 -15 31.167 -22.5 52.5 -22.5s38.833 7.5 52.5 22.5s20.834 35.167 21.501 60.5h90c-3.33301 -52.667 -20.333 -91.834 -51 -117.501s-68.334 -38.5 -113.001 -38.5s-82.334 12.833 -113.001 38.5s-47.667 64.834 -51 117.501h90 c0.666992 -25.333 7.83398 -45.5 21.501 -60.5z"/>
    <glyph glyph-name="uni0307" unicode="̇" horiz-adv-x="0" d="M-237 584h-146v138h146v-138z"/>
    <glyph glyph-name="uni0308" unicode="̈" horiz-adv-x="0" d="M-346 588h-135v135h135v-135zM-139 588h-135v135h135v-135z"/>
    <glyph glyph-name="uni030A" unicode="̊" horiz-adv-x="0" d="M-391 579.5c-20 20.333 -29.999 45.5 -29.999 75.5s10.167 55 30.5 75s47.166 30 80.499 30s60.166 -10 80.499 -30s30.5 -45 30.5 -75s-10.167 -55.167 -30.5 -75.5s-47.166 -30.5 -80.499 -30.5c-34 0 -61 10.167 -81 30.5zM-274.999 618c8.66699 10 13 22.333 13 37 c0 14 -4.33301 26 -13 36s-20.334 15 -35.001 15c-14 0 -25.5 -5 -34.5 -15s-13.5 -22 -13.5 -36c0 -14.667 4.5 -27 13.5 -37s20.5 -15 34.5 -15c14.667 0 26.334 5 35.001 15z"/>
    <glyph glyph-name="uni030B" unicode="̋" horiz-adv-x="0" d="M-414 723h118l-93 -151h-107zM-231 723h118l-93 -151h-107z"/>
    <glyph glyph-name="uni030C" unicode="̌" horiz-adv-x="0" d="M-375 723l65 -96l65 96h98l-101 -151h-124l-101 151h98z"/>
    <glyph glyph-name="uni0312" unicode="̒" horiz-adv-x="0" d="M-252 711c-24.667 -6 -41.5 -12.8311 -50.5 -20.498s-13.5 -16.834 -13.5 -27.501h73v-96h-135v77c0 29.333 7.66699 53.166 23 71.499s42 31.5 80 39.5z"/>
    <glyph glyph-name="uni0326" unicode="̦" horiz-adv-x="0" d="M-368 -180c24.667 6 41.5 12.8311 50.5 20.498s13.5 16.834 13.5 27.501h-73v96h135v-77c0 -29.333 -7.66699 -53.166 -23 -71.499s-42 -31.5 -80 -39.5z"/>
    <glyph glyph-name="uni0327" unicode="̧" horiz-adv-x="0" d="M-292 7l-33.001 -56c4.66699 4 11.834 7.33301 21.501 10s19.5 4 29.5 4c24 0 43.5 -6.66699 58.5 -20s22.5 -31.333 22.5 -54c0 -28 -11.833 -51 -35.5 -69s-53.5 -27 -89.5 -27c-53.333 0 -89.666 19.667 -108.999 59l72 19c8 -17.333 21.333 -26 40 -26 c11.333 0 21 3.5 29 10.5s12 16.833 12 29.5c0 12 -3.83301 21.333 -11.5 28s-16.834 10 -27.501 10c-14.667 0 -26 -5 -34 -15l-49 13l41 84h63z"/>
    <glyph glyph-name="uni0328" unicode="̨" horiz-adv-x="0" d="M-234.5 -184c-23 -14 -51.1641 -20.999 -84.4971 -20.999c-30.667 0 -56.334 8 -77.001 24s-31 38.333 -31 67c0 46.667 29 84.667 87 114h113c-40.667 -11.333 -70.834 -26.333 -90.501 -45s-29.5 -37.667 -29.5 -57c0 -13.333 3.66699 -24.5 11 -33.5 s16.666 -13.5 27.999 -13.5c12 0 22 4.16699 30 12.5s13.667 19.166 17 32.499l68 -17c-4.66699 -28 -18.5 -49 -41.5 -63z"/>
    <glyph glyph-name="uni0394" unicode="Δ" d="M242 710h139l185 -710h-512zM195 96h225l-110 488z"/>
    <glyph glyph-name="uni03A9" unicode="Ω" d="M356 0l-16.001 246.999c36 9.33301 62.667 31.166 80 65.499s26 76.833 26 127.5c0 55.333 -11.167 100.333 -33.5 135s-56.5 52 -102.5 52c-43.333 0 -76.833 -17.833 -100.5 -53.5s-35.5 -80.5 -35.5 -134.5c0 -48 9.33301 -89.667 28 -125 s44.334 -57.666 77.001 -66.999l-16 -247h-201v103h114l7 75c-36.667 18.667 -66.667 51.334 -90 98.001s-35 101.334 -35 164.001c0 56 10.833 105.667 32.5 149s51.667 77.166 90 101.499s81.833 36.5 130.5 36.5c50.667 0 95 -11.833 133 -35.5s67.167 -57 87.5 -100 s30.5 -92.833 30.5 -149.5c0 -68 -10.5 -124.833 -31.5 -170.5s-52.5 -77.167 -94.5 -94.5l8 -74h115v-103h-203z"/>
    <glyph glyph-name="uni03BC" unicode="μ" d="M521 500v-500h-111v92c-12 -28 -32 -52.333 -60 -73s-59 -31 -93 -31c-16 0 -33.333 1.66699 -52 5v-188h-117v695h119v-303c0 -76.667 29.333 -115 88 -115c38 0 65.5 14.667 82.5 44s25.5 63 25.5 101v273h118z"/>
    <glyph glyph-name="pi" unicode="π" d="M513 -10c-49.333 0 -83.333 12 -102 36s-28 56.333 -28 97v291h-145v-414h-118v414h-71v86h522v-86h-70v-277c0 -18.667 3.5 -32 10.5 -40s17.5 -12 31.5 -12c10 0 19 1 27 3v-89c-24 -6 -43 -9 -57 -9z"/>
    <glyph glyph-name="uni0E3F" unicode="฿" d="M512.5 304.5c25 -28.333 37.5 -65.1699 37.5 -110.503c0 -33.333 -7.5 -64.666 -22.5 -93.999s-39.833 -53.333 -74.5 -72s-79.334 -28 -134.001 -28h-6v-107h-55v107h-188v695h188v91h55v-91c78.667 -2 134.834 -20.667 168.501 -56s50.5 -77 50.5 -125 c0 -36 -10.5 -68.167 -31.5 -96.5s-51.833 -48.166 -92.5 -59.499c44.667 -7.33301 79.5 -25.166 104.5 -53.499zM177 392.996h81v215h-81v-215zM313 606.996v-213.001c70 4.66699 105 41.334 105 110.001c0 64.667 -35 99 -105 103zM258 86.9951v222h-81v-222h81z M407 121.495c19.333 22.333 29.001 50.167 29.001 83.5c0 31.333 -10 56.5 -30 75.5s-50 28.5 -90 28.5h-3v-222c43.333 0.666992 74.666 12.167 93.999 34.5z"/>
    <glyph glyph-name="Wgrave" unicode="Ẁ" d="M260 770l-109 122h138l71 -122h-100zM40 710h113.001l20 -440c2 -44.667 3 -91.667 3 -141h10c1.33301 30 7.33301 71.667 18 125l56 279h100l56 -279c10.667 -53.333 16.667 -95 18 -125h10c0 49.333 1 96.333 3 141l20 440h113l-52 -710h-142l-53 278 c-9.33301 48 -15.333 95.667 -18 143h-10c-2.66699 -45.333 -8.33398 -93 -17.001 -143l-54 -278h-141z"/>
    <glyph glyph-name="wgrave" unicode="ẁ" d="M133 500l40.002 -326l9 -73h6c3.33301 26.667 7.66602 54 12.999 82l55 317h107l55 -317c5.33301 -28 9.66602 -55.333 12.999 -82h6l9 73l40 326h111l-91 -500h-130l-55 309c-4 20.667 -7 47 -9 79h-5c-1.33301 -28 -4 -54.333 -8 -79l-56 -309h-130l-91 500h111z M261.002 572l-118 151h132l82 -151h-96z"/>
    <glyph glyph-name="Wacute" unicode="Ẃ" d="M331 892h138l-109 -122h-100zM40 710h113.001l20 -440c2 -44.667 3 -91.667 3 -141h10c1.33301 30 7.33301 71.667 18 125l56 279h100l56 -279c10.667 -53.333 16.667 -95 18 -125h10c0 49.333 1 96.333 3 141l20 440h113l-52 -710h-142l-53 278 c-9.33301 48 -15.333 95.667 -18 143h-10c-2.66699 -45.333 -8.33398 -93 -17.001 -143l-54 -278h-141z"/>
    <glyph glyph-name="wacute" unicode="ẃ" d="M133 500l40.002 -326l9 -73h6c3.33301 26.667 7.66602 54 12.999 82l55 317h107l55 -317c5.33301 -28 9.66602 -55.333 12.999 -82h6l9 73l40 326h111l-91 -500h-130l-55 309c-4 20.667 -7 47 -9 79h-5c-1.33301 -28 -4 -54.333 -8 -79l-56 -309h-130l-91 500h111z M344.002 723h132l-118 -151h-96z"/>
    <glyph glyph-name="Wdieresis" unicode="Ẅ" d="M258 768h-122v124h122v-124zM484 768h-122v124h122v-124zM40 710h113.001l20 -440c2 -44.667 3 -91.667 3 -141h10c1.33301 30 7.33301 71.667 18 125l56 279h100l56 -279c10.667 -53.333 16.667 -95 18 -125h10c0 49.333 1 96.333 3 141l20 440h113l-52 -710h-142 l-53 278c-9.33301 48 -15.333 95.667 -18 143h-10c-2.66699 -45.333 -8.33398 -93 -17.001 -143l-54 -278h-141z"/>
    <glyph glyph-name="wdieresis" unicode="ẅ" d="M133 500l40.002 -326l9 -73h6c3.33301 26.667 7.66602 54 12.999 82l55 317h107l55 -317c5.33301 -28 9.66602 -55.333 12.999 -82h6l9 73l40 326h111l-91 -500h-130l-55 309c-4 20.667 -7 47 -9 79h-5c-1.33301 -28 -4 -54.333 -8 -79l-56 -309h-130l-91 500h111z M274.002 588h-135v135h135v-135zM481.002 588h-135v135h135v-135z"/>
    <glyph glyph-name="Ygrave" unicode="Ỳ" d="M260 770l-109 122h138l71 -122h-100zM372 0h-123v277l-221 433h134l148 -330l147 330h135l-220 -433v-277z"/>
    <glyph glyph-name="ygrave" unicode="ỳ" d="M320 116l118 384.001h124l-191 -528c-22.667 -64 -51.667 -108.833 -87 -134.5s-79.333 -38.5 -132 -38.5c-22.667 0 -41 1.66699 -55 5v93c16 -2 31.333 -3 46 -3c27.333 0 49.333 6.16699 66 18.5s29.667 33.166 39 62.499l10 30l-192 495h133zM261 572.001l-118 151 h132l82 -151h-96z"/>
    <glyph glyph-name="uni2002" unicode=" " horiz-adv-x="500"/>
    <glyph glyph-name="uni2003" unicode=" " horiz-adv-x="1000"/>
    <glyph glyph-name="uni2004" unicode=" " horiz-adv-x="0"/>
    <glyph glyph-name="uni2005" unicode=" " horiz-adv-x="250"/>
    <glyph glyph-name="uni2009" unicode=" " horiz-adv-x="135"/>
    <glyph glyph-name="uni200A" unicode=" " horiz-adv-x="75"/>
    <glyph glyph-name="endash" unicode="–" d="M527 322v-88h-433v88h433z"/>
    <glyph glyph-name="emdash" unicode="—" d="M585 322v-88h-551v88h551z"/>
    <glyph glyph-name="quoteleft" unicode="‘" d="M383 692c-30 -12.667 -50 -26.3311 -60 -40.998s-15 -36.667 -15 -66h79v-150h-155v148c0 41.333 9.5 75.166 28.5 101.499s49.833 47.166 92.5 62.499z"/>
    <glyph glyph-name="quoteright" unicode="’" d="M236 453c30 12.667 50 26.3311 60 40.998s15 36.667 15 66h-79v150h155v-148c0 -41.333 -9.5 -75.166 -28.5 -101.499s-49.833 -47.166 -92.5 -62.499z"/>
    <glyph glyph-name="quotesinglbase" unicode="‚" d="M236 -107c30 12.667 50 26.3311 60 40.998s15 36.667 15 66h-79v150h155v-148c0 -41.333 -9.5 -75.166 -28.5 -101.499s-49.833 -47.166 -92.5 -62.499z"/>
    <glyph glyph-name="quotedblleft" unicode="“" d="M277 692c-30 -12.667 -50 -26.3311 -60 -40.998s-15 -36.667 -15 -66h79v-149h-155v148c0 41.333 9.5 75.166 28.5 101.499s49.833 47.166 92.5 62.499zM489 692.003c-29.333 -12.667 -49.167 -26.498 -59.5 -41.498s-15.5 -36.833 -15.5 -65.5h79v-149h-154v148 c0 41.333 9.33301 75.166 28 101.499s49.667 47.166 93 62.499z"/>
    <glyph glyph-name="quotedblright" unicode="”" d="M130 454c29.333 12.667 49.167 26.3301 59.5 40.9971s15.5 36.334 15.5 65.001h-79v150h155v-148c0 -41.333 -9.5 -75.166 -28.5 -101.499s-49.833 -47.166 -92.5 -62.499zM343.001 453.996c29.333 12 49 25.3311 59 39.998s15 36.667 15 66h-79v150h155v-148 c0 -41.333 -9.5 -75.166 -28.5 -101.499s-49.833 -47.166 -92.5 -62.499z"/>
    <glyph glyph-name="quotedblbase" unicode="„" d="M130 -107c29.333 12.667 49.167 26.3301 59.5 40.9971s15.5 36.334 15.5 65.001h-79v150h155v-148c0 -41.333 -9.5 -75.166 -28.5 -101.499s-49.833 -47.166 -92.5 -62.499zM343.001 -107.004c29.333 12 49 25.3311 59 39.998s15 36.667 15 66h-79v150h155v-148 c0 -41.333 -9.5 -75.166 -28.5 -101.499s-49.833 -47.166 -92.5 -62.499z"/>
    <glyph glyph-name="dagger" unicode="†" d="M359 -100h-99v519h-135v81h135v220h99v-220h135v-81h-135v-519z"/>
    <glyph glyph-name="daggerdbl" unicode="‡" d="M359 419v-230h134v-82h-134v-207h-99v207h-135v82h135v230h-135v81h135v220h99v-220h135v-81h-135z"/>
    <glyph glyph-name="bullet" unicode="•" d="M389 422.5c20.667 -20.333 30.999 -47.166 30.999 -80.499c0 -32 -10.5 -58 -31.5 -78s-47.5 -30 -79.5 -30s-58.333 10 -79 30s-31 46 -31 78c0 33.333 10.333 60.166 31 80.499s47 30.5 79 30.5c32.667 0 59.334 -10.167 80.001 -30.5z"/>
    <glyph glyph-name="ellipsis" unicode="…" d="M174 0h-143v148h143v-148zM381 0h-143v148h143v-148zM588 0h-143v148h143v-148z"/>
    <glyph glyph-name="perthousand" unicode="‰" d="M62.5 464.5c-23 25.667 -34.5 60.501 -34.5 104.501c0 43.333 11.333 77.666 34 102.999s53 38 91 38c37.333 0 67.5 -12.833 90.5 -38.5s34.5 -60.167 34.5 -103.5s-11.5 -77.833 -34.5 -103.5s-52.833 -38.5 -89.5 -38.5c-38 0 -68.5 12.833 -91.5 38.5zM519 609.001 l-475 -465v84l475 466v-85zM104 566.001c0 -24.667 4.33301 -43.832 13 -57.499s20.667 -20.5 36 -20.5c16 0 28.167 6.66699 36.5 20s12.5 32.666 12.5 57.999v6c0 24.667 -4.33301 43.667 -13 57s-20.667 20 -36 20s-27.333 -6.66699 -36 -20s-13 -32.333 -13 -57v-6z M551.5 246.503c23 -25.667 34.499 -60.168 34.499 -103.501s-11.5 -78 -34.5 -104s-52.833 -39 -89.5 -39c-35.333 0 -64 12 -86 36c-22 -24 -50.333 -36 -85 -36c-38 0 -68.5 13 -91.5 39s-34.5 61 -34.5 105c0 42.667 11.5 76.834 34.5 102.501s53.167 38.5 90.5 38.5 c34.667 0 63.334 -12 86.001 -36c22 24 50.667 36 86 36c36.667 0 66.5 -12.833 89.5 -38.5zM339.999 147.002c0 24.667 -4.33301 43.667 -13 57s-21 20 -37 20c-15.333 0 -27.333 -6.66699 -36 -20s-13 -32.333 -13 -57v-7c0 -24.667 4.33301 -43.667 13 -57 s20.667 -20 36 -20c16 0 28.333 6.66699 37 20s13 32.333 13 57v7zM510.999 147.002c0 24.667 -4.33301 43.667 -13 57s-20.667 20 -36 20s-27.333 -6.66699 -36 -20s-13 -32.333 -13 -57v-7c0 -24.667 4.33301 -43.667 13 -57s20.667 -20 36 -20c16 0 28.167 6.5 36.5 19.5 s12.5 32.167 12.5 57.5v7z"/>
    <glyph glyph-name="guilsinglleft" unicode="‹" d="M161 276l170 206h119l-166 -205l163 -210h-121z"/>
    <glyph glyph-name="guilsinglright" unicode="›" d="M173 67l163 210l-166 205h119l170 -206l-165 -209h-121z"/>
    <glyph glyph-name="fraction" unicode="⁄" horiz-adv-x="197" d="M413 727l-527 -744h-103l528 744h102z"/>
    <glyph glyph-name="uni20A9" unicode="₩" d="M543 403l-8 -75h46v-57h-52l-28 -271h-123l-31 271h-74l-31 -271h-124l-28 271h-52v57h46l-8 75h-38v57h32l-24 235h88l17 -235h75l29 235h109l29 -235h75l17 235h88l-24 -235h32v-57h-38zM294 460l32 0.000976562l-9 79c-2 19.333 -3.66699 42.666 -5 69.999h-5 c-0.666992 -24.667 -2 -48 -4 -70zM161 328.001h49l9 75h-63zM341 328.001l-9 75h-44l-9 -75h62zM464 403.001h-64l9 -75h49zM203 271.001h-37l9 -127c2 -22.667 3 -41 3 -55h4l6 55zM454 271.001l-38.001 -0.000976562l16 -127 c2.66699 -19.333 4.33398 -37.666 5.00098 -54.999h4c0 16 1.33301 34.333 4 55z"/>
    <glyph glyph-name="Euro" unicode="€" d="M606 149c-19.333 -53.333 -49.833 -94 -91.5 -122s-92.167 -42 -151.5 -42c-76 0 -137.333 24.167 -184 72.5s-76 114.833 -88 199.5h-77v63h72v20v32v16h-72v63h77c12 83.333 42.333 147.666 91 192.999s111.334 68 188.001 68c58 0 106.5 -13.333 145.5 -40 s66.833 -68 83.5 -124l-109 -32c-10.667 30.667 -25.834 54.834 -45.501 72.501s-46.5 26.5 -80.5 26.5c-40 0 -73 -13.5 -99 -40.5s-43 -68.167 -51 -123.5h230v-63h-234v-8v-44v-16h234v-63h-229c8 -58 25.333 -101.5 52 -130.5s60.334 -43.5 101.001 -43.5 c30 0 56.167 8.5 78.5 25.5s40.166 41.5 53.499 73.5z"/>
    <glyph glyph-name="uni20B9" unicode="₹" d="M550 616h-187.999c30 -25.333 48.333 -60.333 55 -105h133v-62h-132c-4.66699 -48 -22.834 -89 -54.501 -123s-82.5 -52 -152.5 -54l227 -272h-142l-227 280v69h89c41.333 0 72.833 9 94.5 27s34.5 42.333 38.5 73h-222v62h221c-5.33301 32 -18.833 57.5 -40.5 76.5 s-53.167 28.5 -94.5 28.5h-86v79h481v-79z"/>
    <glyph glyph-name="uni20BA" unicode="₺" d="M564 223c-14 -62.667 -40.668 -115.5 -80.001 -158.5s-99 -64.5 -179 -64.5h-179v266l-71 -21v68l71 21v78l-71 -21v67l71 21v216h120v-179l199 60v-67l-199 -60v-78l199 60v-68l-199 -60v-205h43c50.667 0 88.334 13.333 113.001 40s43 61.667 55 105z"/>
    <glyph glyph-name="uni20BD" unicode="₽" d="M240 273v-79.001h146v-62h-146v-132h-121v132h-77v62h77v79h-76v84h76v338h216c58.667 0 106.167 -10.167 142.5 -30.5s62.166 -46.166 77.499 -77.499s23 -64.333 23 -99c0 -36.667 -7.66699 -71.167 -23 -103.5s-41.166 -59 -77.499 -80s-83.833 -31.5 -142.5 -31.5 h-95zM240 356.999h80c47.333 0 81.5 12.167 102.5 36.5s31.5 53.833 31.5 88.5c0 32 -10.667 59.5 -32 82.5s-55.333 34.5 -102 34.5h-80v-242z"/>
    <glyph glyph-name="uni2105" unicode="℅" d="M198.5 644.5c-9.66699 10.333 -21.501 15.5 -35.501 15.5c-20.667 0 -36.167 -7.66699 -46.5 -23s-15.5 -39.333 -15.5 -72c0 -66.667 21 -100 63 -100c14.667 0 26.834 5.16699 36.501 15.5s15.5 24.833 17.5 43.5l82 -16c-8 -36 -24.167 -63.5 -48.5 -82.5 s-53.5 -28.5 -87.5 -28.5c-45.333 0 -81 14.667 -107 44s-39 70.333 -39 123c0 51.333 13 91.5 39 120.5s61.333 43.5 106 43.5c36 0 66.5 -10 91.5 -30s39.5 -49 43.5 -87l-82 -13c-2 20.667 -7.83301 36.167 -17.5 46.5zM570.999 728l-455 -742h-77l456 742h76z M561.999 31.5c-26 -29 -60.332 -43.5 -102.999 -43.5c-45.333 0 -81 14.667 -107 44s-39 70.333 -39 123c0 51.333 13 91.5 39 120.5s61 43.5 105 43.5c43.333 0 78.166 -14.833 104.499 -44.5s39.5 -70.5 39.5 -122.5c0 -51.333 -13 -91.5 -39 -120.5zM410.5 82 c11 -16 26.833 -24 47.5 -24c20 0 35.333 7.83301 46 23.5s16 39.167 16 70.5c0 32 -5.33301 56.167 -16 72.5s-26 24.5 -46 24.5c-20.667 0 -36.5 -8 -47.5 -24s-16.5 -39.667 -16.5 -71c0 -32 5.5 -56 16.5 -72z"/>
    <glyph glyph-name="uni2113" unicode="ℓ" d="M349.5 112.5c14.333 -15.667 38.499 -23.5 72.499 -23.5c16.667 0 36.667 2.33301 60 7v-96c-13.333 -4 -26.666 -6.83301 -39.999 -8.5s-30.666 -2.5 -51.999 -2.5c-64.667 0 -111.334 15.5 -140.001 46.5s-43 77.167 -43 138.5v13 c-20.667 -8.66699 -49.334 -19 -86.001 -31l-32 87c44.667 16 84 31.333 118 46v267c0 60.667 15.333 105.334 46 134.001s70.334 43 119.001 43c52 0 91.333 -14.333 118 -43s40 -68.334 40 -119.001c0 -134 -67.333 -241.667 -202 -323v-53 c0 -39.333 7.16699 -66.833 21.5 -82.5zM327.999 362c57.333 50 85.999 116.333 85.999 199c0 31.333 -3.66699 53.5 -11 66.5s-18.666 19.5 -33.999 19.5c-13.333 0 -23.5 -5.66699 -30.5 -17s-10.5 -28 -10.5 -50v-218z"/>
    <glyph glyph-name="uni2116" unicode="№" d="M224 269c6.66699 -29.333 11.333 -51.333 14 -66h4c-6.66699 64 -10 125.333 -10 184v323h84v-710h-96l-101 409l-30 122h-3c6.66699 -69.333 10 -131 10 -185v-346h-84v710h105l92 -376zM366.999 514c0 101.333 40.667 152.001 122 152.001c79.333 0 119 -50 119 -150 v-88c0 -44.667 -10.833 -79.334 -32.5 -104.001s-50.5 -37 -86.5 -37c-36.667 0 -66.167 12.5 -88.5 37.5s-33.5 60.833 -33.5 107.5v82zM527.999 525.001c0 24.667 -3.16699 42.168 -9.5 52.501s-16.166 15.5 -29.499 15.5c-14 0 -24.333 -5.33301 -31 -16s-10 -29 -10 -55 v-91c0 -25.333 3.5 -43.333 10.5 -54s17.167 -16 30.5 -16s23.166 5.16699 29.499 15.5s9.5 28.166 9.5 53.499v95z"/>
    <glyph glyph-name="trademark" unicode="™" d="M98 642h-73v68h229v-68h-78v-324h-78v324zM288 710l109.998 0.000976562l33 -241c4.66699 -34 7.33398 -62.333 8.00098 -85h4c0.666992 30 3.33398 58.333 8.00098 85l33 241h110v-392h-67v204c0 46.667 1 89 3 127h-3c-2 -20.667 -4 -36 -6 -46l-43 -285h-74l-44 285 c-3.33301 23.333 -5 38.666 -5 45.999h-3c2 -38 3 -80.333 3 -127v-204h-67v392z"/>
    <glyph glyph-name="uni2126" unicode="Ω" d="M356 0l-16.001 246.999c36 9.33301 62.667 31.166 80 65.499s26 76.833 26 127.5c0 55.333 -11.167 100.333 -33.5 135s-56.5 52 -102.5 52c-43.333 0 -76.833 -17.833 -100.5 -53.5s-35.5 -80.5 -35.5 -134.5c0 -48 9.33301 -89.667 28 -125 s44.334 -57.666 77.001 -66.999l-16 -247h-201v103h114l7 75c-36.667 18.667 -66.667 51.334 -90 98.001s-35 101.334 -35 164.001c0 56 10.833 105.667 32.5 149s51.667 77.166 90 101.499s81.833 36.5 130.5 36.5c50.667 0 95 -11.833 133 -35.5s67.167 -57 87.5 -100 s30.5 -92.833 30.5 -149.5c0 -68 -10.5 -124.833 -31.5 -170.5s-52.5 -77.167 -94.5 -94.5l8 -74h115v-103h-203z"/>
    <glyph glyph-name="estimated" unicode="℮" d="M431.5 76.5c29.667 20.333 52.167 52.167 67.5 95.5l59 -28c-20 -53.333 -50.333 -93.5 -91 -120.5s-89.334 -40.5 -146.001 -40.5c-85.333 0 -150.666 33.5 -195.999 100.5s-68 158.167 -68 273.5c0 111.333 22.833 199.333 68.5 264s111.167 97 196.5 97 c56.667 0 102.5 -12.667 137.5 -38s60.833 -65 77.5 -119s25 -125 25 -213h-345v-258c31.333 -29.333 69.333 -44 114 -44c37.333 0 70.833 10.167 100.5 30.5zM322 656.001c-42 0 -77 -11 -105 -33v-216h196v225c-24 16 -54.333 24 -91 24z"/>
    <glyph glyph-name="uni2153" unicode="⅓" horiz-adv-x="1240" d="M420 388l0.000976562 -64h-289v64h107v224c-9.33301 -8 -23.833 -14.833 -43.5 -20.5s-37.834 -8.5 -54.501 -8.5h-6v73h4c22.667 0 45 5 67 15s37.333 23 46 39h69v-322h100zM943.001 727l-527 -744h-103l528 744h102zM954.001 224c18 0 32.6689 4.5 44.002 13.5 s17 22.167 17 39.5c0 16.667 -4.83301 29.5 -14.5 38.5s-23.167 13.5 -40.5 13.5c-20.667 0 -35.834 -6 -45.501 -18s-13.834 -29 -12.501 -51l-85 10c-1.33301 39.333 10.667 70 36 92s61.666 33 108.999 33c42.667 0 76.334 -9.5 101.001 -28.5s37 -45.167 37 -78.5 c0 -24 -6.83301 -43.667 -20.5 -59s-32.834 -25.333 -57.501 -30c28 -1.33301 49.667 -10.5 65 -27.5s23 -39.5 23 -67.5c0 -32.667 -13.5 -59.5 -40.5 -80.5s-62.167 -31.5 -105.5 -31.5c-47.333 0 -84.166 10.667 -110.499 32s-39.833 51.333 -40.5 90l87 7 c-0.666992 -18.667 5 -34.167 17 -46.5s27.667 -18.5 47 -18.5c18 0 32.5 4.66699 43.5 14s16.5 23 16.5 41c0 37.333 -23 56 -69 56h-26v57h25z"/>
    <glyph glyph-name="uni2154" unicode="⅔" horiz-adv-x="1240" d="M285 501.5c33.333 33 50.001 64.166 50.001 93.499c0 18 -4.5 31.833 -13.5 41.5s-22.167 14.5 -39.5 14.5c-18 0 -31.833 -4.83301 -41.5 -14.5s-14.5 -23.5 -14.5 -41.5c0 -11.333 0.333008 -19.333 1 -24l-83 7c-1.33301 6 -2 13.333 -2 22 c0 35.333 12.833 64 38.5 86s59.5 33 101.5 33c43.333 0 77.166 -10.667 101.499 -32s36.5 -50.666 36.5 -87.999c0 -36.667 -15.167 -72 -45.5 -106s-71.166 -68 -122.499 -102h178v-67h-290v62c63.333 44 111.666 82.5 144.999 115.5zM942.001 726.999l-527 -744h-103 l528 744h102zM942.001 223.999c18 0 32.6689 4.5 44.002 13.5s17 22.167 17 39.5c0 16.667 -4.83301 29.5 -14.5 38.5s-23.167 13.5 -40.5 13.5c-20.667 0 -35.834 -6 -45.501 -18s-13.834 -29 -12.501 -51l-85 10c-1.33301 39.333 10.667 70 36 92s61.666 33 108.999 33 c42.667 0 76.334 -9.5 101.001 -28.5s37 -45.167 37 -78.5c0 -24 -6.83301 -43.667 -20.5 -59s-32.834 -25.333 -57.501 -30c28 -1.33301 49.667 -10.5 65 -27.5s23 -39.5 23 -67.5c0 -32.667 -13.5 -59.5 -40.5 -80.5s-62.167 -31.5 -105.5 -31.5 c-47.333 0 -84.166 10.667 -110.499 32s-39.833 51.333 -40.5 90l87 7c-0.666992 -18.667 5 -34.167 17 -46.5s27.667 -18.5 47 -18.5c18 0 32.5 4.66699 43.5 14s16.5 23 16.5 41c0 37.333 -23 56 -69 56h-26v57h25z"/>
    <glyph glyph-name="oneeighth" unicode="⅛" horiz-adv-x="1240" d="M428 388l0.000976562 -64h-289v64h107v224c-9.33301 -8 -23.833 -14.833 -43.5 -20.5s-37.834 -8.5 -54.501 -8.5h-6v73h4c22.667 0 45 5 67 15s37.333 23 46 39h69v-322h100zM943.001 727l-527 -744h-103l528 744h102zM1078 176 c14.667 -16.667 21.9971 -40.001 21.9971 -70.001c0 -34.667 -14.5 -62.334 -43.5 -83.001s-67.833 -31 -116.5 -31c-47.333 0 -85.166 9.83301 -113.499 29.5s-42.5 45.834 -42.5 78.501c0 24 6.33301 43.5 19 58.5s32.334 25.833 59.001 32.5 c-22 8.66699 -38.667 20.667 -50 36s-17 35.333 -17 60c0 32 13.333 58 40 78s61.334 30 104.001 30s77.167 -8.83301 103.5 -26.5s39.5 -41.5 39.5 -71.5c0 -41.333 -22.333 -68.666 -67 -81.999c27.333 -9.33301 48.333 -22.333 63 -39zM892.998 322.999 c-10.667 -8.66699 -15.999 -21 -15.999 -37c0 -26.667 20.667 -44.334 62 -53.001l25 -6c14.667 6.66699 25 14.334 31 23.001s9 20 9 34c0 16.667 -5.83301 29.5 -17.5 38.5s-27.834 13.5 -48.501 13.5c-19.333 0 -34.333 -4.33301 -45 -13zM995.999 68.499 c13.333 9.66699 20 22.832 20 39.499s-5.66699 29.5 -17 38.5s-28.333 16.167 -51 21.5l-32 8c-16.667 -6.66699 -29 -15.167 -37 -25.5s-12 -23.166 -12 -38.499c0 -18 6.83301 -32.167 20.5 -42.5s32.167 -15.5 55.5 -15.5c22 0 39.667 4.83301 53 14.5z"/>
    <glyph glyph-name="threeeighths" unicode="⅜" horiz-adv-x="1240" d="M284 548c18 0 32.6689 4.5 44.002 13.5s17 22.167 17 39.5c0 16.667 -4.83301 29.5 -14.5 38.5s-23.167 13.5 -40.5 13.5c-20.667 0 -35.834 -6 -45.501 -18s-13.834 -29 -12.501 -51l-85 10c-1.33301 39.333 10.667 70 36 92s61.666 33 108.999 33 c42.667 0 76.334 -9.5 101.001 -28.5s37 -45.167 37 -78.5c0 -24 -6.83301 -43.667 -20.5 -59s-32.834 -25.333 -57.501 -30c28 -1.33301 49.667 -10.5 65 -27.5s23 -39.5 23 -67.5c0 -32.667 -13.5 -59.5 -40.5 -80.5s-62.167 -31.5 -105.5 -31.5 c-47.333 0 -84.166 10.667 -110.499 32s-39.833 51.333 -40.5 90l87 7c-0.666992 -18.667 5 -34.167 17 -46.5s27.667 -18.5 47 -18.5c18 0 32.5 4.66699 43.5 14s16.5 23 16.5 41c0 37.333 -23 56 -69 56h-26v57h25zM941.002 727l-527 -744h-103l528 744h102zM1074 176 c14.667 -16.667 21.9971 -40.001 21.9971 -70.001c0 -34.667 -14.5 -62.334 -43.5 -83.001s-67.833 -31 -116.5 -31c-47.333 0 -85.166 9.83301 -113.499 29.5s-42.5 45.834 -42.5 78.501c0 24 6.33301 43.5 19 58.5s32.334 25.833 59.001 32.5 c-22 8.66699 -38.667 20.667 -50 36s-17 35.333 -17 60c0 32 13.333 58 40 78s61.334 30 104.001 30s77.167 -8.83301 103.5 -26.5s39.5 -41.5 39.5 -71.5c0 -41.333 -22.333 -68.666 -67 -81.999c27.333 -9.33301 48.333 -22.333 63 -39zM888.999 322.999 c-10.667 -8.66699 -15.999 -21 -15.999 -37c0 -26.667 20.667 -44.334 62 -53.001l25 -6c14.667 6.66699 25 14.334 31 23.001s9 20 9 34c0 16.667 -5.83301 29.5 -17.5 38.5s-27.834 13.5 -48.501 13.5c-19.333 0 -34.333 -4.33301 -45 -13zM992 68.499 c13.333 9.66699 20 22.832 20 39.499s-5.66699 29.5 -17 38.5s-28.333 16.167 -51 21.5l-32 8c-16.667 -6.66699 -29 -15.167 -37 -25.5s-12 -23.166 -12 -38.499c0 -18 6.83301 -32.167 20.5 -42.5s32.167 -15.5 55.5 -15.5c22 0 39.667 4.83301 53 14.5z"/>
    <glyph glyph-name="fiveeighths" unicode="⅝" horiz-adv-x="1240" d="M419 642h-183.001l-12 -107c20.667 32 52 48 94 48c36.667 0 66 -11.667 88 -35s33 -55 33 -95c0 -44 -13.167 -77.833 -39.5 -101.5s-63.166 -35.5 -110.499 -35.5c-40 0 -73.167 9.66699 -99.5 29s-41.5 45 -45.5 77l79 9c4 -16 11.833 -28.5 23.5 -37.5 s26.5 -13.5 44.5 -13.5c21.333 0 37.833 6.5 49.5 19.5s17.5 30.833 17.5 53.5c0 20.667 -5.66699 37 -17 49s-27.333 18 -48 18c-16 0 -29.833 -4 -41.5 -12s-20.167 -19.333 -25.5 -34l-72 7l23 229h242v-68zM935.999 727l-527 -744h-103l528 744h102zM1073 176 c14.667 -16.667 21.9971 -40.001 21.9971 -70.001c0 -34.667 -14.5 -62.334 -43.5 -83.001s-67.833 -31 -116.5 -31c-47.333 0 -85.166 9.83301 -113.499 29.5s-42.5 45.834 -42.5 78.501c0 24 6.33301 43.5 19 58.5s32.334 25.833 59.001 32.5 c-22 8.66699 -38.667 20.667 -50 36s-17 35.333 -17 60c0 32 13.333 58 40 78s61.334 30 104.001 30s77.167 -8.83301 103.5 -26.5s39.5 -41.5 39.5 -71.5c0 -41.333 -22.333 -68.666 -67 -81.999c27.333 -9.33301 48.333 -22.333 63 -39zM887.996 322.999 c-10.667 -8.66699 -15.999 -21 -15.999 -37c0 -26.667 20.667 -44.334 62 -53.001l25 -6c14.667 6.66699 25 14.334 31 23.001s9 20 9 34c0 16.667 -5.83301 29.5 -17.5 38.5s-27.834 13.5 -48.501 13.5c-19.333 0 -34.333 -4.33301 -45 -13zM990.997 68.499 c13.333 9.66699 20 22.832 20 39.499s-5.66699 29.5 -17 38.5s-28.333 16.167 -51 21.5l-32 8c-16.667 -6.66699 -29 -15.167 -37 -25.5s-12 -23.166 -12 -38.499c0 -18 6.83301 -32.167 20.5 -42.5s32.167 -15.5 55.5 -15.5c22 0 39.667 4.83301 53 14.5z"/>
    <glyph glyph-name="seveneighths" unicode="⅞" horiz-adv-x="1240" d="M157 710h284v-67c-37.333 -36.667 -67.5 -83 -90.5 -139s-35.5 -116 -37.5 -180h-91v5c-0.666992 53.333 11.333 107.5 36 162.5s58.667 104.167 102 147.5h-203v71zM883 727l-527 -744h-103l528 744h102zM1059 176c14.667 -16.667 21.9971 -40.001 21.9971 -70.001 c0 -34.667 -14.5 -62.334 -43.5 -83.001s-67.833 -31 -116.5 -31c-47.333 0 -85.166 9.83301 -113.499 29.5s-42.5 45.834 -42.5 78.501c0 24 6.33301 43.5 19 58.5s32.334 25.833 59.001 32.5c-22 8.66699 -38.667 20.667 -50 36s-17 35.333 -17 60c0 32 13.333 58 40 78 s61.334 30 104.001 30s77.167 -8.83301 103.5 -26.5s39.5 -41.5 39.5 -71.5c0 -41.333 -22.333 -68.666 -67 -81.999c27.333 -9.33301 48.333 -22.333 63 -39zM873.997 322.999c-10.667 -8.66699 -15.999 -21 -15.999 -37c0 -26.667 20.667 -44.334 62 -53.001l25 -6 c14.667 6.66699 25 14.334 31 23.001s9 20 9 34c0 16.667 -5.83301 29.5 -17.5 38.5s-27.834 13.5 -48.501 13.5c-19.333 0 -34.333 -4.33301 -45 -13zM976.998 68.499c13.333 9.66699 20 22.832 20 39.499s-5.66699 29.5 -17 38.5s-28.333 16.167 -51 21.5l-32 8 c-16.667 -6.66699 -29 -15.167 -37 -25.5s-12 -23.166 -12 -38.499c0 -18 6.83301 -32.167 20.5 -42.5s32.167 -15.5 55.5 -15.5c22 0 39.667 4.83301 53 14.5z"/>
    <glyph glyph-name="arrowleft" unicode="←" d="M214 286v-95l-185 139l185 139v-94h349v-89h-349z"/>
    <glyph glyph-name="arrowup" unicode="↑" d="M264 562h-95l141 188l141 -188h-95v-597h-92v597z"/>
    <glyph glyph-name="arrowright" unicode="→" d="M406 374v95l185 -139l-185 -139v94h-349v89h349z"/>
    <glyph glyph-name="arrowdown" unicode="↓" d="M356 148h95l-141 -188l-141 188h95v597h92v-597z"/>
    <glyph glyph-name="arrowboth" unicode="↔" d="M214 286v-95l-185 139l185 139v-94h183v94l185 -139l-185 -139v95h-183z"/>
    <glyph glyph-name="arrowupdn" unicode="↕" d="M169 148h95v414h-95l141 188l141 -188h-95v-414h95l-141 -188z"/>
    <glyph glyph-name="uni2196" unicode="↖" d="M55 478v232h225l-81 -82l366 -366l-62 -64l-366 365z"/>
    <glyph glyph-name="uni2197" unicode="↗" d="M123 199l-62 64l366 366l-81 82h225v-232l-82 85z"/>
    <glyph glyph-name="uni2198" unicode="↘" d="M571 243v-232h-225l81 82l-366 366l62 64l366 -365z"/>
    <glyph glyph-name="uni2199" unicode="↙" d="M497 523l62 -64l-366 -366l81 -82h-225v232l82 -85z"/>
    <glyph glyph-name="uni21A9" unicode="↩" d="M31 330l185 139.001v-94h129c39.333 0 70.333 9.66699 93 29s34 47.333 34 84c0 37.333 -11.333 65.5 -34 84.5s-53.667 28.5 -93 28.5h-91v89h103c66 0 118.167 -17.333 156.5 -52s57.5 -84.334 57.5 -149.001c0 -64 -19.167 -113.833 -57.5 -149.5 s-90.5 -53.5 -156.5 -53.5h-141v-95z"/>
    <glyph glyph-name="uni21AA" unicode="↪" d="M404 286l-141 -0.000976562c-66 0 -118.167 17.833 -156.5 53.5s-57.5 85.5 -57.5 149.5c0 64.667 19.167 114.334 57.5 149.001s90.5 52 156.5 52h103v-89h-91c-39.333 0 -70.333 -9.5 -93 -28.5s-34 -47.167 -34 -84.5c0 -36.667 11.333 -64.667 34 -84 s53.667 -29 93 -29h129v94l185 -139l-185 -139v95z"/>
    <glyph glyph-name="uni21B0" unicode="↰" d="M437 556h-222v-94l-185 139l185 139v-95h315v-645h-93v556z"/>
    <glyph glyph-name="uni21B1" unicode="↱" d="M90 0v645h315v95l185 -139l-185 -139v94h-222v-556h-93z"/>
    <glyph glyph-name="uni21B2" unicode="↲" d="M548 710v-645h-315v-95l-185 139l185 139v-94h222v556h93z"/>
    <glyph glyph-name="uni21B3" unicode="↳" d="M183 154h222v94l185 -139l-185 -139v95h-315v645h93v-556z"/>
    <glyph glyph-name="uni21B4" unicode="↴" d="M407 168v459h-350v89h443v-548h94l-141 -188l-141 188h95z"/>
    <glyph glyph-name="uni21B5" unicode="↵" d="M244 620c-17.333 -13.333 -30.334 -34.667 -39.001 -64l-95 26c14 47.333 38 83.833 72 109.5s77.333 38.5 130 38.5c72 0 126 -24.5 162 -73.5s54 -117.833 54 -206.5v-69h90l-135 -182l-135 182h84v57c0 69.333 -9.66699 120.333 -29 153s-49.666 49 -90.999 49 c-28 0 -50.667 -6.66699 -68 -20zM374.999 88.999c17.333 13.333 30 34.333 38 63l95 -26c-14 -47.333 -38 -83.666 -72 -108.999s-77.333 -38 -130 -38c-72 0 -126 24.5 -162 73.5s-54 117.833 -54 206.5v65h-89l136 182l135 -182h-86v-54 c0 -68.667 9.83301 -119.334 29.5 -152.001s50.167 -49 91.5 -49c28 0 50.667 6.66699 68 20z"/>
    <glyph glyph-name="uni21C4" unicode="⇄" d="M214 417v-95l-185 139l185 139v-94h302v-89h-302zM406 253v94l185 -139l-185 -139v95h-301v89h301z"/>
    <glyph glyph-name="uni21C5" unicode="⇅" d="M481 571v-546h-92v546h-88l134 179l135 -179h-89zM139 139v546h92v-546h88l-134 -179l-135 179h89z"/>
    <glyph glyph-name="partialdiff" unicode="∂" d="M492 619.5c48.667 -67.667 72.998 -161.502 72.998 -281.502c0 -74 -10.667 -137.667 -32 -191s-52 -94 -92 -122s-88 -42 -144 -42c-46.667 0 -88.5 10.333 -125.5 31s-65.833 49.334 -86.5 86.001s-31 78.667 -31 126c0 44.667 9.33301 84.334 28 119.001 s44.667 61.667 78 81s71.333 29 114 29c78 0 136.333 -28 175 -84c-1.33301 80 -17 141.5 -47 184.5s-73.667 64.5 -131 64.5c-33.333 0 -65.666 -7.33301 -96.999 -22l-40 92c18 9.33301 39.167 16.833 63.5 22.5s48.833 8.5 73.5 8.5 c98.667 0 172.334 -33.833 221.001 -101.5zM403.998 122.998c28 31.333 43 79.333 45 144c-32.667 64.667 -81 97 -145 97c-41.333 0 -73.5 -13 -96.5 -39s-34.5 -59.667 -34.5 -101c0 -42.667 12.333 -78 37 -106s56 -42 94 -42c38.667 0 72 15.667 100 47z"/>
    <glyph glyph-name="emptyset" unicode="∅" d="M489 455c33.333 -40.667 50 -91 50 -151c0 -44.667 -9.66699 -84.5 -29 -119.5s-46.333 -62.167 -81 -81.5s-74.334 -29 -119.001 -29c-52.667 0 -98 13.333 -136 40l-56 -61l-43 39l56 61c-33.333 40.667 -50 91 -50 151c0 44.667 9.66699 84.5 29 119.5 s46.333 62.333 81 82s74.334 29.5 119.001 29.5c53.333 0 99 -13.333 137 -40l55 60l43 -39zM198 226l184 198c-20.667 13.333 -44.667 20 -72 20c-38.667 0 -70.167 -13 -94.5 -39s-36.5 -59.667 -36.5 -101c0 -30 6.33301 -56 19 -78zM422 382l-184 -198 c20.667 -13.333 44.667 -20 72 -20c38.667 0 70.167 13 94.5 39s36.5 59.667 36.5 101c0 30 -6.33301 56 -19 78z"/>
    <glyph glyph-name="uni2206" unicode="∆" d="M242 710h139l185 -710h-512zM195 96h225l-110 488z"/>
    <glyph glyph-name="product" unicode="∏" d="M439 601h-258v-689h-116v793h490v-793h-116v689z"/>
    <glyph glyph-name="summation" unicode="∑" d="M65 4l257 323l-244 287v91h464v-98h-323l237 -280l-255 -317h353v-98h-489v92z"/>
    <glyph glyph-name="minus" unicode="−" d="M73 374h474v-92h-474v92z"/>
    <glyph glyph-name="radical" unicode="√" d="M189 331l80 -281l202 684h108l-254 -828h-110l-106 332h-68v93h148z"/>
    <glyph glyph-name="infinity" unicode="∞" d="M534 437.5c27.333 -27.667 41.001 -64.165 41.001 -109.498c0 -29.333 -6.5 -55.333 -19.5 -78s-30.333 -40.334 -52 -53.001s-44.834 -19 -69.501 -19c-24 0 -47 8.16699 -69 24.5s-41 36.166 -57 59.499c-36 -56.667 -76.667 -85 -122 -85 c-23.333 0 -45.833 5.83301 -67.5 17.5s-39.167 28.834 -52.5 51.501s-20 49.667 -20 81c0 30 6.33301 56.5 19 79.5s29.5 40.833 50.5 53.5s43.833 19 68.5 19c23.333 0 46.333 -7.33301 69 -22s41.334 -33.334 56.001 -56.001c37.333 52 78 78 122 78 c41.333 0 75.666 -13.833 102.999 -41.5zM233.501 278.002c11.667 12 23.166 28.999 34.499 50.999c-10.667 19.333 -22.167 35.333 -34.5 48s-27.5 19 -45.5 19c-15.333 0 -28.666 -5.66699 -39.999 -17s-17 -28.666 -17 -51.999c0 -21.333 6.66699 -37.833 20 -49.5 s27 -17.5 41 -17.5c16 0 29.833 6 41.5 18zM469.5 278.501c12.333 12.333 18.499 28.499 18.499 48.499c0 22.667 -5.83301 39.834 -17.5 51.501s-25.5 17.5 -41.5 17.5s-29.833 -5.5 -41.5 -16.5s-24.5 -27.5 -38.5 -49.5c10.667 -20.667 22.834 -37.5 36.501 -50.5 s27.834 -19.5 42.501 -19.5c15.333 0 29.166 6.16699 41.499 18.5z"/>
    <glyph glyph-name="integral" unicode="∫" d="M97 -21c6.66699 -1.33301 16.332 -2.00098 28.999 -2.00098c32 0 57.167 4.5 75.5 13.5s31.5 23.667 39.5 44s12 48.5 12 84.5v372c0 70 18.333 124.667 55 164s91.334 59 164.001 59c20 0 38 -1 54 -3l-3 -93c-13.333 2.66699 -28 4 -44 4 c-40 0 -68.333 -11.667 -85 -35s-25 -59.666 -25 -108.999v-373c0 -147.333 -79.667 -221 -239 -221c-6 0 -18 1 -36 3z"/>
    <glyph glyph-name="approxequal" unicode="≈" d="M374 362c-16 4.66699 -35.668 11.667 -59.001 21s-42.833 16.333 -58.5 21s-31.834 7 -48.501 7c-24.667 0 -49.5 -4 -74.5 -12s-45.167 -18.333 -60.5 -31v93c13.333 12.667 31.833 23 55.5 31s46.834 12 69.501 12c20.667 0 39.667 -2.5 57 -7.5s37 -12.5 59 -22.5 c22 -8.66699 40 -15.167 54 -19.5s29.333 -6.5 46 -6.5c24 0 48.5 4.16699 73.5 12.5s44.833 18.5 59.5 30.5v-93c-12 -12.667 -29.667 -23 -53 -31s-46.666 -12 -69.999 -12c-17.333 0 -34 2.33301 -50 7zM373.999 171c-16 4.66699 -35.6709 11.668 -59.0039 21.001 c-25.333 9.33301 -45.5 16.166 -60.5 20.499s-30.5 6.5 -46.5 6.5c-24.667 0 -49.5 -4 -74.5 -12s-45.167 -18.333 -60.5 -31v94c13.333 12.667 31.833 23 55.5 31s46.834 12 69.501 12c20.667 0 39.667 -2.5 57 -7.5s37 -12.5 59 -22.5c22 -8.66699 40 -15.167 54 -19.5 s29.333 -6.5 46 -6.5c24.667 0 49.334 4 74.001 12s44.334 18.333 59.001 31v-94c-12 -12 -29.667 -22 -53 -30s-46.666 -12 -69.999 -12c-17.333 0 -34 2.33301 -50 7z"/>
    <glyph glyph-name="notequal" unicode="≠" d="M364 378l-38 -98h221v-93h-258l-48 -124h-68l48 124h-148v93h185l38 98h-223v93h259l47 120h68l-47 -120h147v-93h-183z"/>
    <glyph glyph-name="lessequal" unicode="≤" d="M87 334v90l469 202v-98l-356 -148l356 -148v-100zM534 88v-88h-464v88h464z"/>
    <glyph glyph-name="greaterequal" unicode="≥" d="M71 232l356 148l-356 148v98l469 -202v-90l-469 -202v100zM557 0h-464v88h464v-88z"/>
    <glyph glyph-name="uni2460" unicode="①" d="M161.5 20.5c-43 25 -76.5 61 -100.5 108s-36 102.5 -36 166.5v120c0 64 12 119.5 36 166.5s57.5 83 100.5 108s92.5 37.5 148.5 37.5s105.5 -12.5 148.5 -37.5s76.333 -61 100 -108s35.5 -102.5 35.5 -166.5v-120c0 -64 -11.833 -119.5 -35.5 -166.5s-57 -83 -100 -108 s-92.5 -37.5 -148.5 -37.5s-105.5 12.5 -148.5 37.5zM428.5 64c34.333 20.667 61 50.667 80 90s28.5 86 28.5 140v123c0 54 -9.5 100.5 -28.5 139.5s-45.667 68.833 -80 89.5s-73.833 31 -118.5 31s-84.167 -10.333 -118.5 -31s-61 -50.5 -80 -89.5 s-28.5 -85.5 -28.5 -139.5v-123c0 -54 9.5 -100.667 28.5 -140s45.667 -69.333 80 -90s73.833 -31 118.5 -31s84.167 10.333 118.5 31zM418 176l0.000976562 64h-65v294h-60c-4.66699 -15.333 -13.5 -27.333 -26.5 -36s-28.5 -13 -46.5 -13h-6v-70h8 c11.333 0 22.166 1.66699 32.499 5s18.5 8 24.5 14v-194h-70v-64h209z"/>
    <glyph glyph-name="uni2461" unicode="②" d="M161.5 20.5c-43 25 -76.5 61 -100.5 108s-36 102.5 -36 166.5v120c0 64 12 119.5 36 166.5s57.5 83 100.5 108s92.5 37.5 148.5 37.5s105.5 -12.5 148.5 -37.5s76.333 -61 100 -108s35.5 -102.5 35.5 -166.5v-120c0 -64 -11.833 -119.5 -35.5 -166.5s-57 -83 -100 -108 s-92.5 -37.5 -148.5 -37.5s-105.5 12.5 -148.5 37.5zM428.5 64c34.333 20.667 61 50.667 80 90s28.5 86 28.5 140v123c0 54 -9.5 100.5 -28.5 139.5s-45.667 68.833 -80 89.5s-73.833 31 -118.5 31s-84.167 -10.333 -118.5 -31s-61 -50.5 -80 -89.5 s-28.5 -85.5 -28.5 -139.5v-123c0 -54 9.5 -100.667 28.5 -140s45.667 -69.333 80 -90s73.833 -31 118.5 -31s84.167 10.333 118.5 31zM199 225c49.333 48.667 85.5 88.665 108.5 119.998s34.5 63.333 34.5 96c0 26.667 -11 40 -33 40c-22.667 0 -34 -13.333 -34 -40 c0 -13.333 0.333008 -23.333 1 -30l-75 8c-0.666992 4.66699 -1 12.334 -1 23.001c0 30 9.66699 53.5 29 70.5s47.333 25.5 84 25.5c71.333 0 107 -32.333 107 -97c0 -35.333 -10.667 -68.166 -32 -98.499s-56 -67.833 -104 -112.5h138v-58h-223v53z"/>
    <glyph glyph-name="uni2462" unicode="③" d="M161.5 20.5c-43 25 -76.5 61 -100.5 108s-36 102.5 -36 166.5v120c0 64 12 119.5 36 166.5s57.5 83 100.5 108s92.5 37.5 148.5 37.5s105.5 -12.5 148.5 -37.5s76.333 -61 100 -108s35.5 -102.5 35.5 -166.5v-120c0 -64 -11.833 -119.5 -35.5 -166.5s-57 -83 -100 -108 s-92.5 -37.5 -148.5 -37.5s-105.5 12.5 -148.5 37.5zM428.5 64c34.333 20.667 61 50.667 80 90s28.5 86 28.5 140v123c0 54 -9.5 100.5 -28.5 139.5s-45.667 68.833 -80 89.5s-73.833 31 -118.5 31s-84.167 -10.333 -118.5 -31s-61 -50.5 -80 -89.5 s-28.5 -85.5 -28.5 -139.5v-123c0 -54 9.5 -100.667 28.5 -140s45.667 -69.333 80 -90s73.833 -31 118.5 -31s84.167 10.333 118.5 31zM226.5 194.5c-18.333 17.667 -27.502 46.8311 -27.502 87.498l75 7c0 -24.667 2.83301 -41.5 8.5 -50.5s14.834 -13.5 27.501 -13.5 c12 0 21 3.83301 27 11.5s9 20.834 9 39.501c0 22.667 -3.66699 38 -11 46s-19.333 12 -36 12h-13v52h13c14.667 0 25.667 4.33301 33 13s11 23.334 11 44.001c0 29.333 -11 44 -33 44c-12 0 -20.833 -4.5 -26.5 -13.5s-8.5 -25.5 -8.5 -49.5l-75 9 c0 38 9.33301 65.667 28 83s46 26 82 26c72 0 108 -32 108 -96c0 -23.333 -5.16699 -42.166 -15.5 -56.499s-25.166 -23.5 -44.499 -27.5c21.333 -2.66699 37.166 -10.834 47.499 -24.501s15.5 -34.5 15.5 -62.5c0 -71.333 -37 -107 -111 -107 c-37.333 0 -65.166 8.83301 -83.499 26.5z"/>
    <glyph glyph-name="uni2463" unicode="④" d="M161.5 20.5c-43 25 -76.5 61 -100.5 108s-36 102.5 -36 166.5v120c0 64 12 119.5 36 166.5s57.5 83 100.5 108s92.5 37.5 148.5 37.5s105.5 -12.5 148.5 -37.5s76.333 -61 100 -108s35.5 -102.5 35.5 -166.5v-120c0 -64 -11.833 -119.5 -35.5 -166.5s-57 -83 -100 -108 s-92.5 -37.5 -148.5 -37.5s-105.5 12.5 -148.5 37.5zM428.5 64c34.333 20.667 61 50.667 80 90s28.5 86 28.5 140v123c0 54 -9.5 100.5 -28.5 139.5s-45.667 68.833 -80 89.5s-73.833 31 -118.5 31s-84.167 -10.333 -118.5 -31s-61 -50.5 -80 -89.5 s-28.5 -85.5 -28.5 -139.5v-123c0 -54 9.5 -100.667 28.5 -140s45.667 -69.333 80 -90s73.833 -31 118.5 -31s84.167 10.333 118.5 31zM389 254v-78h-71v78h-130v54l114 226h87v-224h43v-56h-43zM244 310h74v155z"/>
    <glyph glyph-name="uni2464" unicode="⑤" d="M161.5 20.5c-43 25 -76.5 61 -100.5 108s-36 102.5 -36 166.5v120c0 64 12 119.5 36 166.5s57.5 83 100.5 108s92.5 37.5 148.5 37.5s105.5 -12.5 148.5 -37.5s76.333 -61 100 -108s35.5 -102.5 35.5 -166.5v-120c0 -64 -11.833 -119.5 -35.5 -166.5s-57 -83 -100 -108 s-92.5 -37.5 -148.5 -37.5s-105.5 12.5 -148.5 37.5zM428.5 64c34.333 20.667 61 50.667 80 90s28.5 86 28.5 140v123c0 54 -9.5 100.5 -28.5 139.5s-45.667 68.833 -80 89.5s-73.833 31 -118.5 31s-84.167 -10.333 -118.5 -31s-61 -50.5 -80 -89.5 s-28.5 -85.5 -28.5 -139.5v-123c0 -54 9.5 -100.667 28.5 -140s45.667 -69.333 80 -90s73.833 -31 118.5 -31s84.167 10.333 118.5 31zM227.5 198c-19 17.333 -28.501 44 -28.501 80l74 8c0 -22 3 -37.333 9 -46s15.333 -13 28 -13s21.834 5.16699 27.501 15.5 s8.5 29.166 8.5 56.499c0 26 -2.83301 43.833 -8.5 53.5s-14.834 14.5 -27.501 14.5c-10 0 -18.333 -3 -25 -9s-10.667 -14.333 -12 -25l-69 5l12 200h189v-59h-131l-5 -87c12.667 20.667 34.667 31 66 31c29.333 0 51 -9.66699 65 -29s21 -50.666 21 -93.999 c0 -45.333 -9.16699 -78 -27.5 -98s-46.166 -30 -83.499 -30c-36 0 -63.5 8.66699 -82.5 26z"/>
    <glyph glyph-name="uni2465" unicode="⑥" d="M458.5 689.5c43 -25 76.333 -61 100 -108s35.5 -102.5 35.5 -166.5v-120c0 -64 -11.833 -119.5 -35.5 -166.5s-57 -83 -100 -108s-92.5 -37.5 -148.5 -37.5s-105.5 12.5 -148.5 37.5s-76.5 61 -100.5 108s-36 102.5 -36 166.5v120c0 64 12 119.5 36 166.5 s57.5 83 100.5 108s92.5 37.5 148.5 37.5s105.5 -12.5 148.5 -37.5zM537 417c0 54 -9.5 100.5 -28.5 139.5s-45.667 68.833 -80 89.5s-73.833 31 -118.5 31s-84.167 -10.333 -118.5 -31s-61 -50.5 -80 -89.5s-28.5 -85.5 -28.5 -139.5v-123c0 -54 9.5 -100.667 28.5 -140 s45.667 -69.333 80 -90s73.833 -31 118.5 -31s84.167 10.333 118.5 31s61 50.667 80 90s28.5 86 28.5 140v123zM400 391c14.667 -18.667 21.998 -51.0029 21.998 -97.0029c0 -43.333 -9.33301 -75.166 -28 -95.499s-46.334 -30.5 -83.001 -30.5 c-26.667 0 -48.167 5.66699 -64.5 17s-28.5 30.333 -36.5 57s-12 63.667 -12 111c0 48.667 4.33301 86.834 13 114.501s21.334 47 38.001 58s38.334 16.5 65.001 16.5c70 0 105 -30 105 -90l-74 -9c-0.666992 16.667 -3.66699 28.5 -9 35.5s-13.666 10.5 -24.999 10.5 c-12.667 0 -22 -6.16699 -28 -18.5s-9.33301 -38.166 -10 -77.499c12 17.333 32 26 60 26c30 0 52.333 -9.33301 67 -28zM338.498 237.997c5.66699 10 8.50098 28.667 8.50098 56s-3 45.833 -9 55.5s-15.333 14.5 -28 14.5c-18.667 0 -31.334 -8.33301 -38.001 -25 c0 -33.333 1.5 -58.333 4.5 -75s7.16699 -27.667 12.5 -33s12.666 -8 21.999 -8c12.667 0 21.834 5 27.501 15z"/>
    <glyph glyph-name="uni2466" unicode="⑦" d="M161.5 20.5c-43 25 -76.5 61 -100.5 108s-36 102.5 -36 166.5v120c0 64 12 119.5 36 166.5s57.5 83 100.5 108s92.5 37.5 148.5 37.5s105.5 -12.5 148.5 -37.5s76.333 -61 100 -108s35.5 -102.5 35.5 -166.5v-120c0 -64 -11.833 -119.5 -35.5 -166.5s-57 -83 -100 -108 s-92.5 -37.5 -148.5 -37.5s-105.5 12.5 -148.5 37.5zM428.5 64c34.333 20.667 61 50.667 80 90s28.5 86 28.5 140v123c0 54 -9.5 100.5 -28.5 139.5s-45.667 68.833 -80 89.5s-73.833 31 -118.5 31s-84.167 -10.333 -118.5 -31s-61 -50.5 -80 -89.5 s-28.5 -85.5 -28.5 -139.5v-123c0 -54 9.5 -100.667 28.5 -140s45.667 -69.333 80 -90s73.833 -31 118.5 -31s84.167 10.333 118.5 31zM205 534l210 -0.000976562v-49c-56.667 -73.333 -85 -163.666 -85 -270.999v-38h-77v16c0 106.667 30 200.667 90 282h-138v60z"/>
    <glyph glyph-name="uni2467" unicode="⑧" d="M458.5 689.5c43 -25 76.333 -61 100 -108s35.5 -102.5 35.5 -166.5v-120c0 -64 -11.833 -119.5 -35.5 -166.5s-57 -83 -100 -108s-92.5 -37.5 -148.5 -37.5s-105.5 12.5 -148.5 37.5s-76.5 61 -100.5 108s-36 102.5 -36 166.5v120c0 64 12 119.5 36 166.5 s57.5 83 100.5 108s92.5 37.5 148.5 37.5s105.5 -12.5 148.5 -37.5zM537 417c0 54 -9.5 100.5 -28.5 139.5s-45.667 68.833 -80 89.5s-73.833 31 -118.5 31s-84.167 -10.333 -118.5 -31s-61 -50.5 -80 -89.5s-28.5 -85.5 -28.5 -139.5v-123c0 -54 9.5 -100.667 28.5 -140 s45.667 -69.333 80 -90s73.833 -31 118.5 -31s84.167 10.333 118.5 31s61 50.667 80 90s28.5 86 28.5 140v123zM409.5 337c9 -14 13.501 -34.333 13.501 -61c0 -35.333 -10 -62 -30 -80s-47.667 -27 -83 -27c-36 0 -64 8.5 -84 25.5s-30 42.5 -30 76.5 c0 44 19.333 71.667 58 83c-18 8.66699 -31.167 20.334 -39.5 35.001s-12.5 34.667 -12.5 60c0 29.333 9.66699 52.166 29 68.499s45.333 24.5 78 24.5c33.333 0 59.333 -8 78 -24s28 -39 28 -69c0 -20.667 -3.83301 -37.167 -11.5 -49.5s-19.834 -21.833 -36.501 -28.5 c19.333 -8.66699 33.5 -20 42.5 -34zM283.001 482.5c-6 -7 -9.00098 -18.501 -9.00098 -34.501c0 -18.667 2.83301 -31.834 8.5 -39.501s15.167 -13.5 28.5 -17.5l8 -3c8.66699 4.66699 14.834 11.334 18.501 20.001s5.5 22 5.5 40c0 16.667 -2.83301 28.334 -8.5 35.001 s-14.167 10 -25.5 10s-20 -3.5 -26 -10.5zM338 233.999c6 8 9 22 9 42c0 19.333 -2.66699 32.5 -8 39.5s-15.666 13.167 -30.999 18.5l-8 3c-10 -4.66699 -17.333 -11.5 -22 -20.5s-7 -22.5 -7 -40.5c0 -20 3.16699 -34 9.5 -42s16.166 -12 29.499 -12c12.667 0 22 4 28 12z "/>
    <glyph glyph-name="uni2468" unicode="⑨" d="M458.5 689.5c43 -25 76.333 -61 100 -108s35.5 -102.5 35.5 -166.5v-120c0 -64 -11.833 -119.5 -35.5 -166.5s-57 -83 -100 -108s-92.5 -37.5 -148.5 -37.5s-105.5 12.5 -148.5 37.5s-76.5 61 -100.5 108s-36 102.5 -36 166.5v120c0 64 12 119.5 36 166.5 s57.5 83 100.5 108s92.5 37.5 148.5 37.5s105.5 -12.5 148.5 -37.5zM537 417c0 54 -9.5 100.5 -28.5 139.5s-45.667 68.833 -80 89.5s-73.833 31 -118.5 31s-84.167 -10.333 -118.5 -31s-61 -50.5 -80 -89.5s-28.5 -85.5 -28.5 -139.5v-123c0 -54 9.5 -100.667 28.5 -140 s45.667 -69.333 80 -90s73.833 -31 118.5 -31s84.167 10.333 118.5 31s61 50.667 80 90s28.5 86 28.5 140v123zM374 526c16 -10.667 27.832 -29.833 35.499 -57.5s11.5 -66.834 11.5 -117.501c0 -48.667 -4.16699 -86.167 -12.5 -112.5s-20.666 -44.666 -36.999 -54.999 s-37.833 -15.5 -64.5 -15.5c-34 0 -60.167 8.16699 -78.5 24.5s-27.5 40.5 -27.5 72.5l74 10c0 -36 11.667 -54 35 -54c12.667 0 22 6.83301 28 20.5s9.33301 41.5 10 83.5c-12.667 -14 -32.667 -21 -60 -21c-30 0 -52.333 9 -67 27s-22 47.667 -22 89 c0 81.333 36.667 122 110 122c27.333 0 49 -5.33301 65 -16zM347.999 382.001c-0.666992 30.667 -2.66602 53.833 -5.99902 69.5s-7.5 26 -12.5 31s-11.833 7.5 -20.5 7.5c-12.667 0 -21.834 -5 -27.501 -15s-8.5 -28.333 -8.5 -55c0 -22.667 3 -38.5 9 -47.5 s15 -13.5 27 -13.5c18.667 0 31.667 7.66699 39 23z"/>
    <glyph glyph-name="uni24EA" unicode="⓪" d="M161.5 20.5c-43 25 -76.5 61 -100.5 108s-36 102.5 -36 166.5v120c0 64 12 119.5 36 166.5s57.5 83 100.5 108s92.5 37.5 148.5 37.5s105.5 -12.5 148.5 -37.5s76.333 -61 100 -108s35.5 -102.5 35.5 -166.5v-120c0 -64 -11.833 -119.5 -35.5 -166.5s-57 -83 -100 -108 s-92.5 -37.5 -148.5 -37.5s-105.5 12.5 -148.5 37.5zM428.5 64c34.333 20.667 61 50.667 80 90s28.5 86 28.5 140v123c0 54 -9.5 100.5 -28.5 139.5s-45.667 68.833 -80 89.5s-73.833 31 -118.5 31s-84.167 -10.333 -118.5 -31s-61 -50.5 -80 -89.5 s-28.5 -85.5 -28.5 -139.5v-123c0 -54 9.5 -100.667 28.5 -140s45.667 -69.333 80 -90s73.833 -31 118.5 -31s84.167 10.333 118.5 31zM223 209c-19.333 27.333 -29 76 -29 146s9.66699 118.667 29 146s48.333 41 87 41s67.667 -13.667 87 -41s29 -76 29 -146 s-9.66699 -118.667 -29 -146s-48.333 -41 -87 -41s-67.667 13.667 -87 41zM332 233.5c5.33301 6.33301 9.66602 18.833 12.999 37.5s5 46.667 5 84s-1.66699 65.333 -5 84s-7.66602 31.167 -12.999 37.5s-12.666 9.5 -21.999 9.5s-16.666 -3.16699 -21.999 -9.5 s-9.66602 -18.833 -12.999 -37.5s-5 -46.667 -5 -84s1.66699 -65.333 5 -84s7.66602 -31.167 12.999 -37.5s12.666 -9.5 21.999 -9.5s16.666 3.16699 21.999 9.5z"/>
    <glyph glyph-name="uni24FF" unicode="⓿" d="M161.5 20.5c-43 25 -76.502 61 -100.502 108s-36 102.5 -36 166.5v120c0 64.667 12 120.5 36 167.5s57.5 82.833 100.5 107.5s92.5 37 148.5 37c56.667 0 106.334 -12.333 149.001 -37s75.834 -60.5 99.501 -107.5s35.5 -102.833 35.5 -167.5v-120 c0 -64 -11.833 -119.5 -35.5 -166.5s-57 -83 -100 -108s-92.5 -37.5 -148.5 -37.5s-105.5 12.5 -148.5 37.5zM396.998 209c19.333 27.333 29 76 29 146s-9.66699 118.667 -29 146s-48.333 41 -87 41s-67.667 -13.667 -87 -41s-29 -76 -29 -146s9.66699 -118.667 29 -146 s48.333 -41 87 -41s67.667 13.667 87 41zM287.998 233.5c-5.33301 6.33301 -9.66602 18.833 -12.999 37.5s-5 46.667 -5 84s1.66699 65.333 5 84s7.66602 31.167 12.999 37.5s12.666 9.5 21.999 9.5s16.666 -3.16699 21.999 -9.5s9.66602 -18.833 12.999 -37.5 s5 -46.667 5 -84s-1.66699 -65.333 -5 -84s-7.66602 -31.167 -12.999 -37.5s-12.666 -9.5 -21.999 -9.5s-16.666 3.16699 -21.999 9.5z"/>
    <glyph glyph-name="lozenge" unicode="◊" d="M259 -17l-199 372l199 372h100l201 -372l-201 -372h-100zM172 355l137 -271l140 271l-140 271z"/>
    <glyph glyph-name="circle" unicode="○" d="M182.5 14c-38.333 21.333 -69 54.166 -92 98.499s-34.5 99.833 -34.5 166.5v149c0 66.667 11.5 122.167 34.5 166.5s53.667 77.166 92 98.499s80.833 32 127.5 32s89.167 -10.667 127.5 -32s69 -54.166 92 -98.499s34.5 -99.833 34.5 -166.5v-149 c0 -66.667 -11.5 -122.167 -34.5 -166.5s-53.667 -77.166 -92 -98.499s-80.833 -32 -127.5 -32s-89.167 10.667 -127.5 32zM451 95c37.333 40.667 56 102 56 184v149c0 82.667 -18.667 144.167 -56 184.5s-84.333 60.5 -141 60.5s-103.834 -20.167 -141.501 -60.5 s-56.5 -101.833 -56.5 -184.5v-149c0 -56 9 -102.333 27 -139s41.833 -63.5 71.5 -80.5s62.834 -25.5 99.501 -25.5c56.667 0 103.667 20.333 141 61z"/>
    <glyph glyph-name="uni2776" unicode="❶" d="M161.5 20.5c-43 25 -76.502 61 -100.502 108s-36 102.5 -36 166.5v120c0 64.667 12 120.5 36 167.5s57.5 82.833 100.5 107.5s92.5 37 148.5 37c56.667 0 106.334 -12.333 149.001 -37s75.834 -60.5 99.501 -107.5s35.5 -102.833 35.5 -167.5v-120 c0 -64 -11.833 -119.5 -35.5 -166.5s-57 -83 -100 -108s-92.5 -37.5 -148.5 -37.5s-105.5 12.5 -148.5 37.5zM417.998 176l0.000976562 64h-65v294h-60c-4.66699 -15.333 -13.5 -27.333 -26.5 -36s-28.5 -13 -46.5 -13h-6v-70h8c11.333 0 22.166 1.66699 32.499 5 s18.5 8 24.5 14v-194h-70v-64h209z"/>
    </font>
</defs>
</svg>
